G04*
G04 #@! TF.GenerationSoftware,Altium Limited,Altium Designer,20.0.13 (296)*
G04*
G04 Layer_Physical_Order=1*
G04 Layer_Color=255*
%FSLAX44Y44*%
%MOMM*%
G71*
G01*
G75*
%ADD10C,0.2540*%
G04:AMPARAMS|DCode=13|XSize=0.4mm|YSize=2.032mm|CornerRadius=0.1mm|HoleSize=0mm|Usage=FLASHONLY|Rotation=90.000|XOffset=0mm|YOffset=0mm|HoleType=Round|Shape=RoundedRectangle|*
%AMROUNDEDRECTD13*
21,1,0.4000,1.8320,0,0,90.0*
21,1,0.2000,2.0320,0,0,90.0*
1,1,0.2000,0.9160,0.1000*
1,1,0.2000,0.9160,-0.1000*
1,1,0.2000,-0.9160,-0.1000*
1,1,0.2000,-0.9160,0.1000*
%
%ADD13ROUNDEDRECTD13*%
G04:AMPARAMS|DCode=14|XSize=0.508mm|YSize=0.508mm|CornerRadius=0.127mm|HoleSize=0mm|Usage=FLASHONLY|Rotation=180.000|XOffset=0mm|YOffset=0mm|HoleType=Round|Shape=RoundedRectangle|*
%AMROUNDEDRECTD14*
21,1,0.5080,0.2540,0,0,180.0*
21,1,0.2540,0.5080,0,0,180.0*
1,1,0.2540,-0.1270,0.1270*
1,1,0.2540,0.1270,0.1270*
1,1,0.2540,0.1270,-0.1270*
1,1,0.2540,-0.1270,-0.1270*
%
%ADD14ROUNDEDRECTD14*%
G04:AMPARAMS|DCode=15|XSize=0.6mm|YSize=1mm|CornerRadius=0.15mm|HoleSize=0mm|Usage=FLASHONLY|Rotation=0.000|XOffset=0mm|YOffset=0mm|HoleType=Round|Shape=RoundedRectangle|*
%AMROUNDEDRECTD15*
21,1,0.6000,0.7000,0,0,0.0*
21,1,0.3000,1.0000,0,0,0.0*
1,1,0.3000,0.1500,-0.3500*
1,1,0.3000,-0.1500,-0.3500*
1,1,0.3000,-0.1500,0.3500*
1,1,0.3000,0.1500,0.3500*
%
%ADD15ROUNDEDRECTD15*%
G04:AMPARAMS|DCode=16|XSize=2.1844mm|YSize=1.8288mm|CornerRadius=0.4572mm|HoleSize=0mm|Usage=FLASHONLY|Rotation=0.000|XOffset=0mm|YOffset=0mm|HoleType=Round|Shape=RoundedRectangle|*
%AMROUNDEDRECTD16*
21,1,2.1844,0.9144,0,0,0.0*
21,1,1.2700,1.8288,0,0,0.0*
1,1,0.9144,0.6350,-0.4572*
1,1,0.9144,-0.6350,-0.4572*
1,1,0.9144,-0.6350,0.4572*
1,1,0.9144,0.6350,0.4572*
%
%ADD16ROUNDEDRECTD16*%
G04:AMPARAMS|DCode=17|XSize=1.27mm|YSize=0.254mm|CornerRadius=0.0635mm|HoleSize=0mm|Usage=FLASHONLY|Rotation=180.000|XOffset=0mm|YOffset=0mm|HoleType=Round|Shape=RoundedRectangle|*
%AMROUNDEDRECTD17*
21,1,1.2700,0.1270,0,0,180.0*
21,1,1.1430,0.2540,0,0,180.0*
1,1,0.1270,-0.5715,0.0635*
1,1,0.1270,0.5715,0.0635*
1,1,0.1270,0.5715,-0.0635*
1,1,0.1270,-0.5715,-0.0635*
%
%ADD17ROUNDEDRECTD17*%
%ADD23C,0.1016*%
G36*
X291288Y2590D02*
X2590D01*
Y259792D01*
X291288D01*
Y2590D01*
D02*
G37*
%LPC*%
G36*
X143383Y150887D02*
X131953D01*
X131210Y150739D01*
X130746Y150429D01*
X130644Y150401D01*
X130606Y150336D01*
X130580Y150318D01*
X130576Y150312D01*
X130513Y150286D01*
X130477Y150201D01*
X130425Y150196D01*
X130253Y150192D01*
X130095Y150123D01*
X129006D01*
X128312Y149985D01*
X127724Y149592D01*
X123940Y145808D01*
X123547Y145220D01*
X123409Y144526D01*
Y71882D01*
X123547Y71188D01*
X123940Y70600D01*
X146546Y47994D01*
X147134Y47601D01*
X147828Y47463D01*
X154998D01*
X155087Y47015D01*
X155649Y46175D01*
X156489Y45613D01*
X157480Y45416D01*
X160020D01*
X161011Y45613D01*
X161851Y46175D01*
X162413Y47015D01*
X162610Y48006D01*
Y50546D01*
X162443Y51383D01*
X162503Y51449D01*
X163564Y52058D01*
X164152Y51665D01*
X164846Y51527D01*
X181698D01*
X182392Y51665D01*
X182980Y52058D01*
X189221Y58299D01*
X189799Y57913D01*
X190880Y57698D01*
X193880D01*
X194961Y57913D01*
X195877Y58525D01*
X196489Y59441D01*
X196704Y60522D01*
Y67522D01*
X196489Y68603D01*
X195877Y69519D01*
X194961Y70131D01*
X193880Y70346D01*
X190880D01*
X189799Y70131D01*
X189488Y69923D01*
X189307Y69802D01*
X188497Y70789D01*
X198599Y80890D01*
X198721Y80936D01*
X199050Y81242D01*
X199349Y81482D01*
X199655Y81690D01*
X199970Y81868D01*
X200292Y82018D01*
X200627Y82141D01*
X200975Y82236D01*
X201339Y82306D01*
X201720Y82348D01*
X202169Y82364D01*
X202288Y82418D01*
X211245D01*
X211372Y82364D01*
X211764Y82357D01*
X212092Y82341D01*
X212717Y82274D01*
X212953Y82231D01*
X213173Y82179D01*
X213220Y82164D01*
X213459Y81612D01*
X213516Y81323D01*
X213516Y81282D01*
X213450Y80875D01*
X213416Y80768D01*
X213231Y80645D01*
X212730Y79894D01*
X212719Y79842D01*
X212673Y79821D01*
X209580D01*
X208886Y79683D01*
X208298Y79290D01*
X202426Y73418D01*
X202033Y72830D01*
X201895Y72136D01*
Y51297D01*
X191513Y40915D01*
X187204D01*
Y42602D01*
X186989Y43683D01*
X186377Y44599D01*
X185461Y45211D01*
X184380Y45426D01*
X181380D01*
X180299Y45211D01*
X179383Y44599D01*
X178771Y43683D01*
X178556Y42602D01*
Y35602D01*
X178771Y34521D01*
X179383Y33605D01*
X180299Y32993D01*
X181380Y32778D01*
X184380D01*
X185461Y32993D01*
X186377Y33605D01*
X186989Y34521D01*
X187204Y35602D01*
Y37289D01*
X192264D01*
X192958Y37427D01*
X193546Y37820D01*
X204990Y49264D01*
X205383Y49852D01*
X205521Y50546D01*
Y71385D01*
X210331Y76195D01*
X212673D01*
X212719Y76174D01*
X212730Y76122D01*
X213231Y75371D01*
X213982Y74870D01*
X214868Y74693D01*
X233188D01*
X234074Y74870D01*
X234825Y75371D01*
X235326Y76122D01*
X235502Y77008D01*
Y79008D01*
X235326Y79894D01*
X234825Y80645D01*
X234619Y80782D01*
Y82234D01*
X234825Y82371D01*
X235326Y83122D01*
X235502Y84008D01*
Y86008D01*
X235326Y86894D01*
X234825Y87645D01*
X234074Y88146D01*
X233188Y88322D01*
X214868D01*
X214569Y88263D01*
X214490Y88296D01*
X214263Y88202D01*
X213982Y88146D01*
X213951Y88126D01*
X213784Y88101D01*
X213634Y88011D01*
X213513Y87953D01*
X213359Y87894D01*
X213173Y87837D01*
X212953Y87785D01*
X212731Y87745D01*
X211738Y87658D01*
X211372Y87653D01*
X211245Y87598D01*
X202288D01*
X202169Y87652D01*
X201720Y87668D01*
X201339Y87710D01*
X200975Y87780D01*
X200627Y87876D01*
X200292Y87998D01*
X199970Y88148D01*
X199655Y88326D01*
X199349Y88534D01*
X199050Y88774D01*
X198721Y89080D01*
X198599Y89126D01*
X185563Y102161D01*
X184723Y102723D01*
X183732Y102920D01*
X166681D01*
X149459Y120141D01*
X148619Y120702D01*
X147628Y120900D01*
X146107D01*
X145976Y120955D01*
X143532Y120967D01*
X143471Y120969D01*
X143430Y120954D01*
X143383Y120974D01*
X143204Y120900D01*
X137668D01*
X137605Y120887D01*
X131953D01*
X131210Y120739D01*
X130580Y120318D01*
X130159Y119688D01*
X130011Y118945D01*
Y117675D01*
X130159Y116932D01*
X130580Y116301D01*
Y115318D01*
X130159Y114688D01*
X130011Y113945D01*
Y112675D01*
X130159Y111932D01*
X130580Y111301D01*
X131210Y110880D01*
X131953Y110733D01*
X143383D01*
X144126Y110880D01*
X144756Y111301D01*
X145177Y111932D01*
X145325Y112675D01*
Y113945D01*
X146161Y115119D01*
X146900Y115254D01*
X147060Y115216D01*
X163777Y98499D01*
X164617Y97937D01*
X165608Y97740D01*
X182659D01*
X194399Y86000D01*
X194440Y85885D01*
X194707Y85588D01*
X194852Y85380D01*
X194934Y85218D01*
X194969Y85099D01*
X194978Y85008D01*
X194969Y84917D01*
X194934Y84798D01*
X194852Y84636D01*
X194707Y84428D01*
X194440Y84132D01*
X194399Y84016D01*
X178818Y68434D01*
X178208Y68512D01*
X177369Y68782D01*
X176877Y69519D01*
X175961Y70131D01*
X174880Y70346D01*
X171880D01*
X170799Y70131D01*
X169883Y69519D01*
X169271Y68603D01*
X169056Y67522D01*
Y60522D01*
X169271Y59441D01*
X169883Y58525D01*
X170799Y57913D01*
X171880Y57698D01*
X174880D01*
X175961Y57913D01*
X176877Y58525D01*
X177489Y59441D01*
X177704Y60522D01*
Y61366D01*
X177806Y61374D01*
X178086Y61377D01*
X178339Y61486D01*
X179059Y61629D01*
X179899Y62191D01*
X187613Y69905D01*
X188600Y69095D01*
X188479Y68914D01*
X188271Y68603D01*
X188056Y67522D01*
Y62504D01*
X188048Y62491D01*
X188045Y62463D01*
X188038Y62444D01*
X188038Y62435D01*
X188029Y62417D01*
X187999Y62365D01*
X187963Y62311D01*
X187785Y62094D01*
X187670Y61974D01*
X187669Y61972D01*
X187667Y61971D01*
X187605Y61811D01*
X180947Y55153D01*
X165597D01*
X162965Y57785D01*
X162901Y57947D01*
X162734Y58120D01*
X162618Y58251D01*
X162610Y58262D01*
Y58295D01*
X162628Y58339D01*
X162610Y58383D01*
Y58538D01*
X162612Y58548D01*
X162610Y58551D01*
Y60706D01*
X162413Y61697D01*
X161851Y62537D01*
X161011Y63099D01*
X160020Y63296D01*
X157480D01*
X156489Y63099D01*
X155649Y62537D01*
X155087Y61697D01*
X154890Y60706D01*
Y58166D01*
X155087Y57175D01*
X155649Y56335D01*
X156489Y55773D01*
X157480Y55576D01*
X159635D01*
X159638Y55574D01*
X159648Y55576D01*
X159803D01*
X159847Y55558D01*
X159891Y55576D01*
X159916D01*
X160079Y55440D01*
X160239Y55285D01*
X160401Y55221D01*
X161124Y54499D01*
X161085Y54219D01*
X160020Y53136D01*
X157480D01*
X156489Y52939D01*
X155649Y52377D01*
X155087Y51537D01*
X154998Y51089D01*
X148579D01*
X127035Y72633D01*
Y143775D01*
X128669Y145409D01*
X129847Y145364D01*
X129858Y145349D01*
X130127Y144765D01*
X130159Y144688D01*
X130011Y143945D01*
Y142675D01*
X130159Y141931D01*
X130580Y141301D01*
Y140318D01*
X130159Y139688D01*
X130011Y138945D01*
Y137675D01*
X130159Y136932D01*
X130580Y136301D01*
Y135318D01*
X130159Y134688D01*
X130011Y133945D01*
Y132675D01*
X130159Y131932D01*
X130580Y131301D01*
Y130318D01*
X130159Y129688D01*
X130011Y128945D01*
Y127675D01*
X130159Y126932D01*
X130580Y126301D01*
X131210Y125880D01*
X131953Y125732D01*
X143383D01*
X144126Y125880D01*
X144590Y126190D01*
X144692Y126218D01*
X144730Y126284D01*
X144756Y126301D01*
X144760Y126307D01*
X144823Y126334D01*
X144859Y126418D01*
X144911Y126424D01*
X145083Y126427D01*
X145241Y126497D01*
X148561D01*
X170332Y104726D01*
X170920Y104333D01*
X171614Y104195D01*
X212673D01*
X212719Y104174D01*
X212730Y104122D01*
X213231Y103371D01*
X213982Y102870D01*
X214868Y102694D01*
X233188D01*
X234074Y102870D01*
X234825Y103371D01*
X235326Y104122D01*
X235502Y105008D01*
Y107008D01*
X235326Y107894D01*
X234825Y108645D01*
X234074Y109146D01*
X233188Y109323D01*
X214868D01*
X213982Y109146D01*
X213231Y108645D01*
X212730Y107894D01*
X212719Y107842D01*
X212673Y107821D01*
X172365D01*
X150594Y129592D01*
X150006Y129985D01*
X149312Y130123D01*
X146538D01*
X146164Y131119D01*
X146460Y131497D01*
X153467D01*
X166238Y118726D01*
X166826Y118333D01*
X167520Y118195D01*
X212673D01*
X212719Y118174D01*
X212730Y118122D01*
X213231Y117371D01*
X213982Y116870D01*
X214868Y116693D01*
X233188D01*
X234074Y116870D01*
X234825Y117371D01*
X235326Y118122D01*
X235502Y119008D01*
Y121008D01*
X235326Y121894D01*
X234825Y122645D01*
X234619Y122782D01*
Y124234D01*
X234825Y124371D01*
X235326Y125122D01*
X235502Y126008D01*
Y128008D01*
X235326Y128894D01*
X234825Y129645D01*
X234619Y129782D01*
Y131234D01*
X234825Y131371D01*
X235326Y132122D01*
X235502Y133008D01*
Y135008D01*
X235326Y135894D01*
X234825Y136645D01*
X234074Y137146D01*
X233188Y137323D01*
X214868D01*
X213982Y137146D01*
X213231Y136645D01*
X212730Y135894D01*
X212719Y135842D01*
X212673Y135821D01*
X169257D01*
X160486Y144592D01*
X159898Y144985D01*
X159204Y145123D01*
X145363D01*
X144890Y146247D01*
X144982Y146639D01*
X145177Y146931D01*
X145325Y147675D01*
Y148945D01*
X145177Y149688D01*
X144756Y150318D01*
X144126Y150739D01*
X143383Y150887D01*
D02*
G37*
%LPD*%
G36*
X131485Y147305D02*
X131473Y147400D01*
X131437Y147484D01*
X131376Y147559D01*
X131292Y147623D01*
X131184Y147678D01*
X131052Y147722D01*
X130896Y147757D01*
X130715Y147782D01*
X130511Y147797D01*
X130283Y147802D01*
Y148818D01*
X130511Y148823D01*
X130896Y148862D01*
X131052Y148897D01*
X131184Y148942D01*
X131292Y148996D01*
X131376Y149061D01*
X131437Y149136D01*
X131473Y149220D01*
X131485Y149314D01*
Y147305D01*
D02*
G37*
G36*
X143863Y144220D02*
X143899Y144136D01*
X143960Y144061D01*
X144044Y143996D01*
X144152Y143942D01*
X144284Y143897D01*
X144440Y143862D01*
X144621Y143838D01*
X144825Y143823D01*
X145053Y143818D01*
Y142802D01*
X144825Y142797D01*
X144440Y142757D01*
X144284Y142722D01*
X144152Y142678D01*
X144044Y142623D01*
X143960Y142559D01*
X143899Y142484D01*
X143863Y142400D01*
X143851Y142305D01*
Y144314D01*
X143863Y144220D01*
D02*
G37*
G36*
Y139220D02*
X143899Y139136D01*
X143960Y139061D01*
X144044Y138996D01*
X144152Y138942D01*
X144284Y138897D01*
X144440Y138862D01*
X144621Y138838D01*
X144825Y138823D01*
X145053Y138818D01*
Y137802D01*
X144825Y137797D01*
X144440Y137757D01*
X144284Y137722D01*
X144152Y137678D01*
X144044Y137623D01*
X143960Y137559D01*
X143899Y137484D01*
X143863Y137400D01*
X143851Y137305D01*
Y139314D01*
X143863Y139220D01*
D02*
G37*
G36*
X213913Y132998D02*
X213902Y133093D01*
X213871Y133179D01*
X213818Y133254D01*
X213745Y133319D01*
X213650Y133375D01*
X213535Y133420D01*
X213398Y133455D01*
X213241Y133480D01*
X213063Y133495D01*
X212864Y133500D01*
Y134516D01*
X213063Y134521D01*
X213241Y134536D01*
X213398Y134561D01*
X213535Y134596D01*
X213650Y134642D01*
X213745Y134697D01*
X213818Y134762D01*
X213871Y134837D01*
X213902Y134923D01*
X213913Y135018D01*
Y132998D01*
D02*
G37*
G36*
X143863Y134220D02*
X143899Y134136D01*
X143960Y134061D01*
X144044Y133996D01*
X144152Y133942D01*
X144284Y133897D01*
X144440Y133862D01*
X144621Y133838D01*
X144825Y133823D01*
X145053Y133818D01*
Y132802D01*
X144825Y132797D01*
X144440Y132757D01*
X144284Y132722D01*
X144152Y132678D01*
X144044Y132623D01*
X143960Y132559D01*
X143899Y132484D01*
X143863Y132400D01*
X143851Y132305D01*
Y134314D01*
X143863Y134220D01*
D02*
G37*
G36*
Y129220D02*
X143899Y129136D01*
X143960Y129061D01*
X144044Y128996D01*
X144152Y128942D01*
X144284Y128897D01*
X144440Y128862D01*
X144621Y128838D01*
X144825Y128823D01*
X145053Y128818D01*
Y127802D01*
X144825Y127797D01*
X144440Y127757D01*
X144284Y127722D01*
X144152Y127678D01*
X144044Y127623D01*
X143960Y127559D01*
X143899Y127484D01*
X143863Y127400D01*
X143851Y127305D01*
Y129314D01*
X143863Y129220D01*
D02*
G37*
G36*
X213913Y125998D02*
X213902Y126093D01*
X213871Y126179D01*
X213818Y126254D01*
X213745Y126319D01*
X213650Y126375D01*
X213535Y126420D01*
X213398Y126455D01*
X213241Y126480D01*
X213063Y126495D01*
X212864Y126500D01*
Y127516D01*
X213063Y127521D01*
X213241Y127536D01*
X213398Y127561D01*
X213535Y127596D01*
X213650Y127641D01*
X213745Y127697D01*
X213818Y127762D01*
X213871Y127837D01*
X213902Y127923D01*
X213913Y128018D01*
Y125998D01*
D02*
G37*
G36*
Y118998D02*
X213902Y119093D01*
X213871Y119179D01*
X213818Y119254D01*
X213745Y119319D01*
X213650Y119375D01*
X213535Y119420D01*
X213398Y119455D01*
X213241Y119480D01*
X213063Y119495D01*
X212864Y119500D01*
Y120516D01*
X213063Y120521D01*
X213241Y120536D01*
X213398Y120561D01*
X213535Y120596D01*
X213650Y120641D01*
X213745Y120697D01*
X213818Y120762D01*
X213871Y120837D01*
X213902Y120923D01*
X213913Y121018D01*
Y118998D01*
D02*
G37*
G36*
X143417Y119595D02*
X143501Y119592D01*
X145970Y119580D01*
Y117040D01*
X143383Y117021D01*
Y119599D01*
X143417Y119595D01*
D02*
G37*
G36*
X213913Y104998D02*
X213902Y105093D01*
X213871Y105179D01*
X213818Y105254D01*
X213745Y105319D01*
X213650Y105374D01*
X213535Y105420D01*
X213398Y105455D01*
X213241Y105480D01*
X213063Y105495D01*
X212864Y105500D01*
Y106516D01*
X213063Y106521D01*
X213241Y106536D01*
X213398Y106561D01*
X213535Y106596D01*
X213650Y106642D01*
X213745Y106697D01*
X213818Y106762D01*
X213871Y106837D01*
X213902Y106923D01*
X213913Y107018D01*
Y104998D01*
D02*
G37*
G36*
X214490Y83095D02*
X214286Y83217D01*
X214058Y83326D01*
X213807Y83423D01*
X213532Y83506D01*
X213234Y83577D01*
X212913Y83635D01*
X212200Y83712D01*
X211808Y83732D01*
X211393Y83738D01*
Y86278D01*
X211808Y86284D01*
X212913Y86381D01*
X213234Y86439D01*
X213532Y86510D01*
X213807Y86593D01*
X214058Y86690D01*
X214286Y86799D01*
X214490Y86921D01*
Y83095D01*
D02*
G37*
G36*
X198151Y87733D02*
X198532Y87428D01*
X198929Y87158D01*
X199340Y86925D01*
X199766Y86727D01*
X200207Y86565D01*
X200663Y86440D01*
X201134Y86350D01*
X201619Y86296D01*
X202120Y86278D01*
Y83738D01*
X201619Y83720D01*
X201134Y83666D01*
X200663Y83576D01*
X200207Y83451D01*
X199766Y83289D01*
X199340Y83091D01*
X198929Y82858D01*
X198532Y82589D01*
X198151Y82283D01*
X197784Y81942D01*
X195462Y83212D01*
X195785Y83571D01*
X196037Y83930D01*
X196216Y84290D01*
X196324Y84649D01*
X196360Y85008D01*
X196324Y85367D01*
X196216Y85726D01*
X196037Y86086D01*
X195785Y86445D01*
X195462Y86804D01*
X197784Y88074D01*
X198151Y87733D01*
D02*
G37*
G36*
X213913Y76998D02*
X213902Y77093D01*
X213871Y77179D01*
X213818Y77254D01*
X213745Y77319D01*
X213650Y77375D01*
X213535Y77420D01*
X213398Y77455D01*
X213241Y77480D01*
X213063Y77495D01*
X212864Y77500D01*
Y78516D01*
X213063Y78521D01*
X213241Y78536D01*
X213398Y78561D01*
X213535Y78596D01*
X213650Y78642D01*
X213745Y78697D01*
X213818Y78762D01*
X213871Y78837D01*
X213902Y78923D01*
X213913Y79018D01*
Y76998D01*
D02*
G37*
G36*
X176365Y65632D02*
X176417Y65561D01*
X176503Y65498D01*
X176623Y65443D01*
X176778Y65397D01*
X176967Y65359D01*
X177191Y65330D01*
X177741Y65296D01*
X178068Y65292D01*
Y62752D01*
X177741Y62748D01*
X176967Y62685D01*
X176778Y62647D01*
X176623Y62601D01*
X176503Y62546D01*
X176417Y62483D01*
X176365Y62412D01*
X176348Y62332D01*
Y65712D01*
X176365Y65632D01*
D02*
G37*
G36*
X189620Y59817D02*
X189602Y59936D01*
X189566Y60025D01*
X189515Y60083D01*
X189447Y60109D01*
X189363Y60105D01*
X189263Y60071D01*
X189147Y60005D01*
X189014Y59908D01*
X188865Y59781D01*
X188699Y59623D01*
X188663Y61024D01*
X188815Y61182D01*
X189066Y61489D01*
X189167Y61637D01*
X189250Y61782D01*
X189317Y61925D01*
X189366Y62063D01*
X189398Y62199D01*
X189414Y62331D01*
X189412Y62461D01*
X189620Y59817D01*
D02*
G37*
G36*
X161198Y58264D02*
X161170Y58175D01*
X161168Y58073D01*
X161194Y57958D01*
X161246Y57831D01*
X161325Y57689D01*
X161432Y57535D01*
X161565Y57367D01*
X161725Y57187D01*
X161912Y56993D01*
X161193Y56274D01*
X160999Y56461D01*
X160651Y56754D01*
X160497Y56861D01*
X160355Y56940D01*
X160228Y56992D01*
X160113Y57018D01*
X160011Y57016D01*
X159922Y56988D01*
X159847Y56933D01*
X161253Y58339D01*
X161198Y58264D01*
D02*
G37*
G36*
X156247Y48260D02*
X156236Y48356D01*
X156205Y48443D01*
X156152Y48519D01*
X156079Y48585D01*
X155985Y48641D01*
X155870Y48687D01*
X155734Y48722D01*
X155577Y48748D01*
X155399Y48763D01*
X155200Y48768D01*
Y49784D01*
X155399Y49789D01*
X155577Y49804D01*
X155734Y49830D01*
X155870Y49865D01*
X155985Y49911D01*
X156079Y49967D01*
X156152Y50033D01*
X156205Y50109D01*
X156236Y50195D01*
X156247Y50292D01*
Y48260D01*
D02*
G37*
G36*
X185858Y40022D02*
X185890Y39935D01*
X185942Y39859D01*
X186015Y39793D01*
X186109Y39737D01*
X186224Y39691D01*
X186361Y39656D01*
X186518Y39630D01*
X186695Y39615D01*
X186894Y39610D01*
Y38594D01*
X186695Y38589D01*
X186518Y38574D01*
X186361Y38548D01*
X186224Y38513D01*
X186109Y38467D01*
X186015Y38411D01*
X185942Y38345D01*
X185890Y38269D01*
X185858Y38182D01*
X185848Y38086D01*
Y40118D01*
X185858Y40022D01*
D02*
G37*
D10*
X183732Y100330D02*
X199054Y85008D01*
X165608Y100330D02*
X183732D01*
X147628Y118310D02*
X165608Y100330D01*
X137668Y118310D02*
X147628D01*
X173380Y64022D02*
X178068D01*
X199054Y85008D01*
X224028D01*
D13*
Y64008D02*
D03*
Y85008D02*
D03*
Y106008D02*
D03*
Y127008D02*
D03*
Y78008D02*
D03*
Y71008D02*
D03*
Y99008D02*
D03*
Y92008D02*
D03*
Y113008D02*
D03*
Y120008D02*
D03*
Y134008D02*
D03*
Y141008D02*
D03*
D14*
X158750Y59436D02*
D03*
Y49276D02*
D03*
D15*
X182880Y39102D02*
D03*
X173380Y64022D02*
D03*
X192380D02*
D03*
D16*
X169164Y177960D02*
D03*
Y83660D02*
D03*
D17*
X137668Y148310D02*
D03*
Y143310D02*
D03*
Y138310D02*
D03*
Y133310D02*
D03*
Y128310D02*
D03*
Y123310D02*
D03*
Y118310D02*
D03*
Y113310D02*
D03*
D23*
X209580Y78008D02*
X224028D01*
X203708Y72136D02*
X209580Y78008D01*
X203708Y50546D02*
Y72136D01*
X192264Y39102D02*
X203708Y50546D01*
X182880Y39102D02*
X192264D01*
X129006Y148310D02*
X137668D01*
X125222Y144526D02*
X129006Y148310D01*
X125222Y71882D02*
Y144526D01*
Y71882D02*
X147828Y49276D01*
X158750D01*
X181698Y53340D02*
X192380Y64022D01*
X164846Y53340D02*
X181698D01*
X158750Y59436D02*
X164846Y53340D01*
X171614Y106008D02*
X224028D01*
X149312Y128310D02*
X171614Y106008D01*
X137668Y128310D02*
X149312D01*
X167520Y120008D02*
X224028D01*
X154218Y133310D02*
X167520Y120008D01*
X137668Y133310D02*
X154218D01*
X167632Y127008D02*
X224028D01*
X156330Y138310D02*
X167632Y127008D01*
X137668Y138310D02*
X156330D01*
X168506Y134008D02*
X224028D01*
X159204Y143310D02*
X168506Y134008D01*
X137668Y143310D02*
X159204D01*
M02*
