G04*
G04 #@! TF.GenerationSoftware,Altium Limited,Altium Designer,20.0.13 (296)*
G04*
G04 Layer_Color=8388736*
%FSLAX44Y44*%
%MOMM*%
G71*
G01*
G75*
G04:AMPARAMS|DCode=18|XSize=0.5524mm|YSize=2.1844mm|CornerRadius=0.1762mm|HoleSize=0mm|Usage=FLASHONLY|Rotation=90.000|XOffset=0mm|YOffset=0mm|HoleType=Round|Shape=RoundedRectangle|*
%AMROUNDEDRECTD18*
21,1,0.5524,1.8320,0,0,90.0*
21,1,0.2000,2.1844,0,0,90.0*
1,1,0.3524,0.9160,0.1000*
1,1,0.3524,0.9160,-0.1000*
1,1,0.3524,-0.9160,-0.1000*
1,1,0.3524,-0.9160,0.1000*
%
%ADD18ROUNDEDRECTD18*%
G04:AMPARAMS|DCode=19|XSize=0.6604mm|YSize=0.6604mm|CornerRadius=0.2032mm|HoleSize=0mm|Usage=FLASHONLY|Rotation=180.000|XOffset=0mm|YOffset=0mm|HoleType=Round|Shape=RoundedRectangle|*
%AMROUNDEDRECTD19*
21,1,0.6604,0.2540,0,0,180.0*
21,1,0.2540,0.6604,0,0,180.0*
1,1,0.4064,-0.1270,0.1270*
1,1,0.4064,0.1270,0.1270*
1,1,0.4064,0.1270,-0.1270*
1,1,0.4064,-0.1270,-0.1270*
%
%ADD19ROUNDEDRECTD19*%
G04:AMPARAMS|DCode=20|XSize=0.7524mm|YSize=1.1524mm|CornerRadius=0.2262mm|HoleSize=0mm|Usage=FLASHONLY|Rotation=0.000|XOffset=0mm|YOffset=0mm|HoleType=Round|Shape=RoundedRectangle|*
%AMROUNDEDRECTD20*
21,1,0.7524,0.7000,0,0,0.0*
21,1,0.3000,1.1524,0,0,0.0*
1,1,0.4524,0.1500,-0.3500*
1,1,0.4524,-0.1500,-0.3500*
1,1,0.4524,-0.1500,0.3500*
1,1,0.4524,0.1500,0.3500*
%
%ADD20ROUNDEDRECTD20*%
G04:AMPARAMS|DCode=21|XSize=2.3368mm|YSize=1.9812mm|CornerRadius=0.5334mm|HoleSize=0mm|Usage=FLASHONLY|Rotation=0.000|XOffset=0mm|YOffset=0mm|HoleType=Round|Shape=RoundedRectangle|*
%AMROUNDEDRECTD21*
21,1,2.3368,0.9144,0,0,0.0*
21,1,1.2700,1.9812,0,0,0.0*
1,1,1.0668,0.6350,-0.4572*
1,1,1.0668,-0.6350,-0.4572*
1,1,1.0668,-0.6350,0.4572*
1,1,1.0668,0.6350,0.4572*
%
%ADD21ROUNDEDRECTD21*%
G04:AMPARAMS|DCode=22|XSize=1.4224mm|YSize=0.4064mm|CornerRadius=0.1397mm|HoleSize=0mm|Usage=FLASHONLY|Rotation=180.000|XOffset=0mm|YOffset=0mm|HoleType=Round|Shape=RoundedRectangle|*
%AMROUNDEDRECTD22*
21,1,1.4224,0.1270,0,0,180.0*
21,1,1.1430,0.4064,0,0,180.0*
1,1,0.2794,-0.5715,0.0635*
1,1,0.2794,0.5715,0.0635*
1,1,0.2794,0.5715,-0.0635*
1,1,0.2794,-0.5715,-0.0635*
%
%ADD22ROUNDEDRECTD22*%
D18*
X224028Y64008D02*
D03*
Y85008D02*
D03*
Y106008D02*
D03*
Y127008D02*
D03*
Y78008D02*
D03*
Y71008D02*
D03*
Y99008D02*
D03*
Y92008D02*
D03*
Y113008D02*
D03*
Y120008D02*
D03*
Y134008D02*
D03*
Y141008D02*
D03*
D19*
X158750Y59436D02*
D03*
Y49276D02*
D03*
D20*
X182880Y39102D02*
D03*
X173380Y64022D02*
D03*
X192380D02*
D03*
D21*
X169164Y177960D02*
D03*
Y83660D02*
D03*
D22*
X137668Y148310D02*
D03*
Y143310D02*
D03*
Y138310D02*
D03*
Y133310D02*
D03*
Y128310D02*
D03*
Y123310D02*
D03*
Y118310D02*
D03*
Y113310D02*
D03*
M02*
