G04*
G04 #@! TF.GenerationSoftware,Altium Limited,Altium Designer,20.0.13 (296)*
G04*
G04 Layer_Color=16711935*
%FSLAX25Y25*%
%MOIN*%
G70*
G01*
G75*
G04:AMPARAMS|DCode=41|XSize=26mil|YSize=26mil|CornerRadius=8mil|HoleSize=0mil|Usage=FLASHONLY|Rotation=270.000|XOffset=0mil|YOffset=0mil|HoleType=Round|Shape=RoundedRectangle|*
%AMROUNDEDRECTD41*
21,1,0.02600,0.01000,0,0,270.0*
21,1,0.01000,0.02600,0,0,270.0*
1,1,0.01600,-0.00500,-0.00500*
1,1,0.01600,-0.00500,0.00500*
1,1,0.01600,0.00500,0.00500*
1,1,0.01600,0.00500,-0.00500*
%
%ADD41ROUNDEDRECTD41*%
%ADD53C,0.04537*%
%ADD54C,0.03159*%
%ADD55O,0.06899X0.04537*%
%ADD56O,0.08868X0.04537*%
%ADD67R,0.09261X0.08600*%
%ADD68R,0.06112X0.06899*%
%ADD69R,0.06112X0.05324*%
%ADD70R,0.07687X0.03356*%
D41*
X27500Y37000D02*
D03*
X31500D02*
D03*
X27500Y31500D02*
D03*
X31500D02*
D03*
X27500Y68000D02*
D03*
X31500D02*
D03*
X27500Y73500D02*
D03*
X31500D02*
D03*
D53*
X83000Y40004D02*
D03*
Y71500D02*
D03*
D54*
X96142Y41622D02*
D03*
Y64378D02*
D03*
D55*
X109921Y70028D02*
D03*
Y35972D02*
D03*
D56*
X94173Y70028D02*
D03*
Y35972D02*
D03*
D67*
X81425Y21894D02*
D03*
Y82917D02*
D03*
D68*
X43630Y25043D02*
D03*
D69*
Y82917D02*
D03*
D70*
X41162Y43154D02*
D03*
Y47484D02*
D03*
Y51815D02*
D03*
Y56146D02*
D03*
Y60476D02*
D03*
Y69138D02*
D03*
Y73469D02*
D03*
Y77799D02*
D03*
Y64807D02*
D03*
M02*
