G04*
G04 #@! TF.GenerationSoftware,Altium Limited,Altium Designer,20.0.13 (296)*
G04*
G04 Layer_Color=32896*
%FSLAX25Y25*%
%MOIN*%
G70*
G01*
G75*
%ADD12C,0.00600*%
%ADD15C,0.00100*%
G36*
X28850Y30550D02*
X30150D01*
X30150Y30900D01*
X28850D01*
X28850Y30550D01*
D02*
G37*
G36*
X30150Y32450D02*
X28850D01*
Y32100D01*
X30150D01*
Y32450D01*
D02*
G37*
G36*
X28850Y36050D02*
X30150D01*
X30150Y36400D01*
X28850D01*
X28850Y36050D01*
D02*
G37*
G36*
X30150Y37950D02*
X28850D01*
Y37600D01*
X30150D01*
Y37950D01*
D02*
G37*
G36*
X28850Y67050D02*
X30150D01*
X30150Y67400D01*
X28850D01*
X28850Y67050D01*
D02*
G37*
G36*
X30150Y68950D02*
X28850D01*
Y68600D01*
X30150D01*
Y68950D01*
D02*
G37*
G36*
X28850Y72550D02*
X30150D01*
X30150Y72900D01*
X28850D01*
X28850Y72550D01*
D02*
G37*
G36*
X30150Y74450D02*
X28850D01*
Y74100D01*
X30150D01*
Y74450D01*
D02*
G37*
G36*
X49459Y95392D02*
X49497Y95389D01*
X49532Y95383D01*
X49561Y95381D01*
X49584Y95375D01*
X49599Y95372D01*
X49605D01*
X49649Y95363D01*
X49692Y95351D01*
X49736Y95340D01*
X49774Y95328D01*
X49806Y95316D01*
X49833Y95307D01*
X49850Y95302D01*
X49853Y95299D01*
X49856D01*
X49780Y95068D01*
X49736Y95080D01*
X49698Y95091D01*
X49663Y95100D01*
X49634Y95106D01*
X49611Y95112D01*
X49590Y95115D01*
X49579Y95118D01*
X49576D01*
X49544Y95123D01*
X49514Y95129D01*
X49488Y95132D01*
X49468D01*
X49450Y95135D01*
X49424D01*
X49377Y95132D01*
X49336Y95126D01*
X49301Y95118D01*
X49275Y95109D01*
X49252Y95100D01*
X49237Y95091D01*
X49228Y95086D01*
X49225Y95083D01*
X49202Y95062D01*
X49187Y95036D01*
X49176Y95010D01*
X49167Y94986D01*
X49161Y94963D01*
X49158Y94942D01*
Y94931D01*
Y94925D01*
Y94864D01*
X49377D01*
X49427Y94858D01*
X49476Y94852D01*
X49523Y94846D01*
X49564Y94837D01*
X49602Y94826D01*
X49637Y94817D01*
X49669Y94805D01*
X49698Y94794D01*
X49722Y94785D01*
X49742Y94773D01*
X49760Y94764D01*
X49774Y94758D01*
X49783Y94753D01*
X49789Y94747D01*
X49792D01*
X49821Y94723D01*
X49847Y94700D01*
X49868Y94674D01*
X49888Y94648D01*
X49903Y94618D01*
X49917Y94592D01*
X49938Y94537D01*
X49949Y94490D01*
X49952Y94469D01*
X49955Y94449D01*
X49958Y94434D01*
Y94423D01*
Y94417D01*
Y94414D01*
X49955Y94367D01*
X49949Y94326D01*
X49941Y94288D01*
X49929Y94256D01*
X49920Y94230D01*
X49911Y94210D01*
X49906Y94198D01*
X49903Y94192D01*
X49879Y94160D01*
X49856Y94131D01*
X49830Y94104D01*
X49804Y94084D01*
X49783Y94067D01*
X49766Y94055D01*
X49751Y94049D01*
X49748Y94046D01*
X49707Y94029D01*
X49666Y94017D01*
X49628Y94005D01*
X49590Y93999D01*
X49558Y93996D01*
X49532Y93994D01*
X49509D01*
X49459Y93996D01*
X49415Y94002D01*
X49374Y94008D01*
X49336Y94017D01*
X49307Y94026D01*
X49284Y94034D01*
X49269Y94037D01*
X49263Y94040D01*
X49222Y94061D01*
X49190Y94081D01*
X49161Y94102D01*
X49141Y94125D01*
X49123Y94142D01*
X49111Y94157D01*
X49106Y94169D01*
X49103Y94172D01*
X49094Y94145D01*
X49079Y94122D01*
X49065Y94102D01*
X49047Y94084D01*
X49033Y94069D01*
X49021Y94061D01*
X49012Y94055D01*
X49009Y94052D01*
X48980Y94037D01*
X48948Y94026D01*
X48913Y94014D01*
X48884Y94008D01*
X48855Y94002D01*
X48831Y93999D01*
X48816Y93996D01*
X48811D01*
X48744Y94215D01*
X48764Y94224D01*
X48781Y94233D01*
X48796Y94239D01*
X48805Y94248D01*
X48819Y94259D01*
X48822Y94265D01*
X48828Y94277D01*
X48831Y94294D01*
X48837Y94326D01*
X48840Y94341D01*
Y94353D01*
Y94361D01*
Y94364D01*
Y94940D01*
X48843Y94980D01*
X48846Y95016D01*
X48860Y95083D01*
X48884Y95141D01*
X48910Y95188D01*
X48936Y95226D01*
X48957Y95252D01*
X48974Y95270D01*
X48977Y95275D01*
X48980D01*
X49006Y95296D01*
X49036Y95316D01*
X49100Y95345D01*
X49167Y95366D01*
X49231Y95381D01*
X49290Y95389D01*
X49316Y95392D01*
X49336D01*
X49354Y95395D01*
X49380D01*
X49459Y95392D01*
D02*
G37*
G36*
X51500Y94026D02*
X51199D01*
X51164Y94867D01*
Y94913D01*
X51161Y94957D01*
Y94998D01*
Y95033D01*
Y95059D01*
Y95083D01*
Y95094D01*
Y95100D01*
Y95176D01*
Y95246D01*
X51164Y95307D01*
Y95360D01*
X51167Y95404D01*
Y95421D01*
Y95436D01*
X51170Y95448D01*
Y95456D01*
Y95459D01*
Y95462D01*
X50951Y94320D01*
X50662D01*
X50460Y95462D01*
X50463Y95421D01*
Y95381D01*
Y95337D01*
X50466Y95296D01*
Y95261D01*
Y95232D01*
Y95220D01*
Y95211D01*
Y95208D01*
Y95205D01*
X50463Y95086D01*
Y95030D01*
X50460Y94977D01*
Y94931D01*
Y94913D01*
X50458Y94899D01*
Y94884D01*
Y94875D01*
Y94870D01*
Y94867D01*
X50417Y94026D01*
X50110D01*
X50206Y95757D01*
X50592D01*
X50799Y94627D01*
X51021Y95757D01*
X51404D01*
X51500Y94026D01*
D02*
G37*
G36*
X42188D02*
X42103D01*
X42130Y93979D01*
X42144Y93958D01*
X42156Y93941D01*
X42168Y93926D01*
X42173Y93915D01*
X42179Y93906D01*
X42182Y93903D01*
X42220Y93862D01*
X42258Y93833D01*
X42273Y93821D01*
X42287Y93812D01*
X42296Y93809D01*
X42299Y93807D01*
X42328Y93792D01*
X42363Y93780D01*
X42398Y93772D01*
X42433Y93763D01*
X42465Y93757D01*
X42492Y93751D01*
X42509Y93748D01*
X42515D01*
X42477Y93500D01*
X42425Y93506D01*
X42375Y93515D01*
X42328Y93523D01*
X42287Y93535D01*
X42246Y93547D01*
X42211Y93561D01*
X42176Y93576D01*
X42147Y93590D01*
X42121Y93602D01*
X42101Y93617D01*
X42080Y93629D01*
X42066Y93640D01*
X42051Y93649D01*
X42042Y93655D01*
X42039Y93661D01*
X42036D01*
X41981Y93716D01*
X41934Y93777D01*
X41893Y93839D01*
X41861Y93900D01*
X41835Y93953D01*
X41823Y93976D01*
X41814Y93996D01*
X41809Y94011D01*
X41803Y94023D01*
X41800Y94031D01*
Y94034D01*
X41353Y95360D01*
X41680D01*
X41990Y94262D01*
X42296Y95360D01*
X42629D01*
X42188Y94026D01*
D02*
G37*
G36*
X46451Y95392D02*
X46513Y95381D01*
X46571Y95366D01*
X46618Y95348D01*
X46656Y95331D01*
X46685Y95316D01*
X46697Y95310D01*
X46705Y95305D01*
X46708Y95302D01*
X46711D01*
X46761Y95264D01*
X46802Y95226D01*
X46837Y95182D01*
X46869Y95141D01*
X46892Y95106D01*
X46907Y95077D01*
X46913Y95065D01*
X46918Y95056D01*
X46921Y95053D01*
Y95051D01*
X46945Y94989D01*
X46962Y94928D01*
X46977Y94867D01*
X46986Y94811D01*
X46992Y94761D01*
Y94741D01*
X46994Y94726D01*
Y94712D01*
Y94700D01*
Y94694D01*
Y94691D01*
X46992Y94615D01*
X46983Y94548D01*
X46971Y94484D01*
X46957Y94432D01*
X46945Y94388D01*
X46939Y94370D01*
X46933Y94356D01*
X46927Y94341D01*
X46924Y94332D01*
X46921Y94329D01*
Y94326D01*
X46889Y94271D01*
X46854Y94221D01*
X46816Y94180D01*
X46781Y94145D01*
X46749Y94116D01*
X46723Y94099D01*
X46705Y94084D01*
X46702Y94081D01*
X46700D01*
X46641Y94052D01*
X46583Y94031D01*
X46524Y94014D01*
X46469Y94005D01*
X46422Y93999D01*
X46402Y93996D01*
X46384D01*
X46370Y93994D01*
X46349D01*
X46297Y93996D01*
X46247Y93999D01*
X46203Y94005D01*
X46162Y94014D01*
X46130Y94023D01*
X46104Y94029D01*
X46089Y94031D01*
X46083Y94034D01*
X46037Y94052D01*
X45993Y94075D01*
X45955Y94096D01*
X45920Y94119D01*
X45894Y94139D01*
X45870Y94157D01*
X45859Y94169D01*
X45853Y94172D01*
X45990Y94364D01*
X46028Y94344D01*
X46063Y94323D01*
X46095Y94309D01*
X46121Y94297D01*
X46145Y94288D01*
X46159Y94283D01*
X46171Y94277D01*
X46174D01*
X46232Y94262D01*
X46259Y94256D01*
X46285Y94253D01*
X46305D01*
X46323Y94250D01*
X46337D01*
X46387Y94253D01*
X46431Y94265D01*
X46469Y94280D01*
X46504Y94294D01*
X46530Y94312D01*
X46548Y94323D01*
X46562Y94335D01*
X46565Y94338D01*
X46594Y94373D01*
X46618Y94414D01*
X46635Y94452D01*
X46647Y94493D01*
X46653Y94528D01*
X46659Y94554D01*
Y94566D01*
X46662Y94575D01*
Y94577D01*
Y94580D01*
X45809D01*
X45803Y94636D01*
Y94662D01*
X45800Y94683D01*
Y94700D01*
Y94715D01*
Y94723D01*
Y94726D01*
X45803Y94799D01*
X45812Y94867D01*
X45823Y94928D01*
X45835Y94980D01*
X45847Y95021D01*
X45853Y95039D01*
X45859Y95053D01*
X45864Y95065D01*
X45867Y95074D01*
X45870Y95077D01*
Y95080D01*
X45899Y95132D01*
X45932Y95179D01*
X45967Y95220D01*
X45999Y95255D01*
X46028Y95278D01*
X46051Y95299D01*
X46069Y95310D01*
X46072Y95313D01*
X46075D01*
X46124Y95340D01*
X46180Y95360D01*
X46229Y95375D01*
X46279Y95386D01*
X46320Y95392D01*
X46355Y95395D01*
X46384D01*
X46451Y95392D01*
D02*
G37*
G36*
X44022Y94026D02*
X43505D01*
X43400Y94031D01*
X43350Y94037D01*
X43304Y94043D01*
X43260Y94052D01*
X43222Y94064D01*
X43184Y94072D01*
X43152Y94084D01*
X43120Y94096D01*
X43093Y94104D01*
X43070Y94116D01*
X43052Y94125D01*
X43038Y94131D01*
X43026Y94137D01*
X43020Y94142D01*
X43017D01*
X42982Y94166D01*
X42953Y94195D01*
X42927Y94224D01*
X42904Y94253D01*
X42886Y94286D01*
X42869Y94318D01*
X42845Y94382D01*
X42833Y94440D01*
X42828Y94467D01*
X42825Y94490D01*
X42822Y94507D01*
Y94522D01*
Y94531D01*
Y94534D01*
X42828Y94604D01*
X42839Y94665D01*
X42860Y94718D01*
X42880Y94758D01*
X42901Y94794D01*
X42921Y94817D01*
X42933Y94829D01*
X42939Y94834D01*
X42982Y94867D01*
X43029Y94893D01*
X43076Y94913D01*
X43117Y94928D01*
X43152Y94937D01*
X43181Y94942D01*
X43193D01*
X43201Y94945D01*
X43207D01*
X43163Y94951D01*
X43123Y94966D01*
X43085Y94980D01*
X43052Y95001D01*
X43026Y95018D01*
X43009Y95036D01*
X42994Y95048D01*
X42991Y95051D01*
X42959Y95091D01*
X42936Y95132D01*
X42918Y95176D01*
X42906Y95217D01*
X42901Y95252D01*
X42895Y95281D01*
Y95293D01*
Y95302D01*
Y95305D01*
Y95307D01*
X42898Y95351D01*
X42904Y95392D01*
X42912Y95427D01*
X42924Y95462D01*
X42939Y95494D01*
X42953Y95521D01*
X42985Y95570D01*
X43020Y95605D01*
X43049Y95632D01*
X43061Y95640D01*
X43070Y95646D01*
X43076Y95652D01*
X43079D01*
X43152Y95687D01*
X43228Y95713D01*
X43304Y95731D01*
X43377Y95745D01*
X43409Y95748D01*
X43441Y95751D01*
X43467Y95754D01*
X43490D01*
X43511Y95757D01*
X44022D01*
Y94026D01*
D02*
G37*
G36*
X47651Y95255D02*
X47669Y95278D01*
X47689Y95302D01*
X47736Y95337D01*
X47786Y95360D01*
X47835Y95378D01*
X47882Y95389D01*
X47900Y95392D01*
X47917D01*
X47932Y95395D01*
X47952D01*
X48011Y95392D01*
X48066Y95381D01*
X48116Y95366D01*
X48157Y95348D01*
X48192Y95331D01*
X48218Y95316D01*
X48232Y95305D01*
X48238Y95302D01*
X48279Y95264D01*
X48317Y95226D01*
X48349Y95182D01*
X48376Y95141D01*
X48396Y95106D01*
X48411Y95077D01*
X48417Y95065D01*
X48419Y95056D01*
X48422Y95053D01*
Y95051D01*
X48443Y94989D01*
X48457Y94928D01*
X48469Y94867D01*
X48475Y94811D01*
X48481Y94764D01*
Y94744D01*
X48484Y94726D01*
Y94712D01*
Y94700D01*
Y94694D01*
Y94691D01*
X48481Y94633D01*
X48478Y94577D01*
X48472Y94525D01*
X48463Y94475D01*
X48454Y94432D01*
X48443Y94388D01*
X48431Y94350D01*
X48419Y94315D01*
X48408Y94286D01*
X48399Y94256D01*
X48387Y94233D01*
X48379Y94215D01*
X48370Y94201D01*
X48364Y94189D01*
X48358Y94183D01*
Y94180D01*
X48332Y94148D01*
X48305Y94119D01*
X48276Y94093D01*
X48244Y94072D01*
X48212Y94055D01*
X48180Y94040D01*
X48119Y94017D01*
X48063Y94002D01*
X48037Y93999D01*
X48016Y93996D01*
X47999Y93994D01*
X47976D01*
X47932Y93996D01*
X47891Y94002D01*
X47856Y94008D01*
X47824Y94020D01*
X47797Y94029D01*
X47777Y94034D01*
X47762Y94040D01*
X47760Y94043D01*
X47724Y94064D01*
X47698Y94087D01*
X47675Y94110D01*
X47657Y94134D01*
X47643Y94154D01*
X47634Y94169D01*
X47631Y94180D01*
X47628Y94183D01*
X47613Y94026D01*
X47327D01*
Y95877D01*
X47651Y95909D01*
Y95255D01*
D02*
G37*
G36*
X37165Y11501D02*
X37267Y11487D01*
X37355Y11467D01*
X37433Y11447D01*
X37497Y11428D01*
X37546Y11408D01*
X37575Y11394D01*
X37580Y11389D01*
X37585D01*
X37668Y11340D01*
X37741Y11287D01*
X37809Y11223D01*
X37873Y11164D01*
X37921Y11111D01*
X37955Y11067D01*
X37980Y11033D01*
X37990Y11028D01*
Y11023D01*
X37643Y10764D01*
X37589Y10823D01*
X37541Y10872D01*
X37497Y10911D01*
X37458Y10940D01*
X37424Y10964D01*
X37399Y10979D01*
X37385Y10989D01*
X37380Y10994D01*
X37331Y11013D01*
X37282Y11033D01*
X37233Y11043D01*
X37189Y11047D01*
X37145Y11052D01*
X37116Y11057D01*
X37087D01*
X37014Y11052D01*
X36955Y11038D01*
X36901Y11023D01*
X36858Y11003D01*
X36823Y10979D01*
X36799Y10964D01*
X36784Y10950D01*
X36779Y10945D01*
X36740Y10901D01*
X36716Y10852D01*
X36696Y10803D01*
X36682Y10755D01*
X36672Y10711D01*
X36667Y10677D01*
Y10652D01*
Y10642D01*
X36672Y10564D01*
X36682Y10496D01*
X36701Y10428D01*
X36716Y10364D01*
X36735Y10315D01*
X36755Y10276D01*
X36765Y10252D01*
X36770Y10242D01*
X36814Y10164D01*
X36872Y10086D01*
X36931Y10003D01*
X36989Y9930D01*
X37048Y9861D01*
X37092Y9808D01*
X37111Y9788D01*
X37126Y9774D01*
X37131Y9764D01*
X37136Y9759D01*
X37189Y9705D01*
X37243Y9642D01*
X37370Y9515D01*
X37502Y9378D01*
X37633Y9251D01*
X37692Y9188D01*
X37751Y9134D01*
X37804Y9086D01*
X37848Y9042D01*
X37882Y9003D01*
X37912Y8978D01*
X37931Y8959D01*
X37936Y8954D01*
Y8554D01*
X36106D01*
X36047Y8998D01*
X37326D01*
X37165Y9129D01*
X37092Y9188D01*
X37023Y9247D01*
X36960Y9305D01*
X36901Y9359D01*
X36848Y9408D01*
X36799Y9452D01*
X36755Y9495D01*
X36721Y9535D01*
X36687Y9564D01*
X36662Y9593D01*
X36638Y9613D01*
X36623Y9627D01*
X36618Y9637D01*
X36614Y9642D01*
X36521Y9749D01*
X36443Y9847D01*
X36379Y9940D01*
X36326Y10018D01*
X36282Y10081D01*
X36257Y10130D01*
X36248Y10149D01*
X36238Y10164D01*
X36233Y10169D01*
Y10174D01*
X36194Y10262D01*
X36165Y10354D01*
X36140Y10437D01*
X36125Y10511D01*
X36116Y10579D01*
X36111Y10628D01*
Y10647D01*
Y10662D01*
Y10667D01*
Y10672D01*
X36116Y10755D01*
X36130Y10833D01*
X36145Y10906D01*
X36165Y10969D01*
X36189Y11018D01*
X36204Y11057D01*
X36218Y11082D01*
X36223Y11091D01*
X36267Y11160D01*
X36321Y11218D01*
X36374Y11272D01*
X36428Y11316D01*
X36477Y11350D01*
X36516Y11374D01*
X36540Y11389D01*
X36545Y11394D01*
X36550D01*
X36633Y11433D01*
X36716Y11457D01*
X36799Y11477D01*
X36882Y11491D01*
X36950Y11501D01*
X37004Y11506D01*
X37053D01*
X37165Y11501D01*
D02*
G37*
G36*
X42782Y10891D02*
X42557Y10515D01*
X41962Y10901D01*
Y8988D01*
X42650D01*
Y8554D01*
X40864D01*
Y8988D01*
X41425D01*
Y11447D01*
X41884D01*
X42782Y10891D01*
D02*
G37*
G36*
X44602Y8554D02*
X43997D01*
X43094Y11447D01*
X43646D01*
X44290Y9081D01*
X44924Y11447D01*
X45505D01*
X44602Y8554D01*
D02*
G37*
G36*
X39483Y9354D02*
X39517Y9344D01*
X39551Y9335D01*
X39576Y9325D01*
X39595Y9315D01*
X39610Y9310D01*
X39615Y9305D01*
X39678Y9256D01*
X39727Y9208D01*
X39746Y9183D01*
X39761Y9164D01*
X39766Y9154D01*
X39771Y9149D01*
X39790Y9110D01*
X39805Y9076D01*
X39820Y9003D01*
X39825Y8973D01*
X39829Y8949D01*
Y8934D01*
Y8929D01*
X39825Y8885D01*
X39820Y8846D01*
X39810Y8807D01*
X39800Y8778D01*
X39790Y8749D01*
X39781Y8729D01*
X39771Y8715D01*
Y8710D01*
X39722Y8646D01*
X39668Y8598D01*
X39649Y8578D01*
X39629Y8563D01*
X39620Y8559D01*
X39615Y8554D01*
X39576Y8534D01*
X39537Y8524D01*
X39468Y8505D01*
X39439D01*
X39415Y8500D01*
X39395D01*
X39351Y8505D01*
X39307Y8510D01*
X39268Y8519D01*
X39234Y8529D01*
X39210Y8539D01*
X39185Y8544D01*
X39176Y8554D01*
X39171D01*
X39107Y8602D01*
X39053Y8656D01*
X39039Y8676D01*
X39024Y8695D01*
X39019Y8705D01*
X39015Y8710D01*
X38995Y8749D01*
X38980Y8788D01*
X38961Y8856D01*
Y8885D01*
X38956Y8910D01*
Y8925D01*
Y8929D01*
Y8973D01*
X38966Y9012D01*
X38975Y9051D01*
X38985Y9081D01*
X38995Y9105D01*
X39005Y9129D01*
X39010Y9139D01*
X39015Y9144D01*
X39063Y9212D01*
X39112Y9261D01*
X39136Y9281D01*
X39156Y9295D01*
X39166Y9300D01*
X39171Y9305D01*
X39210Y9325D01*
X39249Y9339D01*
X39322Y9359D01*
X39351D01*
X39376Y9364D01*
X39439D01*
X39483Y9354D01*
D02*
G37*
G36*
X69176Y95846D02*
X69273Y95825D01*
X69369Y95792D01*
X69445Y95760D01*
X69509Y95717D01*
X69552Y95685D01*
X69584Y95664D01*
X69595Y95653D01*
X69659Y95578D01*
X69713Y95492D01*
X69745Y95395D01*
X69778Y95320D01*
X69788Y95245D01*
X69799Y95191D01*
Y95148D01*
Y95137D01*
X69788Y95030D01*
X69767Y94923D01*
X69735Y94837D01*
X69692Y94761D01*
X69659Y94708D01*
X69627Y94654D01*
X69606Y94633D01*
X69595Y94622D01*
X69509Y94557D01*
X69423Y94504D01*
X69326Y94471D01*
X69240Y94439D01*
X69176Y94428D01*
X69112Y94418D01*
X69058D01*
X68940Y94428D01*
X68832Y94450D01*
X68736Y94482D01*
X68661Y94525D01*
X68596Y94557D01*
X68553Y94590D01*
X68521Y94611D01*
X68510Y94622D01*
X68435Y94708D01*
X68381Y94794D01*
X68349Y94880D01*
X68317Y94965D01*
X68306Y95030D01*
X68295Y95084D01*
Y95127D01*
Y95137D01*
X68306Y95245D01*
X68328Y95341D01*
X68360Y95427D01*
X68403Y95503D01*
X68446Y95567D01*
X68478Y95610D01*
X68499Y95631D01*
X68510Y95642D01*
X68596Y95717D01*
X68682Y95771D01*
X68779Y95803D01*
X68865Y95835D01*
X68940Y95846D01*
X69004Y95857D01*
X69058D01*
X69176Y95846D01*
D02*
G37*
G36*
X76436Y95427D02*
Y88618D01*
X75384D01*
X75341Y89080D01*
X75266Y88983D01*
X75191Y88887D01*
X75105Y88811D01*
X75008Y88747D01*
X74815Y88640D01*
X74621Y88575D01*
X74439Y88532D01*
X74363Y88521D01*
X74299Y88511D01*
X74235Y88500D01*
X74159D01*
X73934Y88511D01*
X73719Y88554D01*
X73536Y88607D01*
X73386Y88672D01*
X73257Y88726D01*
X73161Y88779D01*
X73107Y88822D01*
X73085Y88833D01*
X72924Y88973D01*
X72785Y89112D01*
X72677Y89273D01*
X72581Y89413D01*
X72505Y89542D01*
X72452Y89649D01*
X72430Y89692D01*
X72420Y89724D01*
X72409Y89735D01*
Y89746D01*
X72334Y89971D01*
X72269Y90208D01*
X72226Y90422D01*
X72205Y90637D01*
X72183Y90809D01*
Y90884D01*
X72172Y90949D01*
Y91002D01*
Y91045D01*
Y91067D01*
Y91078D01*
Y91292D01*
X72194Y91507D01*
X72215Y91701D01*
X72248Y91883D01*
X72280Y92044D01*
X72323Y92205D01*
X72355Y92345D01*
X72398Y92474D01*
X72441Y92592D01*
X72484Y92689D01*
X72527Y92774D01*
X72559Y92839D01*
X72591Y92893D01*
X72613Y92936D01*
X72624Y92957D01*
X72634Y92968D01*
X72720Y93086D01*
X72828Y93193D01*
X72935Y93290D01*
X73043Y93365D01*
X73161Y93430D01*
X73279Y93483D01*
X73504Y93569D01*
X73719Y93623D01*
X73805Y93634D01*
X73880Y93644D01*
X73945Y93655D01*
X74041D01*
X74192Y93644D01*
X74331Y93623D01*
X74460Y93591D01*
X74578Y93559D01*
X74675Y93526D01*
X74739Y93494D01*
X74782Y93473D01*
X74804Y93462D01*
X74922Y93387D01*
X75019Y93312D01*
X75094Y93226D01*
X75147Y93150D01*
X75191Y93075D01*
X75223Y93022D01*
X75244Y92979D01*
Y95545D01*
X76436Y95427D01*
D02*
G37*
G36*
X109011Y88618D02*
X107786D01*
Y91432D01*
X105939D01*
Y88618D01*
X104715D01*
Y94987D01*
X105939D01*
Y92463D01*
X107786D01*
Y94987D01*
X109011D01*
Y88618D01*
D02*
G37*
G36*
X85028Y95094D02*
X85297Y95051D01*
X85533Y94987D01*
X85748Y94923D01*
X85931Y94847D01*
X86006Y94815D01*
X86059Y94783D01*
X86113Y94751D01*
X86145Y94740D01*
X86167Y94718D01*
X86177D01*
X86403Y94557D01*
X86607Y94375D01*
X86779Y94192D01*
X86929Y94010D01*
X87047Y93838D01*
X87090Y93763D01*
X87133Y93709D01*
X87155Y93655D01*
X87176Y93612D01*
X87198Y93591D01*
Y93580D01*
X87327Y93290D01*
X87413Y92989D01*
X87477Y92699D01*
X87531Y92420D01*
X87542Y92291D01*
X87552Y92173D01*
X87563Y92066D01*
Y91980D01*
X87574Y91905D01*
Y91851D01*
Y91819D01*
Y91808D01*
X87563Y91432D01*
X87520Y91088D01*
X87488Y90927D01*
X87456Y90788D01*
X87423Y90648D01*
X87391Y90519D01*
X87359Y90412D01*
X87327Y90304D01*
X87295Y90218D01*
X87262Y90143D01*
X87241Y90089D01*
X87219Y90047D01*
X87208Y90025D01*
Y90014D01*
X87058Y89757D01*
X86897Y89531D01*
X86725Y89327D01*
X86564Y89177D01*
X86424Y89048D01*
X86306Y88962D01*
X86263Y88930D01*
X86231Y88908D01*
X86210Y88887D01*
X86199D01*
X85952Y88758D01*
X85694Y88661D01*
X85447Y88597D01*
X85222Y88554D01*
X85018Y88521D01*
X84932Y88511D01*
X84867D01*
X84803Y88500D01*
X84728D01*
X84491Y88511D01*
X84266Y88532D01*
X84073Y88564D01*
X83901Y88607D01*
X83761Y88640D01*
X83654Y88672D01*
X83589Y88693D01*
X83578Y88704D01*
X83568D01*
X83385Y88790D01*
X83213Y88887D01*
X83063Y88983D01*
X82934Y89080D01*
X82827Y89166D01*
X82741Y89241D01*
X82698Y89284D01*
X82676Y89306D01*
X83267Y90047D01*
X83396Y89950D01*
X83525Y89875D01*
X83643Y89799D01*
X83740Y89746D01*
X83825Y89692D01*
X83890Y89660D01*
X83933Y89649D01*
X83944Y89638D01*
X84062Y89596D01*
X84191Y89563D01*
X84320Y89542D01*
X84427Y89531D01*
X84534Y89520D01*
X84610Y89510D01*
X84685D01*
X84824Y89520D01*
X84953Y89531D01*
X85179Y89596D01*
X85383Y89681D01*
X85555Y89789D01*
X85684Y89885D01*
X85780Y89971D01*
X85845Y90036D01*
X85855Y90047D01*
X85866Y90057D01*
X85941Y90165D01*
X86016Y90294D01*
X86124Y90562D01*
X86199Y90852D01*
X86253Y91142D01*
X86274Y91282D01*
X86285Y91400D01*
X86296Y91518D01*
Y91615D01*
X86306Y91690D01*
Y91754D01*
Y91797D01*
Y91808D01*
X86296Y92109D01*
X86274Y92366D01*
X86242Y92592D01*
X86199Y92785D01*
X86156Y92946D01*
X86145Y93011D01*
X86124Y93054D01*
X86113Y93097D01*
X86102Y93129D01*
X86092Y93140D01*
Y93150D01*
X86006Y93333D01*
X85909Y93483D01*
X85812Y93612D01*
X85716Y93720D01*
X85641Y93795D01*
X85576Y93849D01*
X85522Y93881D01*
X85512Y93892D01*
X85372Y93967D01*
X85232Y94020D01*
X85093Y94063D01*
X84964Y94085D01*
X84846Y94106D01*
X84760Y94117D01*
X84556D01*
X84427Y94095D01*
X84191Y94042D01*
X83976Y93967D01*
X83783Y93892D01*
X83621Y93806D01*
X83557Y93763D01*
X83503Y93730D01*
X83460Y93698D01*
X83417Y93677D01*
X83407Y93666D01*
X83396Y93655D01*
X82773Y94407D01*
X82934Y94547D01*
X83095Y94654D01*
X83245Y94751D01*
X83374Y94826D01*
X83492Y94880D01*
X83589Y94923D01*
X83643Y94944D01*
X83654Y94955D01*
X83664D01*
X83836Y95008D01*
X84019Y95051D01*
X84201Y95073D01*
X84373Y95094D01*
X84513Y95105D01*
X84631Y95116D01*
X84738D01*
X85028Y95094D01*
D02*
G37*
G36*
X63538Y93644D02*
X63785Y93602D01*
X63999Y93548D01*
X64193Y93483D01*
X64343Y93419D01*
X64407Y93387D01*
X64461Y93365D01*
X64504Y93344D01*
X64536Y93322D01*
X64547Y93312D01*
X64558D01*
X64751Y93172D01*
X64923Y93032D01*
X65063Y92871D01*
X65181Y92721D01*
X65277Y92592D01*
X65342Y92484D01*
X65363Y92442D01*
X65385Y92409D01*
X65396Y92399D01*
Y92388D01*
X65492Y92162D01*
X65567Y91926D01*
X65610Y91701D01*
X65653Y91496D01*
X65675Y91314D01*
Y91239D01*
X65686Y91174D01*
Y91121D01*
Y91078D01*
Y91056D01*
Y91045D01*
X65675Y90766D01*
X65643Y90519D01*
X65600Y90283D01*
X65546Y90089D01*
X65492Y89928D01*
X65471Y89864D01*
X65449Y89810D01*
X65428Y89757D01*
X65417Y89724D01*
X65406Y89714D01*
Y89703D01*
X65288Y89499D01*
X65159Y89316D01*
X65020Y89166D01*
X64880Y89037D01*
X64762Y88940D01*
X64665Y88865D01*
X64601Y88822D01*
X64590Y88811D01*
X64579D01*
X64365Y88704D01*
X64150Y88629D01*
X63935Y88575D01*
X63731Y88543D01*
X63548Y88521D01*
X63484Y88511D01*
X63419Y88500D01*
X63291D01*
X63108Y88511D01*
X62936Y88521D01*
X62786Y88554D01*
X62646Y88586D01*
X62528Y88607D01*
X62431Y88640D01*
X62378Y88650D01*
X62356Y88661D01*
X62184Y88726D01*
X62034Y88811D01*
X61894Y88887D01*
X61765Y88973D01*
X61669Y89037D01*
X61594Y89101D01*
X61551Y89144D01*
X61529Y89155D01*
X62066Y89907D01*
X62195Y89832D01*
X62313Y89767D01*
X62421Y89714D01*
X62507Y89671D01*
X62582Y89628D01*
X62646Y89606D01*
X62678Y89596D01*
X62689Y89585D01*
X62893Y89531D01*
X62990Y89510D01*
X63076Y89499D01*
X63151D01*
X63205Y89488D01*
X63258D01*
X63452Y89499D01*
X63623Y89542D01*
X63774Y89606D01*
X63892Y89671D01*
X63989Y89735D01*
X64064Y89799D01*
X64107Y89842D01*
X64117Y89853D01*
X64225Y90014D01*
X64300Y90197D01*
X64354Y90401D01*
X64386Y90594D01*
X64407Y90766D01*
X64418Y90841D01*
X64429Y90917D01*
Y90970D01*
Y91013D01*
Y91035D01*
Y91045D01*
X64418Y91335D01*
X64375Y91593D01*
X64332Y91808D01*
X64268Y91980D01*
X64214Y92109D01*
X64161Y92205D01*
X64128Y92259D01*
X64117Y92281D01*
X63989Y92409D01*
X63849Y92506D01*
X63699Y92581D01*
X63570Y92624D01*
X63441Y92656D01*
X63344Y92667D01*
X63280Y92678D01*
X63258D01*
X63043Y92656D01*
X62829Y92613D01*
X62635Y92549D01*
X62453Y92484D01*
X62292Y92409D01*
X62174Y92345D01*
X62131Y92313D01*
X62098Y92302D01*
X62077Y92281D01*
X62066D01*
X61529Y93011D01*
X61669Y93129D01*
X61819Y93226D01*
X61970Y93312D01*
X62120Y93387D01*
X62270Y93451D01*
X62410Y93494D01*
X62678Y93580D01*
X62807Y93602D01*
X62915Y93623D01*
X63011Y93634D01*
X63097Y93644D01*
X63172Y93655D01*
X63269D01*
X63538Y93644D01*
D02*
G37*
G36*
X98400Y94525D02*
X96971D01*
Y90079D01*
X96961Y89907D01*
X96939Y89746D01*
X96907Y89596D01*
X96874Y89477D01*
X96842Y89370D01*
X96810Y89295D01*
X96789Y89252D01*
X96778Y89230D01*
X96703Y89101D01*
X96606Y88994D01*
X96520Y88897D01*
X96434Y88822D01*
X96348Y88758D01*
X96284Y88715D01*
X96241Y88693D01*
X96230Y88683D01*
X96091Y88618D01*
X95940Y88575D01*
X95801Y88543D01*
X95661Y88521D01*
X95543Y88511D01*
X95457Y88500D01*
X95371D01*
X95102Y88511D01*
X94855Y88543D01*
X94641Y88597D01*
X94437Y88650D01*
X94275Y88704D01*
X94211Y88736D01*
X94157Y88758D01*
X94114Y88769D01*
X94082Y88790D01*
X94061Y88801D01*
X94050D01*
X94351Y89638D01*
X94523Y89585D01*
X94673Y89542D01*
X94813Y89520D01*
X94931Y89499D01*
X95027Y89488D01*
X95092Y89477D01*
X95156D01*
X95263Y89488D01*
X95350Y89499D01*
X95435Y89520D01*
X95500Y89542D01*
X95553Y89563D01*
X95586Y89574D01*
X95607Y89596D01*
X95618D01*
X95672Y89649D01*
X95715Y89703D01*
X95736Y89778D01*
X95758Y89842D01*
X95768Y89896D01*
X95779Y89950D01*
Y89982D01*
Y89993D01*
Y95438D01*
X98400D01*
Y94525D01*
D02*
G37*
G36*
X81839Y90004D02*
X81828Y89746D01*
X81785Y89531D01*
X81720Y89338D01*
X81656Y89177D01*
X81591Y89048D01*
X81527Y88962D01*
X81484Y88908D01*
X81473Y88887D01*
X81323Y88758D01*
X81151Y88661D01*
X80969Y88597D01*
X80797Y88554D01*
X80636Y88521D01*
X80507Y88511D01*
X80453Y88500D01*
X80389D01*
X80217Y88511D01*
X80056Y88532D01*
X79905Y88564D01*
X79777Y88597D01*
X79669Y88629D01*
X79583Y88661D01*
X79529Y88683D01*
X79508Y88693D01*
X79358Y88779D01*
X79239Y88865D01*
X79143Y88951D01*
X79068Y89037D01*
X79014Y89112D01*
X78971Y89166D01*
X78960Y89209D01*
X78949Y89220D01*
X78907Y88618D01*
X77865D01*
Y93526D01*
X79057D01*
Y90036D01*
X79121Y89950D01*
X79186Y89864D01*
X79261Y89789D01*
X79336Y89724D01*
X79401Y89681D01*
X79454Y89638D01*
X79487Y89617D01*
X79497Y89606D01*
X79605Y89552D01*
X79701Y89510D01*
X79798Y89477D01*
X79884Y89456D01*
X79959Y89445D01*
X80013Y89434D01*
X80066D01*
X80174Y89445D01*
X80270Y89456D01*
X80346Y89477D01*
X80410Y89510D01*
X80453Y89542D01*
X80485Y89563D01*
X80507Y89574D01*
X80518Y89585D01*
X80560Y89660D01*
X80593Y89735D01*
X80625Y89918D01*
X80636Y90004D01*
X80646Y90068D01*
Y90111D01*
Y90132D01*
Y93526D01*
X81839D01*
Y90004D01*
D02*
G37*
G36*
X70819Y92624D02*
X69445D01*
Y89520D01*
X70873D01*
Y88618D01*
X66964D01*
Y89520D01*
X68263D01*
Y93526D01*
X70819D01*
Y92624D01*
D02*
G37*
G36*
X101707Y93644D02*
X101944Y93602D01*
X102148Y93548D01*
X102331Y93494D01*
X102470Y93430D01*
X102577Y93376D01*
X102620Y93354D01*
X102653Y93333D01*
X102663Y93322D01*
X102674D01*
X102857Y93193D01*
X103007Y93043D01*
X103136Y92893D01*
X103243Y92742D01*
X103329Y92613D01*
X103383Y92506D01*
X103404Y92463D01*
X103426Y92431D01*
X103437Y92420D01*
Y92409D01*
X103523Y92184D01*
X103587Y91958D01*
X103630Y91733D01*
X103662Y91518D01*
X103684Y91335D01*
Y91260D01*
X103694Y91196D01*
Y91142D01*
Y91099D01*
Y91078D01*
Y91067D01*
X103684Y90788D01*
X103651Y90519D01*
X103609Y90294D01*
X103566Y90089D01*
X103523Y89928D01*
X103501Y89864D01*
X103480Y89810D01*
X103458Y89757D01*
X103447Y89724D01*
X103437Y89714D01*
Y89703D01*
X103329Y89499D01*
X103211Y89316D01*
X103082Y89166D01*
X102953Y89037D01*
X102846Y88940D01*
X102760Y88865D01*
X102696Y88822D01*
X102685Y88811D01*
X102674D01*
X102481Y88704D01*
X102266Y88629D01*
X102073Y88575D01*
X101879Y88543D01*
X101707Y88521D01*
X101643Y88511D01*
X101579Y88500D01*
X101461D01*
X101203Y88511D01*
X100967Y88554D01*
X100762Y88607D01*
X100591Y88661D01*
X100440Y88726D01*
X100333Y88769D01*
X100301Y88790D01*
X100268Y88811D01*
X100258Y88822D01*
X100247D01*
X100064Y88951D01*
X99914Y89101D01*
X99785Y89252D01*
X99678Y89391D01*
X99592Y89520D01*
X99527Y89628D01*
X99506Y89671D01*
X99495Y89703D01*
X99484Y89714D01*
Y89724D01*
X99398Y89950D01*
X99334Y90186D01*
X99291Y90412D01*
X99259Y90627D01*
X99237Y90809D01*
Y90884D01*
X99227Y90949D01*
Y91002D01*
Y91045D01*
Y91067D01*
Y91078D01*
X99237Y91357D01*
X99270Y91615D01*
X99313Y91851D01*
X99356Y92044D01*
X99398Y92205D01*
X99420Y92270D01*
X99441Y92323D01*
X99463Y92377D01*
X99474Y92409D01*
X99484Y92420D01*
Y92431D01*
X99592Y92635D01*
X99710Y92817D01*
X99839Y92968D01*
X99957Y93097D01*
X100075Y93204D01*
X100161Y93279D01*
X100225Y93322D01*
X100236Y93333D01*
X100247D01*
X100440Y93440D01*
X100644Y93516D01*
X100848Y93580D01*
X101042Y93612D01*
X101214Y93634D01*
X101278Y93644D01*
X101342Y93655D01*
X101461D01*
X101707Y93644D01*
D02*
G37*
G36*
X90903D02*
X91139Y93602D01*
X91343Y93548D01*
X91526Y93494D01*
X91666Y93430D01*
X91773Y93376D01*
X91816Y93354D01*
X91848Y93333D01*
X91859Y93322D01*
X91870D01*
X92052Y93193D01*
X92203Y93043D01*
X92331Y92893D01*
X92439Y92742D01*
X92525Y92613D01*
X92579Y92506D01*
X92600Y92463D01*
X92621Y92431D01*
X92632Y92420D01*
Y92409D01*
X92718Y92184D01*
X92783Y91958D01*
X92826Y91733D01*
X92858Y91518D01*
X92879Y91335D01*
Y91260D01*
X92890Y91196D01*
Y91142D01*
Y91099D01*
Y91078D01*
Y91067D01*
X92879Y90788D01*
X92847Y90519D01*
X92804Y90294D01*
X92761Y90089D01*
X92718Y89928D01*
X92697Y89864D01*
X92675Y89810D01*
X92654Y89757D01*
X92643Y89724D01*
X92632Y89714D01*
Y89703D01*
X92525Y89499D01*
X92407Y89316D01*
X92278Y89166D01*
X92149Y89037D01*
X92041Y88940D01*
X91956Y88865D01*
X91891Y88822D01*
X91880Y88811D01*
X91870D01*
X91676Y88704D01*
X91462Y88629D01*
X91268Y88575D01*
X91075Y88543D01*
X90903Y88521D01*
X90839Y88511D01*
X90774Y88500D01*
X90656D01*
X90398Y88511D01*
X90162Y88554D01*
X89958Y88607D01*
X89786Y88661D01*
X89636Y88726D01*
X89528Y88769D01*
X89496Y88790D01*
X89464Y88811D01*
X89453Y88822D01*
X89442D01*
X89260Y88951D01*
X89109Y89101D01*
X88981Y89252D01*
X88873Y89391D01*
X88787Y89520D01*
X88723Y89628D01*
X88701Y89671D01*
X88691Y89703D01*
X88680Y89714D01*
Y89724D01*
X88594Y89950D01*
X88530Y90186D01*
X88487Y90412D01*
X88454Y90627D01*
X88433Y90809D01*
Y90884D01*
X88422Y90949D01*
Y91002D01*
Y91045D01*
Y91067D01*
Y91078D01*
X88433Y91357D01*
X88465Y91615D01*
X88508Y91851D01*
X88551Y92044D01*
X88594Y92205D01*
X88616Y92270D01*
X88637Y92323D01*
X88658Y92377D01*
X88669Y92409D01*
X88680Y92420D01*
Y92431D01*
X88787Y92635D01*
X88906Y92817D01*
X89034Y92968D01*
X89152Y93097D01*
X89271Y93204D01*
X89356Y93279D01*
X89421Y93322D01*
X89432Y93333D01*
X89442D01*
X89636Y93440D01*
X89840Y93516D01*
X90044Y93580D01*
X90237Y93612D01*
X90409Y93634D01*
X90474Y93644D01*
X90538Y93655D01*
X90656D01*
X90903Y93644D01*
D02*
G37*
G36*
X40993Y92163D02*
X41037Y92153D01*
X41081Y92138D01*
X41115Y92124D01*
X41145Y92104D01*
X41164Y92089D01*
X41179Y92080D01*
X41184Y92075D01*
X41213Y92041D01*
X41237Y92002D01*
X41252Y91958D01*
X41267Y91923D01*
X41271Y91889D01*
X41276Y91865D01*
Y91845D01*
Y91841D01*
X41271Y91792D01*
X41262Y91743D01*
X41247Y91704D01*
X41228Y91670D01*
X41213Y91645D01*
X41198Y91621D01*
X41189Y91611D01*
X41184Y91606D01*
X41145Y91577D01*
X41106Y91553D01*
X41062Y91538D01*
X41023Y91523D01*
X40993Y91518D01*
X40964Y91514D01*
X40940D01*
X40886Y91518D01*
X40837Y91528D01*
X40793Y91543D01*
X40759Y91562D01*
X40730Y91577D01*
X40710Y91592D01*
X40696Y91601D01*
X40691Y91606D01*
X40657Y91645D01*
X40632Y91684D01*
X40618Y91723D01*
X40603Y91763D01*
X40598Y91792D01*
X40593Y91816D01*
Y91836D01*
Y91841D01*
X40598Y91889D01*
X40608Y91933D01*
X40622Y91972D01*
X40642Y92006D01*
X40661Y92036D01*
X40676Y92055D01*
X40686Y92065D01*
X40691Y92070D01*
X40730Y92104D01*
X40769Y92128D01*
X40813Y92143D01*
X40852Y92158D01*
X40886Y92163D01*
X40915Y92168D01*
X40940D01*
X40993Y92163D01*
D02*
G37*
G36*
X36084D02*
X36128Y92153D01*
X36172Y92138D01*
X36206Y92124D01*
X36235Y92104D01*
X36255Y92089D01*
X36270Y92080D01*
X36274Y92075D01*
X36304Y92041D01*
X36328Y92002D01*
X36343Y91958D01*
X36357Y91923D01*
X36362Y91889D01*
X36367Y91865D01*
Y91845D01*
Y91841D01*
X36362Y91792D01*
X36353Y91743D01*
X36338Y91704D01*
X36318Y91670D01*
X36304Y91645D01*
X36289Y91621D01*
X36279Y91611D01*
X36274Y91606D01*
X36235Y91577D01*
X36196Y91553D01*
X36152Y91538D01*
X36113Y91523D01*
X36084Y91518D01*
X36055Y91514D01*
X36030D01*
X35977Y91518D01*
X35928Y91528D01*
X35884Y91543D01*
X35850Y91562D01*
X35821Y91577D01*
X35801Y91592D01*
X35786Y91601D01*
X35781Y91606D01*
X35747Y91645D01*
X35723Y91684D01*
X35708Y91723D01*
X35694Y91763D01*
X35689Y91792D01*
X35684Y91816D01*
Y91836D01*
Y91841D01*
X35689Y91889D01*
X35699Y91933D01*
X35713Y91972D01*
X35733Y92006D01*
X35752Y92036D01*
X35767Y92055D01*
X35777Y92065D01*
X35781Y92070D01*
X35821Y92104D01*
X35860Y92128D01*
X35903Y92143D01*
X35943Y92158D01*
X35977Y92163D01*
X36006Y92168D01*
X36030D01*
X36084Y92163D01*
D02*
G37*
G36*
X38719Y91162D02*
X38807Y91143D01*
X38890Y91118D01*
X38958Y91094D01*
X39017Y91065D01*
X39061Y91040D01*
X39085Y91021D01*
X39095Y91016D01*
X39163Y90952D01*
X39227Y90889D01*
X39281Y90816D01*
X39320Y90747D01*
X39354Y90689D01*
X39378Y90640D01*
X39388Y90621D01*
X39393Y90606D01*
X39398Y90601D01*
Y90596D01*
X39432Y90494D01*
X39456Y90391D01*
X39471Y90289D01*
X39481Y90196D01*
X39490Y90113D01*
Y90079D01*
X39495Y90050D01*
Y90025D01*
Y90006D01*
Y89996D01*
Y89991D01*
Y89893D01*
X39485Y89796D01*
X39476Y89708D01*
X39466Y89625D01*
X39446Y89552D01*
X39432Y89479D01*
X39412Y89415D01*
X39393Y89357D01*
X39378Y89303D01*
X39359Y89259D01*
X39339Y89220D01*
X39324Y89191D01*
X39315Y89166D01*
X39305Y89147D01*
X39295Y89137D01*
Y89132D01*
X39256Y89078D01*
X39212Y89030D01*
X39163Y88991D01*
X39115Y88956D01*
X39061Y88927D01*
X39007Y88898D01*
X38905Y88864D01*
X38812Y88839D01*
X38773Y88835D01*
X38734Y88830D01*
X38705Y88825D01*
X38666D01*
X38597Y88830D01*
X38529Y88839D01*
X38470Y88849D01*
X38417Y88869D01*
X38368Y88893D01*
X38319Y88917D01*
X38246Y88971D01*
X38187Y89020D01*
X38148Y89069D01*
X38134Y89088D01*
X38124Y89098D01*
X38119Y89108D01*
Y88054D01*
X37577Y88000D01*
Y91109D01*
X38051D01*
X38070Y90899D01*
X38104Y90948D01*
X38143Y90987D01*
X38183Y91026D01*
X38226Y91055D01*
X38314Y91104D01*
X38407Y91133D01*
X38485Y91153D01*
X38524Y91157D01*
X38553Y91162D01*
X38583Y91167D01*
X38617D01*
X38719Y91162D01*
D02*
G37*
G36*
X48504D02*
X48567Y91157D01*
X48626Y91148D01*
X48674Y91143D01*
X48713Y91133D01*
X48738Y91128D01*
X48748D01*
X48821Y91113D01*
X48894Y91094D01*
X48967Y91074D01*
X49031Y91055D01*
X49084Y91035D01*
X49128Y91021D01*
X49158Y91011D01*
X49163Y91006D01*
X49167D01*
X49040Y90621D01*
X48967Y90640D01*
X48904Y90660D01*
X48845Y90674D01*
X48796Y90684D01*
X48757Y90694D01*
X48723Y90699D01*
X48704Y90703D01*
X48699D01*
X48645Y90713D01*
X48596Y90723D01*
X48553Y90728D01*
X48518D01*
X48489Y90733D01*
X48445D01*
X48367Y90728D01*
X48299Y90718D01*
X48240Y90703D01*
X48196Y90689D01*
X48157Y90674D01*
X48133Y90660D01*
X48118Y90650D01*
X48113Y90645D01*
X48074Y90611D01*
X48050Y90567D01*
X48030Y90523D01*
X48016Y90484D01*
X48006Y90445D01*
X48001Y90411D01*
Y90391D01*
Y90381D01*
Y90279D01*
X48367D01*
X48450Y90269D01*
X48533Y90259D01*
X48611Y90250D01*
X48679Y90235D01*
X48743Y90215D01*
X48801Y90201D01*
X48855Y90181D01*
X48904Y90162D01*
X48943Y90147D01*
X48977Y90128D01*
X49006Y90113D01*
X49031Y90103D01*
X49045Y90093D01*
X49055Y90084D01*
X49060D01*
X49109Y90045D01*
X49153Y90006D01*
X49187Y89962D01*
X49221Y89918D01*
X49245Y89869D01*
X49270Y89825D01*
X49304Y89732D01*
X49323Y89654D01*
X49328Y89620D01*
X49333Y89586D01*
X49338Y89562D01*
Y89542D01*
Y89532D01*
Y89527D01*
X49333Y89449D01*
X49323Y89381D01*
X49309Y89318D01*
X49289Y89264D01*
X49275Y89220D01*
X49260Y89186D01*
X49250Y89166D01*
X49245Y89157D01*
X49206Y89103D01*
X49167Y89054D01*
X49123Y89010D01*
X49079Y88976D01*
X49045Y88947D01*
X49016Y88927D01*
X48992Y88917D01*
X48987Y88913D01*
X48919Y88883D01*
X48850Y88864D01*
X48787Y88844D01*
X48723Y88835D01*
X48670Y88830D01*
X48626Y88825D01*
X48587D01*
X48504Y88830D01*
X48430Y88839D01*
X48362Y88849D01*
X48299Y88864D01*
X48250Y88878D01*
X48211Y88893D01*
X48186Y88898D01*
X48177Y88903D01*
X48108Y88937D01*
X48055Y88971D01*
X48006Y89005D01*
X47972Y89044D01*
X47943Y89074D01*
X47923Y89098D01*
X47913Y89117D01*
X47908Y89122D01*
X47894Y89078D01*
X47869Y89039D01*
X47845Y89005D01*
X47816Y88976D01*
X47791Y88952D01*
X47772Y88937D01*
X47757Y88927D01*
X47752Y88922D01*
X47703Y88898D01*
X47650Y88878D01*
X47591Y88859D01*
X47542Y88849D01*
X47493Y88839D01*
X47455Y88835D01*
X47430Y88830D01*
X47420D01*
X47308Y89196D01*
X47342Y89210D01*
X47372Y89225D01*
X47396Y89235D01*
X47411Y89249D01*
X47435Y89269D01*
X47440Y89279D01*
X47450Y89298D01*
X47455Y89327D01*
X47464Y89381D01*
X47469Y89405D01*
Y89425D01*
Y89440D01*
Y89445D01*
Y90406D01*
X47474Y90474D01*
X47479Y90533D01*
X47503Y90645D01*
X47542Y90743D01*
X47586Y90821D01*
X47630Y90884D01*
X47664Y90928D01*
X47694Y90957D01*
X47699Y90967D01*
X47703D01*
X47747Y91001D01*
X47796Y91035D01*
X47903Y91084D01*
X48016Y91118D01*
X48123Y91143D01*
X48221Y91157D01*
X48265Y91162D01*
X48299D01*
X48328Y91167D01*
X48372D01*
X48504Y91162D01*
D02*
G37*
G36*
X51500Y88878D02*
X50944D01*
Y90079D01*
X49885D01*
Y90518D01*
X50944D01*
Y91333D01*
X49743D01*
X49685Y91772D01*
X51500D01*
Y88878D01*
D02*
G37*
G36*
X45659Y91162D02*
X45727Y91153D01*
X45795Y91138D01*
X45859Y91123D01*
X45908Y91104D01*
X45947Y91089D01*
X45971Y91079D01*
X45981Y91074D01*
X46049Y91035D01*
X46103Y90996D01*
X46152Y90957D01*
X46186Y90918D01*
X46215Y90884D01*
X46235Y90855D01*
X46244Y90835D01*
X46249Y90830D01*
X46273Y91109D01*
X46747D01*
Y88878D01*
X46205D01*
Y90450D01*
X46137Y90533D01*
X46103Y90567D01*
X46069Y90596D01*
X46044Y90621D01*
X46020Y90640D01*
X46005Y90650D01*
X46000Y90655D01*
X45956Y90684D01*
X45908Y90703D01*
X45869Y90723D01*
X45829Y90733D01*
X45795Y90738D01*
X45771Y90743D01*
X45707D01*
X45668Y90738D01*
X45639Y90728D01*
X45615Y90723D01*
X45600Y90713D01*
X45585Y90703D01*
X45576Y90699D01*
X45556Y90679D01*
X45542Y90660D01*
X45517Y90611D01*
X45512Y90586D01*
X45507Y90567D01*
X45502Y90557D01*
Y90552D01*
X45493Y90513D01*
X45488Y90464D01*
X45483Y90372D01*
X45478Y90328D01*
Y90294D01*
Y90269D01*
Y90259D01*
Y88878D01*
X44936D01*
Y90489D01*
X44941Y90601D01*
X44961Y90703D01*
X44990Y90786D01*
X45019Y90860D01*
X45049Y90913D01*
X45078Y90952D01*
X45097Y90977D01*
X45102Y90987D01*
X45171Y91045D01*
X45244Y91089D01*
X45322Y91123D01*
X45400Y91143D01*
X45473Y91157D01*
X45527Y91162D01*
X45551Y91167D01*
X45581D01*
X45659Y91162D01*
D02*
G37*
G36*
X44268Y91309D02*
X42979D01*
X44414Y89293D01*
Y88878D01*
X42423D01*
X42365Y89347D01*
X43790D01*
X42374Y91353D01*
Y91772D01*
X44268D01*
Y91309D01*
D02*
G37*
G36*
X41740Y90699D02*
X41115D01*
Y89288D01*
X41764D01*
Y88878D01*
X39988D01*
Y89288D01*
X40579D01*
Y91109D01*
X41740D01*
Y90699D01*
D02*
G37*
G36*
X36831D02*
X36206D01*
Y89288D01*
X36855D01*
Y88878D01*
X35079D01*
Y89288D01*
X35669D01*
Y91109D01*
X36831D01*
Y90699D01*
D02*
G37*
%LPC*%
G36*
X49316Y94645D02*
X49158D01*
Y94391D01*
X49196Y94344D01*
X49214Y94326D01*
X49234Y94309D01*
X49249Y94297D01*
X49263Y94288D01*
X49272Y94283D01*
X49275Y94280D01*
X49301Y94265D01*
X49330Y94256D01*
X49354Y94248D01*
X49377Y94245D01*
X49398Y94242D01*
X49412Y94239D01*
X49427D01*
X49462Y94242D01*
X49491Y94248D01*
X49514Y94253D01*
X49535Y94262D01*
X49552Y94271D01*
X49564Y94280D01*
X49570Y94283D01*
X49573Y94286D01*
X49587Y94306D01*
X49599Y94326D01*
X49608Y94353D01*
X49614Y94376D01*
X49617Y94396D01*
X49619Y94414D01*
Y94426D01*
Y94429D01*
X49617Y94467D01*
X49608Y94499D01*
X49596Y94525D01*
X49582Y94548D01*
X49567Y94566D01*
X49555Y94580D01*
X49547Y94586D01*
X49544Y94589D01*
X49509Y94607D01*
X49471Y94621D01*
X49427Y94630D01*
X49386Y94639D01*
X49348Y94642D01*
X49316Y94645D01*
D02*
G37*
G36*
X46402Y95147D02*
X46381D01*
X46337Y95144D01*
X46299Y95132D01*
X46264Y95118D01*
X46238Y95103D01*
X46218Y95086D01*
X46200Y95071D01*
X46191Y95059D01*
X46189Y95056D01*
X46165Y95021D01*
X46148Y94980D01*
X46136Y94940D01*
X46124Y94902D01*
X46121Y94867D01*
X46115Y94840D01*
Y94829D01*
Y94820D01*
Y94817D01*
Y94814D01*
X46665D01*
X46659Y94870D01*
X46647Y94919D01*
X46632Y94960D01*
X46615Y94995D01*
X46600Y95024D01*
X46589Y95045D01*
X46580Y95056D01*
X46577Y95059D01*
X46548Y95088D01*
X46516Y95109D01*
X46481Y95126D01*
X46451Y95135D01*
X46422Y95141D01*
X46402Y95147D01*
D02*
G37*
G36*
X43689Y95497D02*
X43511D01*
X43461Y95494D01*
X43417Y95489D01*
X43382Y95480D01*
X43353Y95471D01*
X43330Y95462D01*
X43312Y95454D01*
X43304Y95448D01*
X43301Y95445D01*
X43277Y95424D01*
X43260Y95398D01*
X43248Y95372D01*
X43239Y95345D01*
X43233Y95322D01*
X43231Y95302D01*
Y95290D01*
Y95284D01*
X43233Y95243D01*
X43239Y95205D01*
X43251Y95176D01*
X43263Y95153D01*
X43274Y95132D01*
X43286Y95121D01*
X43292Y95112D01*
X43295Y95109D01*
X43321Y95091D01*
X43353Y95080D01*
X43385Y95068D01*
X43417Y95062D01*
X43447Y95059D01*
X43470Y95056D01*
X43689D01*
Y95497D01*
D02*
G37*
G36*
Y94799D02*
X43473D01*
X43420Y94797D01*
X43377Y94791D01*
X43339Y94782D01*
X43306Y94770D01*
X43280Y94758D01*
X43263Y94750D01*
X43251Y94744D01*
X43248Y94741D01*
X43222Y94715D01*
X43201Y94686D01*
X43187Y94651D01*
X43175Y94615D01*
X43169Y94583D01*
X43166Y94557D01*
Y94539D01*
Y94537D01*
Y94534D01*
X43169Y94490D01*
X43181Y94455D01*
X43196Y94423D01*
X43216Y94393D01*
X43239Y94370D01*
X43266Y94350D01*
X43295Y94335D01*
X43324Y94320D01*
X43382Y94303D01*
X43412Y94300D01*
X43435Y94294D01*
X43455D01*
X43470Y94291D01*
X43689D01*
Y94799D01*
D02*
G37*
G36*
X47885Y95138D02*
X47853D01*
X47830Y95132D01*
X47806Y95126D01*
X47789Y95121D01*
X47774Y95115D01*
X47760Y95109D01*
X47754Y95106D01*
X47751Y95103D01*
X47710Y95077D01*
X47678Y95045D01*
X47666Y95033D01*
X47657Y95021D01*
X47654Y95016D01*
X47651Y95013D01*
Y94414D01*
X47672Y94385D01*
X47692Y94358D01*
X47713Y94338D01*
X47736Y94318D01*
X47757Y94303D01*
X47777Y94288D01*
X47818Y94268D01*
X47853Y94256D01*
X47879Y94250D01*
X47891Y94248D01*
X47905D01*
X47946Y94253D01*
X47984Y94268D01*
X48016Y94288D01*
X48043Y94318D01*
X48066Y94350D01*
X48087Y94388D01*
X48101Y94429D01*
X48116Y94469D01*
X48133Y94551D01*
X48136Y94589D01*
X48142Y94621D01*
Y94651D01*
X48145Y94674D01*
Y94686D01*
Y94691D01*
Y94735D01*
X48142Y94773D01*
X48139Y94808D01*
X48133Y94843D01*
X48125Y94902D01*
X48110Y94948D01*
X48098Y94983D01*
X48089Y95010D01*
X48081Y95024D01*
X48078Y95030D01*
X48049Y95065D01*
X48016Y95091D01*
X47984Y95112D01*
X47952Y95123D01*
X47923Y95132D01*
X47900Y95135D01*
X47885Y95138D01*
D02*
G37*
G36*
X74363Y92710D02*
X74310D01*
X74159Y92689D01*
X74031Y92646D01*
X73912Y92592D01*
X73816Y92517D01*
X73751Y92442D01*
X73698Y92388D01*
X73665Y92345D01*
X73655Y92323D01*
X73612Y92248D01*
X73580Y92162D01*
X73526Y91969D01*
X73483Y91765D01*
X73461Y91561D01*
X73440Y91368D01*
Y91292D01*
X73429Y91217D01*
Y91163D01*
Y91121D01*
Y91088D01*
Y91078D01*
X73440Y90777D01*
X73472Y90530D01*
X73515Y90315D01*
X73558Y90132D01*
X73601Y90004D01*
X73644Y89907D01*
X73676Y89853D01*
X73687Y89832D01*
X73783Y89703D01*
X73902Y89606D01*
X74031Y89531D01*
X74149Y89488D01*
X74256Y89456D01*
X74342Y89445D01*
X74396Y89434D01*
X74417D01*
X74514Y89445D01*
X74600Y89456D01*
X74675Y89477D01*
X74750Y89499D01*
X74804Y89520D01*
X74847Y89542D01*
X74879Y89563D01*
X74890D01*
X75040Y89671D01*
X75147Y89789D01*
X75191Y89842D01*
X75223Y89885D01*
X75233Y89907D01*
X75244Y89918D01*
Y92098D01*
X75180Y92195D01*
X75105Y92281D01*
X75040Y92356D01*
X74976Y92420D01*
X74922Y92474D01*
X74879Y92506D01*
X74847Y92528D01*
X74836Y92538D01*
X74750Y92592D01*
X74654Y92635D01*
X74568Y92667D01*
X74482Y92689D01*
X74417Y92699D01*
X74363Y92710D01*
D02*
G37*
G36*
X101482Y92699D02*
X101461D01*
X101289Y92678D01*
X101138Y92635D01*
X101009Y92581D01*
X100902Y92506D01*
X100827Y92431D01*
X100762Y92377D01*
X100730Y92334D01*
X100719Y92313D01*
X100677Y92238D01*
X100634Y92152D01*
X100569Y91958D01*
X100526Y91754D01*
X100494Y91550D01*
X100472Y91368D01*
Y91282D01*
X100462Y91217D01*
Y91163D01*
Y91110D01*
Y91088D01*
Y91078D01*
Y90927D01*
X100472Y90777D01*
X100483Y90648D01*
X100505Y90519D01*
X100548Y90304D01*
X100591Y90132D01*
X100634Y90004D01*
X100677Y89907D01*
X100709Y89853D01*
X100719Y89832D01*
X100827Y89703D01*
X100934Y89606D01*
X101063Y89542D01*
X101181Y89499D01*
X101289Y89467D01*
X101375Y89456D01*
X101439Y89445D01*
X101461D01*
X101632Y89467D01*
X101783Y89510D01*
X101912Y89563D01*
X102019Y89638D01*
X102105Y89714D01*
X102159Y89767D01*
X102202Y89810D01*
X102212Y89832D01*
X102255Y89907D01*
X102298Y89993D01*
X102352Y90186D01*
X102395Y90390D01*
X102427Y90594D01*
X102449Y90777D01*
Y90863D01*
X102459Y90927D01*
Y90992D01*
Y91035D01*
Y91056D01*
Y91067D01*
Y91228D01*
X102449Y91368D01*
X102438Y91496D01*
X102416Y91625D01*
X102384Y91840D01*
X102331Y92012D01*
X102287Y92141D01*
X102255Y92238D01*
X102223Y92291D01*
X102212Y92313D01*
X102105Y92442D01*
X101987Y92538D01*
X101858Y92603D01*
X101740Y92656D01*
X101632Y92678D01*
X101546Y92689D01*
X101482Y92699D01*
D02*
G37*
G36*
X90678D02*
X90656D01*
X90484Y92678D01*
X90334Y92635D01*
X90205Y92581D01*
X90098Y92506D01*
X90022Y92431D01*
X89958Y92377D01*
X89926Y92334D01*
X89915Y92313D01*
X89872Y92238D01*
X89829Y92152D01*
X89765Y91958D01*
X89722Y91754D01*
X89689Y91550D01*
X89668Y91368D01*
Y91282D01*
X89657Y91217D01*
Y91163D01*
Y91110D01*
Y91088D01*
Y91078D01*
Y90927D01*
X89668Y90777D01*
X89679Y90648D01*
X89700Y90519D01*
X89743Y90304D01*
X89786Y90132D01*
X89829Y90004D01*
X89872Y89907D01*
X89904Y89853D01*
X89915Y89832D01*
X90022Y89703D01*
X90130Y89606D01*
X90259Y89542D01*
X90377Y89499D01*
X90484Y89467D01*
X90570Y89456D01*
X90635Y89445D01*
X90656D01*
X90828Y89467D01*
X90978Y89510D01*
X91107Y89563D01*
X91215Y89638D01*
X91300Y89714D01*
X91354Y89767D01*
X91397Y89810D01*
X91408Y89832D01*
X91451Y89907D01*
X91494Y89993D01*
X91548Y90186D01*
X91590Y90390D01*
X91623Y90594D01*
X91644Y90777D01*
Y90863D01*
X91655Y90927D01*
Y90992D01*
Y91035D01*
Y91056D01*
Y91067D01*
Y91228D01*
X91644Y91368D01*
X91633Y91496D01*
X91612Y91625D01*
X91580Y91840D01*
X91526Y92012D01*
X91483Y92141D01*
X91451Y92238D01*
X91419Y92291D01*
X91408Y92313D01*
X91300Y92442D01*
X91182Y92538D01*
X91053Y92603D01*
X90935Y92656D01*
X90828Y92678D01*
X90742Y92689D01*
X90678Y92699D01*
D02*
G37*
G36*
X38509Y90738D02*
X38456D01*
X38417Y90728D01*
X38378Y90718D01*
X38348Y90708D01*
X38324Y90699D01*
X38300Y90689D01*
X38290Y90684D01*
X38285Y90679D01*
X38217Y90630D01*
X38163Y90582D01*
X38143Y90562D01*
X38129Y90543D01*
X38124Y90533D01*
X38119Y90528D01*
Y89527D01*
X38148Y89483D01*
X38178Y89445D01*
X38207Y89410D01*
X38236Y89381D01*
X38261Y89357D01*
X38280Y89342D01*
X38295Y89332D01*
X38300Y89327D01*
X38339Y89303D01*
X38383Y89283D01*
X38422Y89274D01*
X38461Y89264D01*
X38495Y89259D01*
X38519Y89254D01*
X38544D01*
X38612Y89264D01*
X38671Y89283D01*
X38719Y89308D01*
X38763Y89342D01*
X38792Y89371D01*
X38817Y89401D01*
X38831Y89420D01*
X38836Y89425D01*
X38851Y89459D01*
X38871Y89498D01*
X38895Y89586D01*
X38910Y89679D01*
X38919Y89771D01*
X38929Y89859D01*
Y89893D01*
X38934Y89928D01*
Y89952D01*
Y89972D01*
Y89986D01*
Y89991D01*
Y90064D01*
X38929Y90128D01*
X38924Y90186D01*
X38914Y90245D01*
X38900Y90342D01*
X38875Y90421D01*
X38856Y90479D01*
X38841Y90523D01*
X38827Y90547D01*
X38822Y90557D01*
X38778Y90616D01*
X38724Y90660D01*
X38671Y90694D01*
X38617Y90713D01*
X38573Y90728D01*
X38534Y90733D01*
X38509Y90738D01*
D02*
G37*
G36*
X48265Y89913D02*
X48001D01*
Y89488D01*
X48065Y89410D01*
X48094Y89381D01*
X48128Y89352D01*
X48152Y89332D01*
X48177Y89318D01*
X48191Y89308D01*
X48196Y89303D01*
X48240Y89279D01*
X48289Y89264D01*
X48328Y89249D01*
X48367Y89244D01*
X48401Y89240D01*
X48426Y89235D01*
X48450D01*
X48509Y89240D01*
X48557Y89249D01*
X48596Y89259D01*
X48631Y89274D01*
X48660Y89288D01*
X48679Y89303D01*
X48689Y89308D01*
X48694Y89313D01*
X48718Y89347D01*
X48738Y89381D01*
X48753Y89425D01*
X48762Y89464D01*
X48767Y89498D01*
X48772Y89527D01*
Y89547D01*
Y89552D01*
X48767Y89615D01*
X48753Y89669D01*
X48733Y89713D01*
X48709Y89752D01*
X48684Y89781D01*
X48665Y89806D01*
X48650Y89815D01*
X48645Y89820D01*
X48587Y89850D01*
X48523Y89874D01*
X48450Y89889D01*
X48382Y89903D01*
X48318Y89908D01*
X48265Y89913D01*
D02*
G37*
%LPD*%
D12*
X36000Y19515D02*
X99862D01*
Y35853D01*
X36000Y19515D02*
Y84892D01*
X96662D01*
Y45853D02*
Y84892D01*
Y45954D02*
X99862Y35853D01*
X50000Y78752D02*
X47001D01*
X49000D02*
X48001Y77252D01*
X49000Y78752D02*
X50000Y77252D01*
X47501Y73753D02*
X47001Y73254D01*
Y72254D01*
X47501Y71754D01*
X48001D01*
X48501Y72254D01*
X49000Y71754D01*
X49500D01*
X50000Y72254D01*
Y73254D01*
X49500Y73753D01*
X49000D01*
X48501Y73254D01*
X48001Y73753D01*
X47501D01*
X48501Y73254D02*
Y72254D01*
X47001Y69353D02*
Y67354D01*
X47501D01*
X49500Y69353D01*
X50000D01*
X47001Y63154D02*
X47501Y64154D01*
X48501Y65153D01*
X49500D01*
X50000Y64654D01*
Y63654D01*
X49500Y63154D01*
X49000D01*
X48501Y63654D01*
Y65153D01*
X47001Y58954D02*
Y60953D01*
X48501D01*
X48001Y59954D01*
Y59454D01*
X48501Y58954D01*
X49500D01*
X50000Y59454D01*
Y60454D01*
X49500Y60953D01*
X50000Y55254D02*
X47001D01*
X48501Y56753D01*
Y54754D01*
X47501Y52053D02*
X47001Y51554D01*
Y50554D01*
X47501Y50054D01*
X48001D01*
X48501Y50554D01*
Y51054D01*
Y50554D01*
X49000Y50054D01*
X49500D01*
X50000Y50554D01*
Y51554D01*
X49500Y52053D01*
X50000Y45854D02*
Y47853D01*
X48001Y45854D01*
X47501D01*
X47001Y46354D01*
Y47354D01*
X47501Y47853D01*
X50000Y43554D02*
Y42554D01*
Y43054D01*
X47001D01*
X47501Y43554D01*
D15*
X28850Y36050D02*
X30150D01*
Y36400D01*
X28850D02*
X30150D01*
X28850Y36050D02*
Y36400D01*
X30150Y37600D02*
Y37950D01*
X28850Y37600D02*
X30150D01*
X28850D02*
Y37950D01*
X30150D01*
X28850Y30550D02*
X30150D01*
Y30900D01*
X28850D02*
X30150D01*
X28850Y30550D02*
Y30900D01*
X30150Y32100D02*
Y32450D01*
X28850Y32100D02*
X30150D01*
X28850D02*
Y32450D01*
X30150D01*
X28850Y67050D02*
X30150D01*
Y67400D01*
X28850D02*
X30150D01*
X28850Y67050D02*
Y67400D01*
X30150Y68600D02*
Y68950D01*
X28850Y68600D02*
X30150D01*
X28850D02*
Y68950D01*
X30150D01*
X28850Y72550D02*
X30150D01*
Y72900D01*
X28850D02*
X30150D01*
X28850Y72550D02*
Y72900D01*
X30150Y74100D02*
Y74450D01*
X28850Y74100D02*
X30150D01*
X28850D02*
Y74450D01*
X30150D01*
M02*
