G04*
G04 #@! TF.GenerationSoftware,Altium Limited,Altium Designer,20.0.13 (296)*
G04*
G04 Layer_Color=128*
%FSLAX25Y25*%
%MOIN*%
G70*
G01*
G75*
%ADD10C,0.00000*%
%ADD11C,0.00236*%
%ADD12C,0.00200*%
%ADD13C,0.00394*%
%ADD14C,0.00197*%
%ADD15C,0.00100*%
G36*
X114799Y78732D02*
X102201D01*
Y95267D01*
X114799D01*
Y78732D01*
D02*
G37*
D10*
X66150Y91805D02*
Y93006D01*
Y91805D02*
Y93006D01*
Y89837D02*
Y91037D01*
Y89837D02*
Y91037D01*
Y87868D02*
Y89069D01*
Y87868D02*
Y89069D01*
Y85900D02*
Y87100D01*
Y85900D02*
Y87100D01*
Y83931D02*
Y85132D01*
Y83931D02*
Y85132D01*
Y81963D02*
Y83163D01*
Y81963D02*
Y83163D01*
Y79994D02*
Y81195D01*
Y79994D02*
Y81195D01*
X69494Y76650D02*
X70695D01*
X69494D02*
X70695D01*
X71463D02*
X72663D01*
X71463D02*
X72663D01*
X73431D02*
X74632D01*
X73431D02*
X74632D01*
X75400D02*
X76600D01*
X75400D02*
X76600D01*
X77368D02*
X78569D01*
X77368D02*
X78569D01*
X79337D02*
X80537D01*
X79337D02*
X80537D01*
X81305D02*
X82506D01*
X81305D02*
X82506D01*
X85850Y79994D02*
Y81195D01*
Y79994D02*
Y81195D01*
Y81963D02*
Y83163D01*
Y81963D02*
Y83163D01*
Y83931D02*
Y85132D01*
Y83931D02*
Y85132D01*
Y85900D02*
Y87100D01*
Y85900D02*
Y87100D01*
Y87868D02*
Y89069D01*
Y87868D02*
Y89069D01*
Y89837D02*
Y91037D01*
Y89837D02*
Y91037D01*
Y91805D02*
Y93006D01*
Y91805D02*
Y93006D01*
X81305Y96350D02*
X82506D01*
X81305D02*
X82506D01*
X79337D02*
X80537D01*
X79337D02*
X80537D01*
X77368D02*
X78569D01*
X77368D02*
X78569D01*
X75400D02*
X76600D01*
X75400D02*
X76600D01*
X73431D02*
X74632D01*
X73431D02*
X74632D01*
X71463D02*
X72663D01*
X71463D02*
X72663D01*
X69494D02*
X70695D01*
X69494D02*
X70695D01*
X85850Y76650D02*
Y96350D01*
X66150D02*
X85850D01*
X66150Y76650D02*
Y96350D01*
Y76650D02*
X85850D01*
D11*
X102319Y95267D02*
G03*
X102319Y95267I-118J0D01*
G01*
D12*
X31468Y36016D02*
Y37984D01*
X27531Y36016D02*
Y37984D01*
X31468D01*
X27531Y36016D02*
X31468D01*
X29500Y36400D02*
Y37600D01*
X28900Y37000D02*
X30100D01*
X31468Y30516D02*
Y32484D01*
X27531Y30516D02*
Y32484D01*
X31468D01*
X27531Y30516D02*
X31468D01*
X29500Y30900D02*
Y32100D01*
X28900Y31500D02*
X30100D01*
X31468Y67016D02*
Y68984D01*
X27531Y67016D02*
Y68984D01*
X31468D01*
X27531Y67016D02*
X31468D01*
X29500Y67400D02*
Y68600D01*
X28900Y68000D02*
X30100D01*
X31468Y72516D02*
Y74484D01*
X27531Y72516D02*
Y74484D01*
X31468D01*
X27531Y72516D02*
X31468D01*
X29500Y72900D02*
Y74100D01*
X28900Y73500D02*
X30100D01*
X97969Y6116D02*
Y8084D01*
X94032Y6116D02*
Y8084D01*
Y6116D02*
X97969D01*
X94032Y8084D02*
X97969D01*
X96000Y6500D02*
Y7700D01*
X95400Y7100D02*
X96600D01*
X94516Y83031D02*
X96484D01*
X94516Y86968D02*
X96484D01*
X94516Y83031D02*
Y86968D01*
X96484Y83031D02*
Y86968D01*
X94900Y85000D02*
X96100D01*
X95500Y84400D02*
Y85600D01*
X107768Y9616D02*
Y11584D01*
X103832Y9616D02*
Y11584D01*
Y9616D02*
X107768D01*
X103832Y11584D02*
X107768D01*
X105800Y10000D02*
Y11200D01*
X105200Y10600D02*
X106400D01*
X107768Y6116D02*
Y8084D01*
X103832Y6116D02*
Y8084D01*
Y6116D02*
X107768D01*
X103832Y8084D02*
X107768D01*
X105800Y6500D02*
Y7700D01*
X105200Y7100D02*
X106400D01*
X97969Y9616D02*
Y11584D01*
X94032Y9616D02*
Y11584D01*
Y9616D02*
X97969D01*
X94032Y11584D02*
X97969D01*
X96000Y10000D02*
Y11200D01*
X95400Y10600D02*
X96600D01*
X116969Y23016D02*
Y24984D01*
X113031Y23016D02*
Y24984D01*
Y23016D02*
X116969D01*
X113031Y24984D02*
X116969D01*
X115000Y23400D02*
Y24600D01*
X114400Y24000D02*
X115600D01*
X49031Y25016D02*
Y26984D01*
X52969Y25016D02*
Y26984D01*
X49031D02*
X52969D01*
X49031Y25016D02*
X52969D01*
X51000Y25400D02*
Y26600D01*
X50400Y26000D02*
X51600D01*
X59469Y78016D02*
Y79984D01*
X55532Y78016D02*
Y79984D01*
Y78016D02*
X59469D01*
X55532Y79984D02*
X59469D01*
X57500Y78400D02*
Y79600D01*
X56900Y79000D02*
X58100D01*
X48469Y78016D02*
Y79984D01*
X44532Y78016D02*
Y79984D01*
Y78016D02*
X48469D01*
X44532Y79984D02*
X48469D01*
X46500Y78400D02*
Y79600D01*
X45900Y79000D02*
X47100D01*
X31532Y78016D02*
Y79984D01*
X35469Y78016D02*
Y79984D01*
X31532D02*
X35469D01*
X31532Y78016D02*
X35469D01*
X33500Y78400D02*
Y79600D01*
X32900Y79000D02*
X34100D01*
X44969Y25016D02*
Y26984D01*
X41032Y25016D02*
Y26984D01*
Y25016D02*
X44969D01*
X41032Y26984D02*
X44969D01*
X43000Y25400D02*
Y26600D01*
X42400Y26000D02*
X43600D01*
X36968Y25016D02*
Y26984D01*
X33031Y25016D02*
Y26984D01*
Y25016D02*
X36968D01*
X33031Y26984D02*
X36968D01*
X35000Y25400D02*
Y26600D01*
X34400Y26000D02*
X35600D01*
X75532Y64516D02*
Y66484D01*
X79469Y64516D02*
Y66484D01*
X75532D02*
X79469D01*
X75532Y64516D02*
X79469D01*
X77500Y64900D02*
Y66100D01*
X76900Y65500D02*
X78100D01*
X71969Y64516D02*
Y66484D01*
X68032Y64516D02*
Y66484D01*
Y64516D02*
X71969D01*
X68032Y66484D02*
X71969D01*
X70000Y64900D02*
Y66100D01*
X69400Y65500D02*
X70600D01*
X56016Y44469D02*
X57984D01*
X56016Y40532D02*
X57984D01*
Y44469D01*
X56016Y40532D02*
Y44469D01*
X56400Y42500D02*
X57600D01*
X57000Y41900D02*
Y43100D01*
X60532Y64516D02*
Y66484D01*
X64468Y64516D02*
Y66484D01*
X60532D02*
X64468D01*
X60532Y64516D02*
X64468D01*
X62500Y64900D02*
Y66100D01*
X61900Y65500D02*
X63100D01*
X26000Y35300D02*
X33000D01*
Y38700D01*
X26000Y35300D02*
Y38700D01*
X33000D01*
X26000Y29800D02*
X33000D01*
Y33200D01*
X26000Y29800D02*
Y33200D01*
X33000D01*
X26000Y66300D02*
X33000D01*
Y69700D01*
X26000Y66300D02*
Y69700D01*
X33000D01*
X26000Y71800D02*
X33000D01*
Y75200D01*
X26000Y71800D02*
Y75200D01*
X33000D01*
X92500Y5400D02*
X99500D01*
X92500D02*
Y8800D01*
X99500Y5400D02*
Y8800D01*
X92500D02*
X99500D01*
X26400Y74890D02*
X51900D01*
Y27890D02*
Y74890D01*
X26400Y27890D02*
X51900D01*
X26400D02*
Y74890D01*
X97200Y81500D02*
Y88500D01*
X93800Y81500D02*
X97200D01*
X93800Y88500D02*
X97200D01*
X93800Y81500D02*
Y88500D01*
X102300Y8900D02*
X109300D01*
X102300D02*
Y12300D01*
X109300Y8900D02*
Y12300D01*
X102300D02*
X109300D01*
X102300Y5400D02*
X109300D01*
X102300D02*
Y8800D01*
X109300Y5400D02*
Y8800D01*
X102300D02*
X109300D01*
X92500Y12300D02*
X99500D01*
Y8900D02*
Y12300D01*
X92500Y8900D02*
Y12300D01*
Y8900D02*
X99500D01*
X111500Y22300D02*
X118500D01*
X111500D02*
Y25700D01*
X118500Y22300D02*
Y25700D01*
X111500D02*
X118500D01*
X47500Y27700D02*
X54500D01*
Y24300D02*
Y27700D01*
X47500Y24300D02*
Y27700D01*
Y24300D02*
X54500D01*
X54000Y80700D02*
X61000D01*
Y77300D02*
Y80700D01*
X54000Y77300D02*
Y80700D01*
Y77300D02*
X61000D01*
X43000Y80700D02*
X50000D01*
Y77300D02*
Y80700D01*
X43000Y77300D02*
Y80700D01*
Y77300D02*
X50000D01*
X30000D02*
X37000D01*
X30000D02*
Y80700D01*
X37000Y77300D02*
Y80700D01*
X30000D02*
X37000D01*
X39500Y27700D02*
X46500D01*
Y24300D02*
Y27700D01*
X39500Y24300D02*
Y27700D01*
Y24300D02*
X46500D01*
X31500D02*
X38500D01*
X31500D02*
Y27700D01*
X38500Y24300D02*
Y27700D01*
X31500D02*
X38500D01*
X74000Y67200D02*
X81000D01*
Y63800D02*
Y67200D01*
X74000Y63800D02*
Y67200D01*
Y63800D02*
X81000D01*
X66500D02*
X73500D01*
X66500D02*
Y67200D01*
X73500Y63800D02*
Y67200D01*
X66500D02*
X73500D01*
X58700Y39000D02*
Y46000D01*
X55300Y39000D02*
X58700D01*
X55300Y46000D02*
X58700D01*
X55300Y39000D02*
Y46000D01*
X59000Y67200D02*
X66000D01*
Y63800D02*
Y67200D01*
X59000Y63800D02*
Y67200D01*
Y63800D02*
X66000D01*
X81032Y40004D02*
X84969D01*
X83000Y38035D02*
Y41972D01*
X81032Y71500D02*
X84969D01*
X83000Y69531D02*
Y73468D01*
X94862Y41622D02*
X97421D01*
X96142Y40343D02*
Y42902D01*
X94862Y64378D02*
X97421D01*
X96142Y63098D02*
Y65657D01*
X108740Y70028D02*
X111102D01*
X109921Y68846D02*
Y71209D01*
X108740Y35972D02*
X111102D01*
X109921Y34791D02*
Y37154D01*
X92992Y70028D02*
X95354D01*
X94173Y68846D02*
Y71209D01*
X92992Y35972D02*
X95354D01*
X94173Y34791D02*
Y37154D01*
X51000Y29000D02*
X52000D01*
X51500Y28500D02*
Y29500D01*
X89500Y19912D02*
X90500D01*
X90000Y19412D02*
Y20412D01*
X82597Y14833D02*
X83597D01*
X83097Y14333D02*
Y15333D01*
X62500Y29000D02*
X63500D01*
X63000Y28500D02*
Y29500D01*
X67000Y30500D02*
X68000D01*
X67500Y30000D02*
Y31000D01*
X72500Y30500D02*
X73500D01*
X73000Y30000D02*
Y31000D01*
X80860Y12500D02*
X81860D01*
X81360Y12000D02*
Y13000D01*
X35000Y29500D02*
X36000D01*
X35500Y29000D02*
Y30000D01*
X104000Y83000D02*
X105000D01*
X104500Y82500D02*
Y83500D01*
X35500Y54000D02*
X36500D01*
X36000Y53500D02*
Y54500D01*
X43500Y23000D02*
X44500D01*
X44000Y22500D02*
Y23500D01*
X85000Y60000D02*
X86000D01*
X85500Y59500D02*
Y60500D01*
X76987Y8600D02*
X77987D01*
X77487Y8100D02*
Y9100D01*
X78000Y15500D02*
X79000D01*
X78500Y15000D02*
Y16000D01*
X80000Y31000D02*
X81000D01*
X80500Y30500D02*
Y31500D01*
X46000Y70000D02*
X47000D01*
X46500Y69500D02*
Y70500D01*
X97500Y55000D02*
X98500D01*
X98000Y54500D02*
Y55500D01*
X74000Y71000D02*
X75000D01*
X74500Y70500D02*
Y71500D01*
X81000Y58000D02*
X82000D01*
X81500Y57500D02*
Y58500D01*
X83500Y65000D02*
X84500D01*
X84000Y64500D02*
Y65500D01*
X78000Y25500D02*
X79000D01*
X78500Y25000D02*
Y26000D01*
X78000Y20500D02*
X79000D01*
X78500Y20000D02*
Y21000D01*
X90000Y77000D02*
X91000D01*
X90500Y76500D02*
Y77500D01*
X90313Y23691D02*
X91313D01*
X90813Y23191D02*
Y24191D01*
X101000Y24500D02*
X102000D01*
X101500Y24000D02*
Y25000D01*
X78500Y83500D02*
X79500D01*
X79000Y83000D02*
Y84000D01*
X75500Y83500D02*
X76500D01*
X76000Y83000D02*
Y84000D01*
X72500Y83500D02*
X73500D01*
X73000Y83000D02*
Y84000D01*
X78500Y86500D02*
X79500D01*
X79000Y86000D02*
Y87000D01*
X75500Y86500D02*
X76500D01*
X76000Y86000D02*
Y87000D01*
X72500Y86500D02*
X73500D01*
X73000Y86000D02*
Y87000D01*
X78500Y89500D02*
X79500D01*
X79000Y89000D02*
Y90000D01*
X75500Y89500D02*
X76500D01*
X76000Y89000D02*
Y90000D01*
X72500Y89500D02*
X73500D01*
X73000Y89000D02*
Y90000D01*
X72500Y20500D02*
X73500D01*
X73000Y20000D02*
Y21000D01*
X67000Y20500D02*
X68000D01*
X67500Y20000D02*
Y21000D01*
X67000Y15500D02*
X68000D01*
X67500Y15000D02*
Y16000D01*
X72500Y15500D02*
X73500D01*
X73000Y15000D02*
Y16000D01*
X72500Y25500D02*
X73500D01*
X73000Y25000D02*
Y26000D01*
X67000Y25500D02*
X68000D01*
X67500Y25000D02*
Y26000D01*
X93000Y27500D02*
X94000D01*
X93500Y27000D02*
Y28000D01*
X46000Y36500D02*
X47000D01*
X46500Y36000D02*
Y37000D01*
X35500Y46000D02*
X36500D01*
X36000Y45500D02*
Y46500D01*
X32000Y42500D02*
X33000D01*
X32500Y42000D02*
Y43000D01*
X24500Y77000D02*
X25500D01*
X25000Y76500D02*
Y77500D01*
X25500Y58500D02*
X26500D01*
X26000Y58000D02*
Y59000D01*
X27500Y63500D02*
X28500D01*
X28000Y63000D02*
Y64000D01*
X70000Y40000D02*
X71000D01*
X70500Y39500D02*
Y40500D01*
X68000Y37000D02*
X69000D01*
X68500Y36500D02*
Y37500D01*
X96500Y50000D02*
X97500D01*
X97000Y49500D02*
Y50500D01*
X65000Y72000D02*
X66000D01*
X65500Y71500D02*
Y72500D01*
X113500Y61000D02*
X114500D01*
X114000Y60500D02*
Y61500D01*
X108000Y48500D02*
X109000D01*
X108500Y48000D02*
Y49000D01*
X96500Y78000D02*
X97500D01*
X97000Y77500D02*
Y78500D01*
X34000Y73000D02*
X35000D01*
X34500Y72500D02*
Y73500D01*
X27000Y80500D02*
X28000D01*
X27500Y80000D02*
Y81000D01*
X44500Y91500D02*
X45500D01*
X45000Y91000D02*
Y92000D01*
X26000Y98500D02*
X27000D01*
X26500Y98000D02*
Y99000D01*
X25500Y16500D02*
X26500D01*
X26000Y16000D02*
Y17000D01*
X55500Y8500D02*
X56500D01*
X56000Y8000D02*
Y9000D01*
X55500Y12000D02*
X56500D01*
X56000Y11500D02*
Y12500D01*
X53500Y14500D02*
X54500D01*
X54000Y14000D02*
Y15000D01*
X51000Y16500D02*
X52000D01*
X51500Y16000D02*
Y17000D01*
X47500Y16500D02*
X48500D01*
X48000Y16000D02*
Y17000D01*
X43500Y16500D02*
X44500D01*
X44000Y16000D02*
Y17000D01*
X40000Y16500D02*
X41000D01*
X40500Y16000D02*
Y17000D01*
X36500Y16500D02*
X37500D01*
X37000Y16000D02*
Y17000D01*
X33000Y16500D02*
X34000D01*
X33500Y16000D02*
Y17000D01*
X29500Y16500D02*
X30500D01*
X30000Y16000D02*
Y17000D01*
X55000Y22500D02*
X56000D01*
X55500Y22000D02*
Y23000D01*
X58000Y58000D02*
X59000D01*
X58500Y57500D02*
Y58500D01*
X48500Y53500D02*
X49500D01*
X49000Y53000D02*
Y54000D01*
X33939Y48439D02*
X34939D01*
X34439Y47939D02*
Y48939D01*
X36000Y36000D02*
X37000D01*
X36500Y35500D02*
Y36500D01*
X88000Y12000D02*
X89000D01*
X88500Y11500D02*
Y12500D01*
X90000Y6500D02*
X91000D01*
X90500Y6000D02*
Y7000D01*
X94500Y13500D02*
X95500D01*
X95000Y13000D02*
Y14000D01*
X60500Y86032D02*
X61500D01*
X61000Y85532D02*
Y86532D01*
X101000Y34500D02*
X102000D01*
X101500Y34000D02*
Y35000D01*
X73500Y39000D02*
X74500D01*
X74000Y38500D02*
Y39500D01*
X77500Y37500D02*
X78500D01*
X78000Y37000D02*
Y38000D01*
X42000Y37500D02*
X43000D01*
X42500Y37000D02*
Y38000D01*
X49000Y40000D02*
X50000D01*
X49500Y39500D02*
Y40500D01*
X48634Y37000D02*
X49634D01*
X49134Y36500D02*
Y37500D01*
X65000Y38000D02*
X66000D01*
X65500Y37500D02*
Y38500D01*
X56000Y37000D02*
X57000D01*
X56500Y36500D02*
Y37500D01*
X25613Y42387D02*
X26613D01*
X26113Y41887D02*
Y42887D01*
X24500Y73500D02*
X25500D01*
X25000Y73000D02*
Y74000D01*
X87000Y35000D02*
X88000D01*
X87500Y34500D02*
Y35500D01*
X54500Y17000D02*
X55500D01*
X55000Y16500D02*
Y17500D01*
X25500Y25000D02*
X26500D01*
X26000Y24500D02*
Y25500D01*
X56000Y71500D02*
X57000D01*
X56500Y71000D02*
Y72000D01*
X54413Y49612D02*
X55413D01*
X54913Y49112D02*
Y50112D01*
X28913Y27712D02*
X29913D01*
X29413Y27212D02*
Y28212D01*
X33677Y56146D02*
X34677D01*
X34177Y55646D02*
Y56646D01*
D13*
X96551Y27102D02*
X103638D01*
X96551Y14898D02*
X103638D01*
X96551D02*
Y27102D01*
X103638Y14898D02*
Y27102D01*
X100095Y19031D02*
Y22968D01*
X98126Y21000D02*
X102063D01*
X91095Y28087D02*
X109095D01*
X91095Y13913D02*
X109095D01*
X91095D02*
Y28087D01*
X109095Y13913D02*
Y28087D01*
X33000Y90000D02*
X35000D01*
X34000Y89000D02*
Y91000D01*
X27500Y97000D02*
X40500D01*
X27500Y83000D02*
X40500D01*
Y97000D01*
X27500Y83000D02*
Y97000D01*
X52500Y90000D02*
X54500D01*
X53500Y89000D02*
Y91000D01*
X47000Y97000D02*
X60000D01*
X47000Y83000D02*
X60000D01*
Y97000D01*
X47000Y83000D02*
Y97000D01*
X70000Y49531D02*
Y53469D01*
X68032Y51500D02*
X71969D01*
X58386Y63114D02*
X81614D01*
X58386Y39886D02*
X81614D01*
X58386D02*
Y63114D01*
X81614Y39886D02*
Y63114D01*
D14*
X84378Y55752D02*
G03*
X84378Y55752I-1378J0D01*
G01*
X83000Y53783D02*
Y57720D01*
X81032Y55752D02*
X84969D01*
D15*
X115500Y16000D02*
G03*
X115500Y16000I-500J0D01*
G01*
X114213Y16000D02*
X115787D01*
X115000Y15213D02*
Y16787D01*
M02*
