G04*
G04 #@! TF.GenerationSoftware,Altium Limited,Altium Designer,20.0.13 (296)*
G04*
G04 Layer_Color=8388736*
%FSLAX25Y25*%
%MOIN*%
G70*
G01*
G75*
%ADD35R,0.02175X0.02568*%
%ADD36R,0.03356X0.04537*%
G04:AMPARAMS|DCode=37|XSize=65.06mil|YSize=17.81mil|CornerRadius=5.95mil|HoleSize=0mil|Usage=FLASHONLY|Rotation=180.000|XOffset=0mil|YOffset=0mil|HoleType=Round|Shape=RoundedRectangle|*
%AMROUNDEDRECTD37*
21,1,0.06506,0.00591,0,0,180.0*
21,1,0.05315,0.01781,0,0,180.0*
1,1,0.01191,-0.02657,0.00295*
1,1,0.01191,0.02657,0.00295*
1,1,0.01191,0.02657,-0.00295*
1,1,0.01191,-0.02657,-0.00295*
%
%ADD37ROUNDEDRECTD37*%
G04:AMPARAMS|DCode=38|XSize=166mil|YSize=166mil|CornerRadius=19mil|HoleSize=0mil|Usage=FLASHONLY|Rotation=90.000|XOffset=0mil|YOffset=0mil|HoleType=Round|Shape=RoundedRectangle|*
%AMROUNDEDRECTD38*
21,1,0.16600,0.12800,0,0,90.0*
21,1,0.12800,0.16600,0,0,90.0*
1,1,0.03800,0.06400,0.06400*
1,1,0.03800,0.06400,-0.06400*
1,1,0.03800,-0.06400,-0.06400*
1,1,0.03800,-0.06400,0.06400*
%
%ADD38ROUNDEDRECTD38*%
G04:AMPARAMS|DCode=39|XSize=32.58mil|YSize=15.84mil|CornerRadius=5.46mil|HoleSize=0mil|Usage=FLASHONLY|Rotation=90.000|XOffset=0mil|YOffset=0mil|HoleType=Round|Shape=RoundedRectangle|*
%AMROUNDEDRECTD39*
21,1,0.03258,0.00492,0,0,90.0*
21,1,0.02165,0.01584,0,0,90.0*
1,1,0.01092,0.00246,0.01083*
1,1,0.01092,0.00246,-0.01083*
1,1,0.01092,-0.00246,-0.01083*
1,1,0.01092,-0.00246,0.01083*
%
%ADD39ROUNDEDRECTD39*%
G04:AMPARAMS|DCode=40|XSize=32.58mil|YSize=15.84mil|CornerRadius=5.46mil|HoleSize=0mil|Usage=FLASHONLY|Rotation=180.000|XOffset=0mil|YOffset=0mil|HoleType=Round|Shape=RoundedRectangle|*
%AMROUNDEDRECTD40*
21,1,0.03258,0.00492,0,0,180.0*
21,1,0.02165,0.01584,0,0,180.0*
1,1,0.01092,-0.01083,0.00246*
1,1,0.01092,0.01083,0.00246*
1,1,0.01092,0.01083,-0.00246*
1,1,0.01092,-0.01083,-0.00246*
%
%ADD40ROUNDEDRECTD40*%
G04:AMPARAMS|DCode=41|XSize=26mil|YSize=26mil|CornerRadius=8mil|HoleSize=0mil|Usage=FLASHONLY|Rotation=270.000|XOffset=0mil|YOffset=0mil|HoleType=Round|Shape=RoundedRectangle|*
%AMROUNDEDRECTD41*
21,1,0.02600,0.01000,0,0,270.0*
21,1,0.01000,0.02600,0,0,270.0*
1,1,0.01600,-0.00500,-0.00500*
1,1,0.01600,-0.00500,0.00500*
1,1,0.01600,0.00500,0.00500*
1,1,0.01600,0.00500,-0.00500*
%
%ADD41ROUNDEDRECTD41*%
G04:AMPARAMS|DCode=42|XSize=92mil|YSize=56mil|CornerRadius=15.5mil|HoleSize=0mil|Usage=FLASHONLY|Rotation=0.000|XOffset=0mil|YOffset=0mil|HoleType=Round|Shape=RoundedRectangle|*
%AMROUNDEDRECTD42*
21,1,0.09200,0.02500,0,0,0.0*
21,1,0.06100,0.05600,0,0,0.0*
1,1,0.03100,0.03050,-0.01250*
1,1,0.03100,-0.03050,-0.01250*
1,1,0.03100,-0.03050,0.01250*
1,1,0.03100,0.03050,0.01250*
%
%ADD42ROUNDEDRECTD42*%
G04:AMPARAMS|DCode=43|XSize=56mil|YSize=16mil|CornerRadius=5.5mil|HoleSize=0mil|Usage=FLASHONLY|Rotation=180.000|XOffset=0mil|YOffset=0mil|HoleType=Round|Shape=RoundedRectangle|*
%AMROUNDEDRECTD43*
21,1,0.05600,0.00500,0,0,180.0*
21,1,0.04500,0.01600,0,0,180.0*
1,1,0.01100,-0.02250,0.00250*
1,1,0.01100,0.02250,0.00250*
1,1,0.01100,0.02250,-0.00250*
1,1,0.01100,-0.02250,-0.00250*
%
%ADD43ROUNDEDRECTD43*%
G04:AMPARAMS|DCode=44|XSize=22mil|YSize=48mil|CornerRadius=8mil|HoleSize=0mil|Usage=FLASHONLY|Rotation=0.000|XOffset=0mil|YOffset=0mil|HoleType=Round|Shape=RoundedRectangle|*
%AMROUNDEDRECTD44*
21,1,0.02200,0.03200,0,0,0.0*
21,1,0.00600,0.04800,0,0,0.0*
1,1,0.01600,0.00300,-0.01600*
1,1,0.01600,-0.00300,-0.01600*
1,1,0.01600,-0.00300,0.01600*
1,1,0.01600,0.00300,0.01600*
%
%ADD44ROUNDEDRECTD44*%
G04:AMPARAMS|DCode=45|XSize=22mil|YSize=48mil|CornerRadius=8mil|HoleSize=0mil|Usage=FLASHONLY|Rotation=270.000|XOffset=0mil|YOffset=0mil|HoleType=Round|Shape=RoundedRectangle|*
%AMROUNDEDRECTD45*
21,1,0.02200,0.03200,0,0,270.0*
21,1,0.00600,0.04800,0,0,270.0*
1,1,0.01600,-0.01600,-0.00300*
1,1,0.01600,-0.01600,0.00300*
1,1,0.01600,0.01600,0.00300*
1,1,0.01600,0.01600,-0.00300*
%
%ADD45ROUNDEDRECTD45*%
%ADD46R,0.11624X0.11230*%
G04:AMPARAMS|DCode=47|XSize=26mil|YSize=26mil|CornerRadius=8mil|HoleSize=0mil|Usage=FLASHONLY|Rotation=180.000|XOffset=0mil|YOffset=0mil|HoleType=Round|Shape=RoundedRectangle|*
%AMROUNDEDRECTD47*
21,1,0.02600,0.01000,0,0,180.0*
21,1,0.01000,0.02600,0,0,180.0*
1,1,0.01600,-0.00500,0.00500*
1,1,0.01600,0.00500,0.00500*
1,1,0.01600,0.00500,-0.00500*
1,1,0.01600,-0.00500,-0.00500*
%
%ADD47ROUNDEDRECTD47*%
G04:AMPARAMS|DCode=48|XSize=29.62mil|YSize=41mil|CornerRadius=8.91mil|HoleSize=0mil|Usage=FLASHONLY|Rotation=270.000|XOffset=0mil|YOffset=0mil|HoleType=Round|Shape=RoundedRectangle|*
%AMROUNDEDRECTD48*
21,1,0.02962,0.02319,0,0,270.0*
21,1,0.01181,0.04100,0,0,270.0*
1,1,0.01781,-0.01159,-0.00591*
1,1,0.01781,-0.01159,0.00591*
1,1,0.01781,0.01159,0.00591*
1,1,0.01781,0.01159,-0.00591*
%
%ADD48ROUNDEDRECTD48*%
G04:AMPARAMS|DCode=49|XSize=43.4mil|YSize=45.37mil|CornerRadius=12.35mil|HoleSize=0mil|Usage=FLASHONLY|Rotation=0.000|XOffset=0mil|YOffset=0mil|HoleType=Round|Shape=RoundedRectangle|*
%AMROUNDEDRECTD49*
21,1,0.04340,0.02067,0,0,0.0*
21,1,0.01870,0.04537,0,0,0.0*
1,1,0.02470,0.00935,-0.01034*
1,1,0.02470,-0.00935,-0.01034*
1,1,0.02470,-0.00935,0.01034*
1,1,0.02470,0.00935,0.01034*
%
%ADD49ROUNDEDRECTD49*%
G04:AMPARAMS|DCode=50|XSize=37.5mil|YSize=76.87mil|CornerRadius=10.87mil|HoleSize=0mil|Usage=FLASHONLY|Rotation=180.000|XOffset=0mil|YOffset=0mil|HoleType=Round|Shape=RoundedRectangle|*
%AMROUNDEDRECTD50*
21,1,0.03750,0.05512,0,0,180.0*
21,1,0.01575,0.07687,0,0,180.0*
1,1,0.02175,-0.00787,0.02756*
1,1,0.02175,0.00787,0.02756*
1,1,0.02175,0.00787,-0.02756*
1,1,0.02175,-0.00787,-0.02756*
%
%ADD50ROUNDEDRECTD50*%
%ADD51O,0.01584X0.03356*%
%ADD52O,0.03356X0.01584*%
%ADD53C,0.04537*%
%ADD54C,0.03159*%
%ADD55O,0.06899X0.04537*%
%ADD56O,0.08868X0.04537*%
D35*
X113229Y16000D02*
D03*
X116772Y16000D02*
D03*
D36*
X104268Y78535D02*
D03*
Y95464D02*
D03*
X112733Y78535D02*
D03*
Y95464D02*
D03*
D37*
X90079Y66189D02*
D03*
Y65008D02*
D03*
Y63039D02*
D03*
Y61858D02*
D03*
Y59890D02*
D03*
Y57921D02*
D03*
Y55953D02*
D03*
Y53984D02*
D03*
Y52016D02*
D03*
Y50047D02*
D03*
Y48079D02*
D03*
Y46110D02*
D03*
Y44142D02*
D03*
Y42961D02*
D03*
Y40992D02*
D03*
Y39811D02*
D03*
D38*
X72390Y20738D02*
D03*
D39*
X61563Y7500D02*
D03*
X63532D02*
D03*
X65500D02*
D03*
X67469D02*
D03*
X69437D02*
D03*
X71406D02*
D03*
X73374D02*
D03*
X75343D02*
D03*
X77311D02*
D03*
X79280D02*
D03*
X81248D02*
D03*
X83217D02*
D03*
Y33976D02*
D03*
X81248D02*
D03*
X79280D02*
D03*
X77311D02*
D03*
X75343D02*
D03*
X73374D02*
D03*
X71406D02*
D03*
X69437D02*
D03*
X67469D02*
D03*
X65500D02*
D03*
X63532D02*
D03*
X61563D02*
D03*
D40*
X85628Y9911D02*
D03*
Y11880D02*
D03*
Y13848D02*
D03*
Y15817D02*
D03*
Y17785D02*
D03*
Y19754D02*
D03*
Y21723D02*
D03*
Y23691D02*
D03*
Y25659D02*
D03*
Y27628D02*
D03*
Y29596D02*
D03*
Y31565D02*
D03*
X59152D02*
D03*
Y29596D02*
D03*
Y27628D02*
D03*
Y25659D02*
D03*
Y23691D02*
D03*
Y21723D02*
D03*
Y19754D02*
D03*
Y17785D02*
D03*
Y15817D02*
D03*
Y13848D02*
D03*
Y11880D02*
D03*
Y9911D02*
D03*
D41*
X94000Y7100D02*
D03*
X98000D02*
D03*
X103800Y10600D02*
D03*
X107800D02*
D03*
X103800Y7100D02*
D03*
X107800D02*
D03*
X94000Y10600D02*
D03*
X98000D02*
D03*
X113000Y24000D02*
D03*
X117000D02*
D03*
X53000Y26000D02*
D03*
X49000D02*
D03*
X55500Y79000D02*
D03*
X59500D02*
D03*
X44500D02*
D03*
X48500D02*
D03*
X35500D02*
D03*
X31500D02*
D03*
X41000Y26000D02*
D03*
X45000D02*
D03*
X33000D02*
D03*
X37000D02*
D03*
X79500Y65500D02*
D03*
X75500D02*
D03*
X68000D02*
D03*
X72000D02*
D03*
X64500D02*
D03*
X60500D02*
D03*
D42*
X42400Y69953D02*
D03*
Y32827D02*
D03*
D43*
X30000Y58279D02*
D03*
Y56311D02*
D03*
Y54342D02*
D03*
Y52374D02*
D03*
Y50405D02*
D03*
Y48437D02*
D03*
Y46468D02*
D03*
Y44500D02*
D03*
D44*
X70095Y77350D02*
D03*
X72063D02*
D03*
X74032D02*
D03*
X76000D02*
D03*
X77969D02*
D03*
X79937D02*
D03*
X81906D02*
D03*
Y95650D02*
D03*
X79937D02*
D03*
X77969D02*
D03*
X76000D02*
D03*
X74032D02*
D03*
X72063D02*
D03*
X70095D02*
D03*
D45*
X85150Y80594D02*
D03*
Y82563D02*
D03*
Y84531D02*
D03*
Y86500D02*
D03*
Y88468D02*
D03*
Y90437D02*
D03*
Y92405D02*
D03*
X66850D02*
D03*
Y90437D02*
D03*
Y88468D02*
D03*
Y86500D02*
D03*
Y84531D02*
D03*
Y82563D02*
D03*
Y80594D02*
D03*
D46*
X76000Y86500D02*
D03*
X70000Y51500D02*
D03*
D47*
X95500Y87000D02*
D03*
Y83000D02*
D03*
X57000Y40500D02*
D03*
Y44500D02*
D03*
D48*
X106000Y24740D02*
D03*
Y21000D02*
D03*
Y17260D02*
D03*
X94600D02*
D03*
Y24740D02*
D03*
D49*
X30260Y85571D02*
D03*
X37740D02*
D03*
X34000Y94429D02*
D03*
X49760Y85571D02*
D03*
X57240D02*
D03*
X53500Y94429D02*
D03*
D50*
X27909Y9500D02*
D03*
X48000D02*
D03*
D51*
X74921Y43232D02*
D03*
X72953D02*
D03*
X70984D02*
D03*
X69016D02*
D03*
X67047D02*
D03*
X65079D02*
D03*
Y59768D02*
D03*
X67047D02*
D03*
X69016D02*
D03*
X70984D02*
D03*
X72953D02*
D03*
X74921D02*
D03*
D52*
X61732Y46579D02*
D03*
Y48547D02*
D03*
Y50516D02*
D03*
Y52484D02*
D03*
Y54453D02*
D03*
Y56421D02*
D03*
X78268D02*
D03*
Y54453D02*
D03*
Y52484D02*
D03*
Y50516D02*
D03*
Y48547D02*
D03*
Y46579D02*
D03*
D53*
X83000Y40004D02*
D03*
Y71500D02*
D03*
D54*
X96142Y41622D02*
D03*
Y64378D02*
D03*
D55*
X109921Y70028D02*
D03*
Y35972D02*
D03*
D56*
X94173Y70028D02*
D03*
Y35972D02*
D03*
M02*
