M48
;Layer_Color=9474304
;FILE_FORMAT=2:5
INCH,TZ
;TYPE=PLATED
T1F00S00C0.01000
T3F00S00C0.02559
;TYPE=NON_PLATED
T4F00S00C0.03937
%
T01
X26000Y16500
X30000
X33500
X37000
X40500
X44000
X48000
X51500
X55000Y17000
X54000Y14500
X56000Y12000
Y8500
X55500Y22500
X51500Y29000
X49134Y37000
X46500Y36500
X42500Y37500
X36500Y36000
X35500Y29500
X29413Y27712
X26000Y25000
X26113Y42387
X32500Y42500
X36000Y46000
X34439Y48439
X36000Y54000
X34177Y56146
X26000Y58500
X28000Y63500
X49000Y53500
X54913Y49612
X58500Y58000
X81500
X85500Y60000
X84000Y65000
X78000Y37500
X74000Y39000
X70500Y40000
X68500Y37000
X65500Y38000
X67500Y30500
Y25500
Y20500
Y15500
X73000
Y20500
Y25500
Y30500
X80500Y31000
X78500Y25500
Y20500
Y15500
X83097Y14833
X81360Y12500
X77487Y8600
X63000Y29000
X56500Y37000
X49500Y40000
X44000Y23000
X90813Y23691
X90000Y19912
X88500Y12000
X90500Y6500
X95000Y13500
X93500Y27500
X101500Y24500
Y34500
X87500Y35000
X97000Y50000
X98000Y55000
X108500Y48500
X114000Y61000
X104500Y83000
X97000Y78000
X90500Y77000
X79000Y83500
X76000
X73000
Y86500
Y89500
X76000
X79000
Y86500
X76000Y86500
X61000Y86032
X65500Y72000
X56500Y71500
X46500Y70000
X34500Y73000
X25000Y73500
Y77000
X27500Y80500
X26500Y98500
X45000Y91500
X74500Y71000
T03
X96142Y41622
Y64378
T04
X83000Y40004
Y71500
M30
