G04*
G04 #@! TF.GenerationSoftware,Altium Limited,Altium Designer,20.0.13 (296)*
G04*
G04 Layer_Physical_Order=2*
G04 Layer_Color=16711680*
%FSLAX25Y25*%
%MOIN*%
G70*
G01*
G75*
%ADD10C,0.01000*%
G04:AMPARAMS|DCode=23|XSize=20mil|YSize=20mil|CornerRadius=5mil|HoleSize=0mil|Usage=FLASHONLY|Rotation=270.000|XOffset=0mil|YOffset=0mil|HoleType=Round|Shape=RoundedRectangle|*
%AMROUNDEDRECTD23*
21,1,0.02000,0.01000,0,0,270.0*
21,1,0.01000,0.02000,0,0,270.0*
1,1,0.01000,-0.00500,-0.00500*
1,1,0.01000,-0.00500,0.00500*
1,1,0.01000,0.00500,0.00500*
1,1,0.01000,0.00500,-0.00500*
%
%ADD23ROUNDEDRECTD23*%
%ADD57C,0.00400*%
%ADD58C,0.03937*%
%ADD59C,0.02559*%
%ADD60O,0.06299X0.03937*%
%ADD61O,0.08268X0.03937*%
%ADD62C,0.01600*%
%ADD63R,0.08661X0.08000*%
%ADD64R,0.05512X0.06299*%
%ADD65R,0.05512X0.04724*%
%ADD66R,0.07087X0.02756*%
G36*
X27702Y74819D02*
X27708Y74749D01*
X27718Y74687D01*
X27732Y74634D01*
X27750Y74589D01*
X27772Y74551D01*
X27798Y74523D01*
X27828Y74502D01*
X27862Y74490D01*
X27900Y74485D01*
X27100D01*
X27138Y74490D01*
X27172Y74502D01*
X27202Y74523D01*
X27228Y74551D01*
X27250Y74589D01*
X27268Y74634D01*
X27282Y74687D01*
X27292Y74749D01*
X27298Y74819D01*
X27300Y74897D01*
X27700D01*
X27702Y74819D01*
D02*
G37*
G36*
X25642Y73992D02*
X25781Y73876D01*
X25850Y73830D01*
X25919Y73790D01*
X25987Y73758D01*
X26054Y73732D01*
X26122Y73714D01*
X26188Y73704D01*
X26195Y73703D01*
X26251Y73708D01*
X26313Y73718D01*
X26366Y73732D01*
X26412Y73750D01*
X26449Y73772D01*
X26477Y73798D01*
X26498Y73828D01*
X26510Y73862D01*
X26515Y73900D01*
Y73100D01*
X26510Y73138D01*
X26498Y73172D01*
X26477Y73202D01*
X26449Y73228D01*
X26412Y73250D01*
X26366Y73268D01*
X26313Y73282D01*
X26251Y73292D01*
X26195Y73297D01*
X26188Y73296D01*
X26122Y73286D01*
X26054Y73268D01*
X25987Y73242D01*
X25919Y73210D01*
X25850Y73170D01*
X25781Y73124D01*
X25712Y73070D01*
X25642Y73008D01*
X25571Y72940D01*
Y74060D01*
X25642Y73992D01*
D02*
G37*
G36*
X32285Y72594D02*
X32225Y72527D01*
X32173Y72446D01*
X32127Y72352D01*
X32088Y72244D01*
X32056Y72123D01*
X32032Y71988D01*
X32014Y71840D01*
X32004Y71678D01*
X32000Y71502D01*
X31000D01*
X30997Y71678D01*
X30968Y71988D01*
X30944Y72123D01*
X30912Y72244D01*
X30873Y72352D01*
X30828Y72446D01*
X30775Y72527D01*
X30715Y72594D01*
X30648Y72648D01*
X32352D01*
X32285Y72594D01*
D02*
G37*
G36*
X32004Y69822D02*
X32032Y69512D01*
X32056Y69377D01*
X32088Y69256D01*
X32127Y69148D01*
X32173Y69054D01*
X32225Y68973D01*
X32285Y68906D01*
X32352Y68852D01*
X31783D01*
X30514Y67583D01*
X30570Y67660D01*
X30597Y67751D01*
X30596Y67857D01*
X30566Y67976D01*
X30509Y68111D01*
X30422Y68259D01*
X30308Y68422D01*
X30165Y68600D01*
X29795Y68998D01*
X30503Y69705D01*
X30709Y69505D01*
X30929Y69319D01*
X30944Y69377D01*
X30968Y69512D01*
X30986Y69660D01*
X30997Y69822D01*
X31000Y69998D01*
X32000D01*
X32004Y69822D01*
D02*
G37*
G36*
X37630Y68920D02*
X37628Y68923D01*
X37622Y68926D01*
X37611Y68929D01*
X37596Y68931D01*
X37552Y68935D01*
X37454Y68937D01*
X37413Y68938D01*
Y69338D01*
X37454Y69338D01*
X37622Y69349D01*
X37628Y69352D01*
X37630Y69355D01*
Y68920D01*
D02*
G37*
G36*
X26925Y100406D02*
X117575D01*
X117589Y100408D01*
X118317Y100313D01*
X119019Y100022D01*
X119622Y99559D01*
X120085Y98956D01*
X120376Y98254D01*
X120441Y97754D01*
X120406Y97575D01*
Y7000D01*
X120412Y6937D01*
X120412Y6937D01*
X120412Y6937D01*
X120313Y6183D01*
X120022Y5481D01*
X119559Y4878D01*
X118956Y4415D01*
X118254Y4124D01*
X117500Y4025D01*
Y4020D01*
X117500Y4019D01*
X56000D01*
X56000Y12500D01*
X52000Y16500D01*
X24020Y16500D01*
Y38142D01*
X24520Y38350D01*
X25798Y37072D01*
X25819Y37013D01*
X25826Y37009D01*
X25829Y37002D01*
X25881Y36947D01*
X25917Y36906D01*
X25944Y36871D01*
X25963Y36843D01*
X25975Y36823D01*
X25977Y36818D01*
X25978Y36809D01*
X25980Y36805D01*
Y36500D01*
X26058Y36110D01*
X26279Y35779D01*
X26610Y35558D01*
X27000Y35480D01*
X28000D01*
X28390Y35558D01*
X28721Y35779D01*
X28942Y36110D01*
X29020Y36500D01*
Y37324D01*
X29520Y37499D01*
X29756Y37245D01*
X29875Y37097D01*
X29966Y36968D01*
X29980Y36942D01*
Y36601D01*
X29973Y36583D01*
X29980Y36566D01*
Y36500D01*
X29981Y36499D01*
X29980Y36497D01*
X29981Y36495D01*
X30058Y36110D01*
X30279Y35779D01*
X30610Y35558D01*
X31000Y35480D01*
X32000D01*
X32178Y35516D01*
X32424Y35055D01*
X32083Y34714D01*
X30000D01*
X29727Y34659D01*
X29495Y34505D01*
X28150Y33159D01*
X28086Y33134D01*
X28018Y33068D01*
X27967Y33023D01*
X27962Y33020D01*
X27949D01*
X27932Y33027D01*
X27915Y33020D01*
X27854D01*
X27850Y33020D01*
X27848Y33020D01*
X27000D01*
X26610Y32942D01*
X26279Y32721D01*
X26058Y32390D01*
X25980Y32000D01*
Y31000D01*
X26058Y30610D01*
X26279Y30279D01*
X26610Y30058D01*
X27000Y29980D01*
X28000D01*
X28390Y30058D01*
X28721Y30279D01*
X28942Y30610D01*
X29020Y31000D01*
Y31848D01*
X29021Y31850D01*
X29020Y31853D01*
Y31914D01*
X29027Y31932D01*
X29020Y31949D01*
Y31959D01*
X29074Y32023D01*
X29134Y32086D01*
X29160Y32150D01*
X29444Y32434D01*
X29554Y32419D01*
X29980Y32000D01*
Y31000D01*
X30058Y30610D01*
X30279Y30279D01*
X30074Y29815D01*
X29516Y29257D01*
X29466Y29237D01*
X29298Y29077D01*
X29227Y29016D01*
X29212Y29004D01*
X29208Y29002D01*
X29197Y28996D01*
X29196Y28994D01*
X28905Y28936D01*
X28475Y28649D01*
X28188Y28219D01*
X28087Y27712D01*
X28188Y27205D01*
X28353Y26958D01*
X28353Y26956D01*
X28354Y26953D01*
X28371Y26679D01*
X28372Y26604D01*
X28393Y26553D01*
Y24323D01*
X27893Y24116D01*
X27452Y24557D01*
X27431Y24616D01*
X27406Y24644D01*
X27400Y24653D01*
X27391Y24667D01*
X27382Y24688D01*
X27372Y24716D01*
X27362Y24753D01*
X27355Y24791D01*
X27342Y24923D01*
X27341Y25000D01*
X27312Y25067D01*
X27225Y25507D01*
X26937Y25937D01*
X26507Y26225D01*
X26000Y26326D01*
X25493Y26225D01*
X25063Y25937D01*
X24775Y25507D01*
X24675Y25000D01*
X24775Y24493D01*
X25063Y24063D01*
X25493Y23775D01*
X25933Y23688D01*
X26000Y23659D01*
X26085Y23658D01*
X26147Y23654D01*
X26201Y23647D01*
X26247Y23638D01*
X26284Y23628D01*
X26312Y23618D01*
X26333Y23609D01*
X26347Y23600D01*
X26356Y23594D01*
X26384Y23569D01*
X26443Y23548D01*
X31895Y18095D01*
X32127Y17941D01*
X32400Y17886D01*
X53473D01*
X53751Y17386D01*
X53675Y17000D01*
X53775Y16493D01*
X54063Y16063D01*
X54493Y15775D01*
X54933Y15688D01*
X55000Y15659D01*
X55085Y15658D01*
X55147Y15654D01*
X55201Y15647D01*
X55247Y15638D01*
X55284Y15628D01*
X55312Y15618D01*
X55333Y15609D01*
X55347Y15600D01*
X55356Y15594D01*
X55384Y15569D01*
X55443Y15548D01*
X62895Y8095D01*
X63127Y7941D01*
X63400Y7886D01*
X76148D01*
X76203Y7860D01*
X76241Y7858D01*
X76252Y7856D01*
X76268Y7852D01*
X76290Y7843D01*
X76317Y7831D01*
X76350Y7812D01*
X76381Y7790D01*
X76484Y7705D01*
X76539Y7652D01*
X76607Y7625D01*
X76980Y7375D01*
X77487Y7275D01*
X77995Y7375D01*
X78425Y7663D01*
X78712Y8093D01*
X78813Y8600D01*
X79210Y9039D01*
X79469Y9066D01*
X82540Y5995D01*
X82771Y5841D01*
X83044Y5786D01*
X89160D01*
X89216Y5760D01*
X89254Y5758D01*
X89265Y5756D01*
X89281Y5751D01*
X89302Y5743D01*
X89329Y5731D01*
X89362Y5711D01*
X89394Y5690D01*
X89497Y5605D01*
X89551Y5552D01*
X89619Y5525D01*
X89993Y5275D01*
X90500Y5175D01*
X91007Y5275D01*
X91437Y5563D01*
X91725Y5993D01*
X91825Y6500D01*
X91725Y7007D01*
X91437Y7437D01*
X91007Y7725D01*
X90500Y7825D01*
X89993Y7725D01*
X89619Y7475D01*
X89551Y7448D01*
X89491Y7389D01*
X89444Y7348D01*
X89401Y7314D01*
X89362Y7288D01*
X89329Y7269D01*
X89302Y7256D01*
X89281Y7248D01*
X89265Y7244D01*
X89254Y7242D01*
X89216Y7240D01*
X89160Y7214D01*
X83384D01*
X83138Y7517D01*
X83340Y7980D01*
X89000D01*
X89390Y8058D01*
X89721Y8279D01*
X93901Y12459D01*
X94116Y12454D01*
X94209Y12447D01*
X94228Y12444D01*
X94233Y12443D01*
X94244Y12440D01*
X94246Y12440D01*
X94493Y12275D01*
X95000Y12174D01*
X95507Y12275D01*
X95937Y12563D01*
X96225Y12993D01*
X96325Y13500D01*
X96225Y14007D01*
X95937Y14437D01*
X95507Y14725D01*
X95000Y14826D01*
X94493Y14725D01*
X94246Y14560D01*
X94244Y14560D01*
X94241Y14559D01*
X93967Y14542D01*
X93892Y14541D01*
X93841Y14520D01*
X93500D01*
X93110Y14442D01*
X92779Y14221D01*
X90280Y11722D01*
X89819Y11968D01*
X89825Y12000D01*
X89725Y12507D01*
X89475Y12881D01*
X89448Y12949D01*
X89389Y13009D01*
X89348Y13056D01*
X89314Y13099D01*
X89289Y13138D01*
X89269Y13171D01*
X89257Y13198D01*
X89249Y13219D01*
X89244Y13235D01*
X89242Y13246D01*
X89240Y13284D01*
X89214Y13340D01*
Y18318D01*
X89714Y18643D01*
X90000Y18586D01*
X90507Y18687D01*
X90881Y18937D01*
X90949Y18964D01*
X91009Y19023D01*
X91056Y19064D01*
X91099Y19097D01*
X91138Y19123D01*
X91171Y19142D01*
X91198Y19155D01*
X91219Y19163D01*
X91235Y19168D01*
X91246Y19170D01*
X91284Y19172D01*
X91340Y19198D01*
X99033D01*
X99306Y19252D01*
X99538Y19407D01*
X114317Y34187D01*
X114472Y34418D01*
X114526Y34691D01*
Y51712D01*
X114472Y51985D01*
X114317Y52217D01*
X104029Y62505D01*
X103798Y62659D01*
X103525Y62714D01*
X97686D01*
X97504Y63214D01*
X97818Y63684D01*
X97956Y64378D01*
X97818Y65072D01*
X97425Y65661D01*
X96836Y66054D01*
X96142Y66192D01*
X95447Y66054D01*
X94859Y65661D01*
X94465Y65072D01*
X94327Y64378D01*
X94465Y63684D01*
X94779Y63214D01*
X94598Y62714D01*
X48500D01*
X48227Y62659D01*
X47995Y62505D01*
X46681Y61190D01*
X45205D01*
Y62354D01*
X37118D01*
Y61190D01*
X35319D01*
X30566Y65944D01*
X30581Y66054D01*
X31000Y66480D01*
X32000D01*
X32390Y66558D01*
X32721Y66779D01*
X32942Y67110D01*
X33020Y67500D01*
Y68500D01*
X32942Y68890D01*
X32772Y69145D01*
X32735Y69234D01*
X32706Y69246D01*
X32691Y69274D01*
X32660Y69299D01*
X32656Y69302D01*
X32644Y69321D01*
X32626Y69358D01*
X32606Y69416D01*
X32585Y69494D01*
X32568Y69585D01*
X32544Y69852D01*
X32541Y70008D01*
X32520Y70057D01*
Y71442D01*
X32541Y71491D01*
X32544Y71655D01*
X32553Y71790D01*
X32567Y71907D01*
X32585Y72006D01*
X32606Y72084D01*
X32626Y72142D01*
X32644Y72179D01*
X32656Y72198D01*
X32660Y72201D01*
X32691Y72226D01*
X32706Y72254D01*
X32735Y72265D01*
X32772Y72355D01*
X32942Y72610D01*
X33020Y73000D01*
Y74000D01*
X32942Y74390D01*
X32721Y74721D01*
X32623Y74786D01*
X32775Y75286D01*
X33929D01*
X36199Y73016D01*
Y69638D01*
X36253Y69365D01*
X36408Y69133D01*
X36908Y68633D01*
X37118Y68493D01*
Y67260D01*
X45205D01*
Y71016D01*
X37626D01*
Y71591D01*
X45205D01*
Y75346D01*
X37118D01*
Y74769D01*
X36656Y74577D01*
X34729Y76505D01*
X34498Y76659D01*
X34225Y76714D01*
X28500D01*
X28227Y76659D01*
X27995Y76505D01*
X26995Y75505D01*
X26841Y75273D01*
X26786Y75000D01*
Y74977D01*
X26610Y74942D01*
X26279Y74721D01*
X25953Y74452D01*
X25659Y74624D01*
X25507Y74725D01*
X25000Y74826D01*
X24520Y74730D01*
X24486Y74729D01*
X24020Y75010D01*
Y97247D01*
X24083Y97563D01*
X24088D01*
X24187Y98317D01*
X24478Y99019D01*
X24941Y99622D01*
X25544Y100085D01*
X26246Y100376D01*
X26745Y100441D01*
X26925Y100406D01*
D02*
G37*
G36*
X28464Y67538D02*
X28453Y67503D01*
X28452Y67463D01*
X28462Y67418D01*
X28483Y67368D01*
X28514Y67312D01*
X28556Y67251D01*
X28608Y67185D01*
X28671Y67114D01*
X28745Y67038D01*
X28462Y66755D01*
X28386Y66829D01*
X28249Y66944D01*
X28188Y66986D01*
X28132Y67017D01*
X28082Y67038D01*
X28036Y67048D01*
X27997Y67047D01*
X27962Y67036D01*
X27932Y67014D01*
X28486Y67568D01*
X28464Y67538D01*
D02*
G37*
G36*
X44685Y60838D02*
X44697Y60804D01*
X44718Y60774D01*
X44747Y60748D01*
X44784Y60726D01*
X44829Y60708D01*
X44883Y60694D01*
X44945Y60684D01*
X45015Y60678D01*
X45093Y60676D01*
Y60276D01*
X45015Y60274D01*
X44945Y60268D01*
X44883Y60258D01*
X44829Y60244D01*
X44784Y60226D01*
X44747Y60204D01*
X44718Y60178D01*
X44697Y60148D01*
X44685Y60114D01*
X44681Y60076D01*
Y60876D01*
X44685Y60838D01*
D02*
G37*
G36*
X37630Y60076D02*
X37626Y60114D01*
X37614Y60148D01*
X37594Y60178D01*
X37566Y60204D01*
X37530Y60226D01*
X37486Y60244D01*
X37434Y60258D01*
X37374Y60268D01*
X37306Y60274D01*
X37230Y60276D01*
Y60676D01*
X37306Y60678D01*
X37374Y60684D01*
X37434Y60694D01*
X37486Y60708D01*
X37530Y60726D01*
X37566Y60748D01*
X37594Y60774D01*
X37614Y60804D01*
X37626Y60838D01*
X37630Y60876D01*
Y60076D01*
D02*
G37*
G36*
X84929Y59440D02*
X84913Y59451D01*
X84888Y59462D01*
X84856Y59471D01*
X84815Y59478D01*
X84766Y59485D01*
X84643Y59495D01*
X84395Y59500D01*
Y60500D01*
X84486Y60501D01*
X84815Y60522D01*
X84856Y60529D01*
X84888Y60538D01*
X84913Y60549D01*
X84929Y60560D01*
Y59440D01*
D02*
G37*
G36*
X27000Y66480D02*
X27848D01*
X27850Y66479D01*
X27854Y66480D01*
X27915D01*
X27932Y66473D01*
X27949Y66480D01*
X27959D01*
X28023Y66427D01*
X28086Y66366D01*
X28150Y66341D01*
X34519Y59972D01*
X34751Y59817D01*
X35024Y59763D01*
X37118D01*
Y58598D01*
X45205D01*
Y59763D01*
X46976D01*
X47249Y59817D01*
X47481Y59972D01*
X48796Y61286D01*
X82725D01*
X82877Y60786D01*
X82779Y60721D01*
X81603Y59545D01*
X81553Y59526D01*
X81385Y59365D01*
X81314Y59304D01*
X81299Y59292D01*
X81295Y59290D01*
X81285Y59284D01*
X81284Y59282D01*
X80993Y59225D01*
X80746Y59060D01*
X80744Y59060D01*
X80741Y59059D01*
X80467Y59042D01*
X80392Y59041D01*
X80341Y59020D01*
X62000D01*
X61610Y58942D01*
X61279Y58721D01*
X60280Y57722D01*
X59819Y57968D01*
X59825Y58000D01*
X59725Y58507D01*
X59437Y58937D01*
X59007Y59225D01*
X58500Y59325D01*
X57993Y59225D01*
X57563Y58937D01*
X57275Y58507D01*
X57218Y58216D01*
X57216Y58215D01*
X57214Y58213D01*
X57033Y58006D01*
X56980Y57953D01*
X56959Y57901D01*
X56223Y57165D01*
X45755D01*
X45707Y57187D01*
X45531Y57191D01*
X45396Y57203D01*
X45291Y57220D01*
X45217Y57240D01*
X45205Y57245D01*
Y58024D01*
X37118D01*
Y57250D01*
X37117Y57247D01*
X37097Y57239D01*
X37025Y57220D01*
X36922Y57203D01*
X36789Y57191D01*
X36616Y57187D01*
X36568Y57165D01*
X35342D01*
X35293Y57187D01*
X35061Y57192D01*
X34968Y57199D01*
X34949Y57201D01*
X34944Y57202D01*
X34933Y57205D01*
X34931Y57205D01*
X34684Y57370D01*
X34177Y57471D01*
X33670Y57370D01*
X33423Y57205D01*
X33421Y57205D01*
X33418Y57205D01*
X33144Y57187D01*
X33069Y57187D01*
X33018Y57165D01*
X31735D01*
X26432Y62468D01*
Y66121D01*
X26932Y66494D01*
X27000Y66480D01*
D02*
G37*
G36*
X113099Y51416D02*
Y34987D01*
X103183Y25071D01*
X102599Y25195D01*
X102560Y25254D01*
X102560Y25256D01*
X102559Y25259D01*
X102542Y25533D01*
X102541Y25608D01*
X102520Y25659D01*
Y33335D01*
X102541Y33384D01*
X102546Y33616D01*
X102553Y33709D01*
X102556Y33728D01*
X102557Y33733D01*
X102560Y33744D01*
X102560Y33746D01*
X102725Y33993D01*
X102825Y34500D01*
X102725Y35007D01*
X102437Y35437D01*
X102007Y35725D01*
X101500Y35825D01*
X100993Y35725D01*
X100563Y35437D01*
X100275Y35007D01*
X100174Y34500D01*
X100275Y33993D01*
X100440Y33746D01*
X100440Y33744D01*
X100441Y33741D01*
X100458Y33467D01*
X100459Y33392D01*
X100480Y33341D01*
Y25665D01*
X100459Y25616D01*
X100454Y25384D01*
X100447Y25291D01*
X100444Y25272D01*
X100443Y25267D01*
X100440Y25256D01*
X100440Y25254D01*
X100275Y25007D01*
X100174Y24500D01*
X100275Y23993D01*
X100563Y23563D01*
X100805Y23401D01*
X100929Y22817D01*
X98738Y20626D01*
X91340D01*
X91284Y20652D01*
X91246Y20654D01*
X91235Y20656D01*
X91219Y20660D01*
X91198Y20668D01*
X91171Y20681D01*
X91138Y20700D01*
X91106Y20722D01*
X91003Y20807D01*
X90949Y20860D01*
X90881Y20887D01*
X90507Y21136D01*
X90000Y21237D01*
X89714Y21180D01*
X89214Y21506D01*
Y22844D01*
X89714Y22996D01*
X89875Y22754D01*
X90305Y22466D01*
X90813Y22366D01*
X91320Y22466D01*
X91750Y22754D01*
X92037Y23184D01*
X92138Y23691D01*
X92037Y24198D01*
X91788Y24572D01*
X91761Y24640D01*
X91702Y24700D01*
X91661Y24747D01*
X91627Y24790D01*
X91601Y24828D01*
X91582Y24861D01*
X91569Y24889D01*
X91561Y24910D01*
X91557Y24926D01*
X91555Y24937D01*
X91553Y24975D01*
X91526Y25030D01*
Y32704D01*
X91472Y32977D01*
X91317Y33209D01*
X90053Y34473D01*
Y43031D01*
X89999Y43304D01*
X89844Y43536D01*
X87875Y45505D01*
X87643Y45659D01*
X87370Y45714D01*
X64720D01*
X58242Y52192D01*
X58221Y52694D01*
X58263Y52821D01*
X62422Y56980D01*
X80335D01*
X80384Y56959D01*
X80616Y56954D01*
X80709Y56947D01*
X80728Y56944D01*
X80733Y56943D01*
X80744Y56940D01*
X80746Y56940D01*
X80993Y56775D01*
X81500Y56674D01*
X82007Y56775D01*
X82437Y57063D01*
X82725Y57493D01*
X82782Y57784D01*
X82784Y57785D01*
X82785Y57788D01*
X82967Y57994D01*
X83020Y58047D01*
X83041Y58099D01*
X83922Y58980D01*
X84335D01*
X84384Y58959D01*
X84616Y58954D01*
X84709Y58947D01*
X84728Y58944D01*
X84733Y58943D01*
X84744Y58940D01*
X84746Y58940D01*
X84993Y58775D01*
X85500Y58675D01*
X86007Y58775D01*
X86437Y59063D01*
X86725Y59493D01*
X86826Y60000D01*
X86725Y60507D01*
X86538Y60786D01*
X86735Y61260D01*
X86760Y61286D01*
X103229D01*
X113099Y51416D01*
D02*
G37*
G36*
X82635Y58427D02*
X82571Y58363D01*
X82353Y58115D01*
X82330Y58081D01*
X82313Y58052D01*
X82303Y58027D01*
X82300Y58008D01*
X81508Y58800D01*
X81527Y58803D01*
X81552Y58813D01*
X81581Y58830D01*
X81615Y58853D01*
X81655Y58883D01*
X81749Y58964D01*
X81927Y59135D01*
X82635Y58427D01*
D02*
G37*
G36*
X80929Y57440D02*
X80913Y57451D01*
X80888Y57462D01*
X80856Y57471D01*
X80815Y57478D01*
X80766Y57485D01*
X80643Y57495D01*
X80396Y57500D01*
Y58500D01*
X80486Y58501D01*
X80815Y58522D01*
X80856Y58529D01*
X80888Y58538D01*
X80913Y58549D01*
X80929Y58560D01*
Y57440D01*
D02*
G37*
G36*
X58492Y57200D02*
X58473Y57197D01*
X58448Y57187D01*
X58419Y57170D01*
X58385Y57147D01*
X58345Y57117D01*
X58251Y57036D01*
X58073Y56865D01*
X57365Y57573D01*
X57429Y57637D01*
X57647Y57885D01*
X57670Y57919D01*
X57687Y57948D01*
X57697Y57973D01*
X57700Y57992D01*
X58492Y57200D01*
D02*
G37*
G36*
X34764Y56694D02*
X34789Y56684D01*
X34821Y56675D01*
X34862Y56667D01*
X34911Y56660D01*
X35034Y56651D01*
X35282Y56646D01*
Y55646D01*
X35191Y55645D01*
X34862Y55624D01*
X34821Y55616D01*
X34789Y55607D01*
X34764Y55597D01*
X34748Y55585D01*
Y56705D01*
X34764Y56694D01*
D02*
G37*
G36*
X33606Y55585D02*
X33590Y55597D01*
X33566Y55607D01*
X33533Y55616D01*
X33492Y55624D01*
X33443Y55630D01*
X33320Y55640D01*
X33073Y55646D01*
Y56646D01*
X33163Y56646D01*
X33492Y56667D01*
X33533Y56675D01*
X33566Y56684D01*
X33590Y56694D01*
X33606Y56705D01*
Y55585D01*
D02*
G37*
G36*
X44691Y57051D02*
X44721Y56966D01*
X44772Y56890D01*
X44843Y56826D01*
X44934Y56770D01*
X45045Y56726D01*
X45177Y56691D01*
X45329Y56665D01*
X45501Y56651D01*
X45693Y56646D01*
Y55646D01*
X45501Y55641D01*
X45329Y55625D01*
X45177Y55601D01*
X45045Y55566D01*
X44934Y55520D01*
X44843Y55466D01*
X44772Y55401D01*
X44721Y55326D01*
X44691Y55240D01*
X44681Y55146D01*
Y57146D01*
X44691Y57051D01*
D02*
G37*
G36*
X37630Y55146D02*
X37620Y55240D01*
X37590Y55326D01*
X37540Y55401D01*
X37470Y55466D01*
X37380Y55520D01*
X37270Y55566D01*
X37140Y55601D01*
X36990Y55625D01*
X36820Y55641D01*
X36630Y55646D01*
Y56646D01*
X36820Y56651D01*
X36990Y56665D01*
X37140Y56691D01*
X37270Y56726D01*
X37380Y56770D01*
X37470Y56826D01*
X37540Y56890D01*
X37590Y56966D01*
X37620Y57051D01*
X37630Y57146D01*
Y55146D01*
D02*
G37*
G36*
X49587Y54049D02*
X49611Y54038D01*
X49644Y54029D01*
X49685Y54022D01*
X49734Y54015D01*
X49857Y54005D01*
X50104Y54000D01*
Y53000D01*
X50014Y52999D01*
X49685Y52978D01*
X49644Y52971D01*
X49611Y52962D01*
X49587Y52951D01*
X49571Y52940D01*
Y54060D01*
X49587Y54049D01*
D02*
G37*
G36*
X24692Y61325D02*
X30592Y55425D01*
X30922Y55203D01*
X31313Y55126D01*
X33012D01*
X33061Y55104D01*
X33293Y55099D01*
X33386Y55092D01*
X33405Y55089D01*
X33410Y55089D01*
X33421Y55085D01*
X33423Y55086D01*
X33670Y54921D01*
X34177Y54820D01*
X34684Y54921D01*
X34931Y55086D01*
X34933Y55085D01*
X34936Y55086D01*
X35210Y55104D01*
X35285Y55104D01*
X35336Y55126D01*
X36568D01*
X36616Y55105D01*
X36789Y55100D01*
X36922Y55088D01*
X37025Y55071D01*
X37097Y55052D01*
X37117Y55044D01*
X37118Y55041D01*
Y54268D01*
X45205D01*
Y55046D01*
X45217Y55051D01*
X45291Y55071D01*
X45396Y55088D01*
X45531Y55100D01*
X45707Y55105D01*
X45755Y55126D01*
X48193D01*
X48345Y54626D01*
X48063Y54437D01*
X47775Y54007D01*
X47675Y53500D01*
X47768Y53029D01*
X47765Y52977D01*
X47484Y52529D01*
X45205D01*
Y53693D01*
X37118D01*
Y52529D01*
X27815D01*
X27542Y52474D01*
X27310Y52320D01*
X24520Y49529D01*
X24020Y49736D01*
Y61499D01*
X24211Y61565D01*
X24520Y61582D01*
X24692Y61325D01*
D02*
G37*
G36*
X44685Y52177D02*
X44697Y52143D01*
X44718Y52113D01*
X44747Y52087D01*
X44784Y52065D01*
X44829Y52047D01*
X44883Y52033D01*
X44945Y52023D01*
X45015Y52017D01*
X45093Y52015D01*
Y51615D01*
X45015Y51613D01*
X44945Y51607D01*
X44883Y51597D01*
X44829Y51583D01*
X44784Y51565D01*
X44747Y51543D01*
X44718Y51517D01*
X44697Y51487D01*
X44685Y51453D01*
X44681Y51415D01*
Y52215D01*
X44685Y52177D01*
D02*
G37*
G36*
X37630Y51415D02*
X37626Y51453D01*
X37614Y51487D01*
X37594Y51517D01*
X37566Y51543D01*
X37530Y51565D01*
X37486Y51583D01*
X37434Y51597D01*
X37374Y51607D01*
X37306Y51613D01*
X37230Y51615D01*
Y52015D01*
X37306Y52017D01*
X37374Y52023D01*
X37434Y52033D01*
X37486Y52047D01*
X37530Y52065D01*
X37566Y52087D01*
X37594Y52113D01*
X37614Y52143D01*
X37626Y52177D01*
X37630Y52215D01*
Y51415D01*
D02*
G37*
G36*
X54341Y49052D02*
X54271Y49120D01*
X54132Y49235D01*
X54063Y49282D01*
X53994Y49322D01*
X53926Y49354D01*
X53858Y49380D01*
X53791Y49398D01*
X53724Y49408D01*
X53658Y49412D01*
Y49812D01*
X53724Y49815D01*
X53791Y49826D01*
X53858Y49844D01*
X53926Y49869D01*
X53994Y49902D01*
X54063Y49942D01*
X54132Y49988D01*
X54201Y50042D01*
X54271Y50103D01*
X54341Y50172D01*
Y49052D01*
D02*
G37*
G36*
X35468Y49185D02*
X35424Y49136D01*
X35384Y49081D01*
X35349Y49020D01*
X35319Y48955D01*
X35294Y48884D01*
X35274Y48807D01*
X35258Y48726D01*
X35247Y48638D01*
X35241Y48545D01*
X35239Y48447D01*
X34447Y49239D01*
X34545Y49241D01*
X34725Y49258D01*
X34807Y49273D01*
X34884Y49294D01*
X34955Y49319D01*
X35021Y49349D01*
X35081Y49384D01*
X35136Y49424D01*
X35185Y49468D01*
X35468Y49185D01*
D02*
G37*
G36*
X44685Y47773D02*
X44697Y47743D01*
X44716Y47716D01*
X44743Y47693D01*
X44778Y47674D01*
X44821Y47658D01*
X44872Y47645D01*
X44930Y47636D01*
X44997Y47631D01*
X45071Y47629D01*
Y47229D01*
X44997Y47228D01*
X44930Y47222D01*
X44872Y47213D01*
X44821Y47201D01*
X44778Y47185D01*
X44743Y47165D01*
X44716Y47142D01*
X44697Y47116D01*
X44685Y47085D01*
X44681Y47052D01*
Y47807D01*
X44685Y47773D01*
D02*
G37*
G36*
X26916Y42360D02*
X26926Y42336D01*
X26942Y42306D01*
X26966Y42272D01*
X26996Y42232D01*
X27076Y42138D01*
X27247Y41960D01*
X26540Y41253D01*
X26476Y41317D01*
X26228Y41534D01*
X26194Y41558D01*
X26164Y41574D01*
X26140Y41584D01*
X26121Y41587D01*
X26913Y42379D01*
X26916Y42360D01*
D02*
G37*
G36*
X50142Y40492D02*
X50281Y40376D01*
X50350Y40330D01*
X50419Y40290D01*
X50487Y40258D01*
X50554Y40232D01*
X50621Y40214D01*
X50688Y40204D01*
X50755Y40200D01*
Y39800D01*
X50688Y39796D01*
X50621Y39786D01*
X50554Y39768D01*
X50487Y39742D01*
X50419Y39710D01*
X50350Y39670D01*
X50281Y39624D01*
X50212Y39570D01*
X50142Y39508D01*
X50071Y39440D01*
Y40560D01*
X50142Y40492D01*
D02*
G37*
G36*
X81970Y42537D02*
X81973Y42286D01*
X81220Y41784D01*
X80675Y40967D01*
X80483Y40004D01*
X80675Y39041D01*
X80285Y38725D01*
X79505Y39505D01*
X79273Y39659D01*
X79000Y39714D01*
X75340D01*
X75284Y39740D01*
X75246Y39742D01*
X75235Y39744D01*
X75219Y39748D01*
X75198Y39757D01*
X75171Y39769D01*
X75138Y39788D01*
X75106Y39810D01*
X75003Y39895D01*
X74949Y39948D01*
X74881Y39975D01*
X74507Y40225D01*
X74000Y40325D01*
X73493Y40225D01*
X73063Y39937D01*
X72775Y39507D01*
X72675Y39000D01*
X72775Y38493D01*
X73063Y38063D01*
X73493Y37775D01*
X74000Y37674D01*
X74507Y37775D01*
X74881Y38025D01*
X74949Y38052D01*
X75009Y38111D01*
X75056Y38152D01*
X75099Y38186D01*
X75138Y38212D01*
X75171Y38231D01*
X75198Y38243D01*
X75219Y38252D01*
X75235Y38256D01*
X75246Y38258D01*
X75284Y38260D01*
X75340Y38286D01*
X76406D01*
X76731Y37786D01*
X76674Y37500D01*
X76775Y36993D01*
X77063Y36563D01*
X77297Y36406D01*
X77312Y36370D01*
X77341Y36227D01*
X77495Y35995D01*
X80432Y33059D01*
X80405Y32651D01*
X80359Y32552D01*
X80297Y32487D01*
X80007Y32502D01*
X80005Y32505D01*
X79773Y32659D01*
X79500Y32714D01*
X76296D01*
X68505Y40505D01*
X68273Y40659D01*
X68000Y40714D01*
X50840D01*
X50784Y40740D01*
X50746Y40742D01*
X50735Y40744D01*
X50719Y40749D01*
X50698Y40756D01*
X50671Y40769D01*
X50638Y40788D01*
X50606Y40810D01*
X50503Y40895D01*
X50449Y40948D01*
X50381Y40975D01*
X50195Y41099D01*
X50071Y41683D01*
X51174Y42786D01*
X81889D01*
X81970Y42537D01*
D02*
G37*
G36*
X74642Y39492D02*
X74781Y39376D01*
X74850Y39330D01*
X74919Y39290D01*
X74987Y39258D01*
X75054Y39232D01*
X75121Y39214D01*
X75188Y39204D01*
X75255Y39200D01*
Y38800D01*
X75188Y38796D01*
X75121Y38786D01*
X75054Y38768D01*
X74987Y38742D01*
X74919Y38710D01*
X74850Y38670D01*
X74781Y38624D01*
X74712Y38570D01*
X74642Y38508D01*
X74571Y38440D01*
Y39560D01*
X74642Y39492D01*
D02*
G37*
G36*
X64929Y37440D02*
X64858Y37508D01*
X64719Y37624D01*
X64650Y37670D01*
X64581Y37710D01*
X64513Y37742D01*
X64446Y37768D01*
X64378Y37786D01*
X64312Y37796D01*
X64245Y37800D01*
Y38200D01*
X64312Y38204D01*
X64378Y38214D01*
X64446Y38232D01*
X64513Y38258D01*
X64581Y38290D01*
X64650Y38330D01*
X64719Y38376D01*
X64788Y38430D01*
X64858Y38492D01*
X64929Y38560D01*
Y37440D01*
D02*
G37*
G36*
X43142Y37992D02*
X43281Y37876D01*
X43350Y37830D01*
X43419Y37790D01*
X43487Y37758D01*
X43554Y37732D01*
X43622Y37714D01*
X43688Y37704D01*
X43755Y37700D01*
Y37300D01*
X43688Y37296D01*
X43622Y37286D01*
X43554Y37268D01*
X43487Y37242D01*
X43419Y37210D01*
X43350Y37170D01*
X43281Y37124D01*
X43212Y37070D01*
X43142Y37008D01*
X43071Y36940D01*
Y38060D01*
X43142Y37992D01*
D02*
G37*
G36*
X26315Y37850D02*
X26377Y37796D01*
X26432Y37755D01*
X26481Y37727D01*
X26523Y37710D01*
X26559Y37706D01*
X26588Y37714D01*
X26610Y37734D01*
X26627Y37767D01*
X26636Y37812D01*
X26515Y36810D01*
X26517Y36860D01*
X26512Y36910D01*
X26500Y36963D01*
X26481Y37017D01*
X26456Y37073D01*
X26422Y37130D01*
X26382Y37189D01*
X26335Y37250D01*
X26281Y37312D01*
X26220Y37376D01*
X26246Y37915D01*
X26315Y37850D01*
D02*
G37*
G36*
X75495Y31495D02*
X75727Y31341D01*
X76000Y31286D01*
X79127D01*
X79128Y31284D01*
X79138Y31247D01*
X79145Y31209D01*
X79158Y31077D01*
X79159Y31000D01*
X79188Y30933D01*
X79275Y30493D01*
X79563Y30063D01*
X79993Y29775D01*
X80500Y29675D01*
X81007Y29775D01*
X81437Y30063D01*
X81725Y30493D01*
X81818Y30965D01*
X81956Y31054D01*
X82297Y31194D01*
X86286Y27204D01*
Y16296D01*
X85537Y15546D01*
X84437D01*
X84381Y15573D01*
X84343Y15575D01*
X84332Y15577D01*
X84316Y15581D01*
X84295Y15589D01*
X84268Y15602D01*
X84235Y15621D01*
X84203Y15643D01*
X84100Y15728D01*
X84046Y15781D01*
X83978Y15808D01*
X83604Y16057D01*
X83097Y16158D01*
X82590Y16057D01*
X82160Y15770D01*
X81872Y15340D01*
X81772Y14833D01*
X81872Y14325D01*
X81944Y14219D01*
X81643Y13769D01*
X81360Y13826D01*
X80852Y13725D01*
X80479Y13475D01*
X80411Y13448D01*
X80351Y13389D01*
X80303Y13348D01*
X80260Y13314D01*
X80222Y13288D01*
X80189Y13269D01*
X80162Y13257D01*
X80141Y13249D01*
X80125Y13244D01*
X80113Y13242D01*
X80076Y13240D01*
X80020Y13214D01*
X65796D01*
X57914Y21095D01*
X58121Y21595D01*
X60115D01*
X60505Y21673D01*
X60836Y21894D01*
X63721Y24779D01*
X63942Y25110D01*
X64020Y25500D01*
Y27835D01*
X64041Y27884D01*
X64046Y28116D01*
X64053Y28209D01*
X64056Y28228D01*
X64057Y28233D01*
X64060Y28244D01*
X64060Y28246D01*
X64225Y28493D01*
X64325Y29000D01*
X64225Y29507D01*
X63937Y29937D01*
X63507Y30225D01*
X63000Y30325D01*
X62493Y30225D01*
X62063Y29937D01*
X61775Y29507D01*
X61674Y29000D01*
X61775Y28493D01*
X61940Y28246D01*
X61940Y28244D01*
X61941Y28241D01*
X61958Y27967D01*
X61959Y27892D01*
X61980Y27841D01*
Y25922D01*
X59693Y23634D01*
X56548D01*
X56498Y23656D01*
X56198Y23659D01*
X56097Y23664D01*
X56007Y23725D01*
X55500Y23825D01*
X54993Y23725D01*
X54563Y23437D01*
X54401Y23195D01*
X53817Y23071D01*
X47490Y29398D01*
X47259Y29552D01*
X46986Y29607D01*
X40903D01*
X36306Y34203D01*
X36446Y34544D01*
X36535Y34681D01*
X37007Y34775D01*
X37381Y35025D01*
X37449Y35052D01*
X37509Y35111D01*
X37556Y35152D01*
X37599Y35186D01*
X37638Y35212D01*
X37671Y35231D01*
X37698Y35243D01*
X37719Y35252D01*
X37735Y35256D01*
X37746Y35258D01*
X37784Y35260D01*
X37840Y35286D01*
X44272D01*
X46490Y33068D01*
X46722Y32913D01*
X46995Y32859D01*
X57674D01*
X57947Y32913D01*
X58178Y33068D01*
X62396Y37286D01*
X64160D01*
X64216Y37260D01*
X64254Y37258D01*
X64265Y37256D01*
X64281Y37251D01*
X64302Y37244D01*
X64329Y37231D01*
X64362Y37211D01*
X64394Y37190D01*
X64497Y37105D01*
X64551Y37052D01*
X64619Y37025D01*
X64993Y36775D01*
X65500Y36674D01*
X66007Y36775D01*
X66437Y37063D01*
X66725Y37493D01*
X66825Y38000D01*
X66725Y38507D01*
X66538Y38786D01*
X66736Y39260D01*
X66760Y39286D01*
X67704D01*
X75495Y31495D01*
D02*
G37*
G36*
X30709Y38505D02*
X31078Y38192D01*
X31241Y38078D01*
X31389Y37991D01*
X31524Y37934D01*
X31644Y37904D01*
X31749Y37903D01*
X31840Y37930D01*
X31917Y37986D01*
X30514Y36583D01*
X30570Y36660D01*
X30597Y36751D01*
X30596Y36856D01*
X30566Y36976D01*
X30509Y37111D01*
X30422Y37259D01*
X30308Y37422D01*
X30165Y37600D01*
X29795Y37997D01*
X30503Y38705D01*
X30709Y38505D01*
D02*
G37*
G36*
X78227Y36731D02*
X78221Y36722D01*
X78216Y36709D01*
X78212Y36692D01*
X78208Y36671D01*
X78205Y36645D01*
X78201Y36581D01*
X78200Y36500D01*
X77800D01*
X77800Y36543D01*
X77792Y36671D01*
X77788Y36692D01*
X77784Y36709D01*
X77779Y36722D01*
X77773Y36731D01*
X77767Y36735D01*
X78233D01*
X78227Y36731D01*
D02*
G37*
G36*
X55929Y36440D02*
X55858Y36508D01*
X55719Y36624D01*
X55650Y36670D01*
X55581Y36710D01*
X55513Y36742D01*
X55446Y36768D01*
X55379Y36786D01*
X55312Y36796D01*
X55245Y36800D01*
Y37200D01*
X55312Y37204D01*
X55379Y37214D01*
X55446Y37232D01*
X55513Y37258D01*
X55581Y37290D01*
X55650Y37330D01*
X55719Y37376D01*
X55788Y37430D01*
X55858Y37492D01*
X55929Y37560D01*
Y36440D01*
D02*
G37*
G36*
X49775Y37492D02*
X49915Y37376D01*
X49984Y37330D01*
X50052Y37290D01*
X50120Y37258D01*
X50188Y37232D01*
X50255Y37214D01*
X50322Y37204D01*
X50388Y37200D01*
Y36800D01*
X50322Y36796D01*
X50255Y36786D01*
X50188Y36768D01*
X50120Y36742D01*
X50052Y36710D01*
X49984Y36670D01*
X49915Y36624D01*
X49845Y36570D01*
X49775Y36508D01*
X49705Y36440D01*
Y37560D01*
X49775Y37492D01*
D02*
G37*
G36*
X37118Y50326D02*
X35612D01*
X35339Y50271D01*
X35107Y50117D01*
X34882Y49891D01*
X34824Y49871D01*
X34796Y49846D01*
X34786Y49839D01*
X34772Y49831D01*
X34751Y49821D01*
X34723Y49811D01*
X34686Y49801D01*
X34649Y49794D01*
X34516Y49782D01*
X34440Y49780D01*
X34373Y49751D01*
X33932Y49664D01*
X33502Y49377D01*
X33215Y48947D01*
X33114Y48439D01*
X33215Y47932D01*
X33502Y47502D01*
X33932Y47215D01*
X34439Y47114D01*
X34947Y47215D01*
X35377Y47502D01*
X35664Y47932D01*
X35752Y48373D01*
X35781Y48440D01*
X35782Y48524D01*
X35786Y48586D01*
X35793Y48641D01*
X35801Y48686D01*
X35811Y48723D01*
X35821Y48751D01*
X35831Y48772D01*
X35839Y48786D01*
X35846Y48796D01*
X35871Y48824D01*
X35891Y48882D01*
X35908Y48898D01*
X37118D01*
Y45606D01*
X44681D01*
X44850Y45319D01*
X44681Y45031D01*
X37118D01*
Y41276D01*
X44025D01*
X44292Y40776D01*
X44251Y40714D01*
X38379D01*
X38106Y40659D01*
X37874Y40505D01*
X33435Y36065D01*
X32984Y36322D01*
X33020Y36500D01*
Y37500D01*
X32942Y37890D01*
X32721Y38221D01*
X32390Y38442D01*
X32005Y38519D01*
X32003Y38520D01*
X32001Y38519D01*
X32000Y38519D01*
X31934D01*
X31917Y38527D01*
X31899Y38519D01*
X31558D01*
X31532Y38534D01*
X31409Y38621D01*
X31072Y38907D01*
X30879Y39094D01*
X30828Y39114D01*
X27657Y42284D01*
X27638Y42334D01*
X27478Y42502D01*
X27417Y42573D01*
X27405Y42588D01*
X27402Y42592D01*
X27397Y42603D01*
X27395Y42604D01*
X27337Y42895D01*
X27050Y43325D01*
X26620Y43612D01*
X26113Y43713D01*
X25826Y43656D01*
X25326Y43981D01*
Y48317D01*
X28111Y51101D01*
X37118D01*
Y50326D01*
D02*
G37*
G36*
X34454Y35787D02*
X34414Y35730D01*
X34386Y35674D01*
X34369Y35617D01*
X34364Y35561D01*
X34369Y35504D01*
X34386Y35447D01*
X34414Y35391D01*
X34454Y35334D01*
X34505Y35278D01*
X34222Y34995D01*
X34222Y34995D01*
X34222Y34995D01*
X34166Y35046D01*
X34109Y35085D01*
X34053Y35114D01*
X33996Y35131D01*
X33939Y35136D01*
X33883Y35131D01*
X33826Y35114D01*
X33770Y35085D01*
X33713Y35046D01*
X33662Y35000D01*
X33656Y34995D01*
X33939Y35561D01*
X34505Y35844D01*
X34505Y35844D01*
X34505Y35844D01*
X34454Y35787D01*
D02*
G37*
G36*
X87704Y36188D02*
X87714Y36121D01*
X87732Y36054D01*
X87758Y35987D01*
X87790Y35919D01*
X87830Y35850D01*
X87876Y35781D01*
X87930Y35712D01*
X87992Y35642D01*
X88060Y35571D01*
X86940D01*
X87008Y35642D01*
X87124Y35781D01*
X87170Y35850D01*
X87210Y35919D01*
X87242Y35987D01*
X87268Y36054D01*
X87286Y36121D01*
X87296Y36188D01*
X87300Y36255D01*
X87700D01*
X87704Y36188D01*
D02*
G37*
G36*
X37142Y36492D02*
X37281Y36376D01*
X37350Y36330D01*
X37419Y36290D01*
X37487Y36258D01*
X37554Y36232D01*
X37622Y36214D01*
X37688Y36204D01*
X37755Y36200D01*
Y35800D01*
X37688Y35796D01*
X37622Y35786D01*
X37554Y35768D01*
X37487Y35742D01*
X37419Y35710D01*
X37350Y35670D01*
X37281Y35624D01*
X37212Y35570D01*
X37142Y35508D01*
X37071Y35440D01*
Y36560D01*
X37142Y36492D01*
D02*
G37*
G36*
X48401Y39305D02*
X48563Y39063D01*
X48956Y38800D01*
X48972Y38650D01*
X48913Y38282D01*
X48626Y38225D01*
X48196Y37937D01*
X47909Y37507D01*
X47808Y37000D01*
X47909Y36493D01*
X48196Y36063D01*
X48626Y35775D01*
X49134Y35675D01*
X49641Y35775D01*
X50014Y36025D01*
X50082Y36052D01*
X50143Y36111D01*
X50190Y36152D01*
X50233Y36186D01*
X50271Y36211D01*
X50304Y36231D01*
X50331Y36244D01*
X50353Y36252D01*
X50369Y36256D01*
X50380Y36258D01*
X50418Y36260D01*
X50473Y36286D01*
X55160D01*
X55216Y36260D01*
X55254Y36258D01*
X55265Y36256D01*
X55281Y36252D01*
X55302Y36244D01*
X55329Y36231D01*
X55362Y36211D01*
X55394Y36190D01*
X55497Y36105D01*
X55551Y36052D01*
X55619Y36025D01*
X55993Y35775D01*
X56500Y35675D01*
X57007Y35775D01*
X57437Y36063D01*
X57725Y36493D01*
X57825Y37000D01*
X57725Y37507D01*
X57437Y37937D01*
X57007Y38225D01*
X56500Y38326D01*
X55993Y38225D01*
X55619Y37975D01*
X55551Y37948D01*
X55491Y37889D01*
X55444Y37848D01*
X55401Y37814D01*
X55362Y37789D01*
X55329Y37769D01*
X55302Y37756D01*
X55281Y37749D01*
X55265Y37744D01*
X55254Y37742D01*
X55216Y37740D01*
X55160Y37714D01*
X50473D01*
X50418Y37740D01*
X50380Y37742D01*
X50369Y37744D01*
X50353Y37749D01*
X50331Y37756D01*
X50304Y37769D01*
X50271Y37789D01*
X50240Y37810D01*
X50137Y37895D01*
X50082Y37948D01*
X50014Y37975D01*
X49678Y38200D01*
X49661Y38350D01*
X49721Y38719D01*
X50007Y38775D01*
X50381Y39025D01*
X50449Y39052D01*
X50509Y39111D01*
X50556Y39152D01*
X50599Y39186D01*
X50638Y39211D01*
X50671Y39231D01*
X50698Y39244D01*
X50719Y39252D01*
X50735Y39256D01*
X50746Y39258D01*
X50784Y39260D01*
X50840Y39286D01*
X63794D01*
X64007Y38908D01*
X63882Y38714D01*
X62101D01*
X61828Y38659D01*
X61596Y38505D01*
X57378Y34286D01*
X47291D01*
X45231Y36347D01*
X45211Y36470D01*
X45265Y36861D01*
X45311Y36947D01*
X45383Y36995D01*
X47817Y39429D01*
X48401Y39305D01*
D02*
G37*
G36*
X102049Y33913D02*
X102038Y33889D01*
X102029Y33856D01*
X102022Y33815D01*
X102015Y33766D01*
X102005Y33643D01*
X102000Y33395D01*
X101000D01*
X100999Y33486D01*
X100978Y33815D01*
X100971Y33856D01*
X100962Y33889D01*
X100951Y33913D01*
X100940Y33929D01*
X102060D01*
X102049Y33913D01*
D02*
G37*
G36*
X28745Y32462D02*
X28671Y32386D01*
X28556Y32248D01*
X28514Y32188D01*
X28483Y32132D01*
X28462Y32082D01*
X28452Y32036D01*
X28453Y31996D01*
X28464Y31962D01*
X28486Y31932D01*
X27932Y32485D01*
X27962Y32464D01*
X27997Y32452D01*
X28036Y32452D01*
X28082Y32462D01*
X28132Y32483D01*
X28188Y32514D01*
X28249Y32556D01*
X28315Y32608D01*
X28386Y32671D01*
X28462Y32745D01*
X28745Y32462D01*
D02*
G37*
G36*
X79804Y31984D02*
X79859Y31945D01*
X79919Y31910D01*
X79984Y31880D01*
X80055Y31855D01*
X80132Y31834D01*
X80214Y31818D01*
X80301Y31808D01*
X80394Y31801D01*
X80492Y31800D01*
X79700Y31008D01*
X79699Y31106D01*
X79682Y31286D01*
X79666Y31368D01*
X79645Y31444D01*
X79620Y31515D01*
X79590Y31581D01*
X79555Y31641D01*
X79516Y31696D01*
X79471Y31746D01*
X79754Y32029D01*
X79804Y31984D01*
D02*
G37*
G36*
X32159Y30551D02*
X32126Y30528D01*
X32096Y30490D01*
X32071Y30437D01*
X32049Y30369D01*
X32032Y30285D01*
X32018Y30187D01*
X32008Y30073D01*
X32000Y29799D01*
X31000D01*
X30998Y29944D01*
X30969Y30285D01*
X30951Y30369D01*
X30929Y30437D01*
X30904Y30490D01*
X30874Y30528D01*
X30841Y30551D01*
X30804Y30559D01*
X32197D01*
X32159Y30551D01*
D02*
G37*
G36*
X63549Y28413D02*
X63538Y28389D01*
X63529Y28356D01*
X63522Y28315D01*
X63515Y28266D01*
X63505Y28143D01*
X63500Y27896D01*
X62500D01*
X62499Y27986D01*
X62478Y28315D01*
X62471Y28356D01*
X62462Y28389D01*
X62451Y28413D01*
X62440Y28429D01*
X63560D01*
X63549Y28413D01*
D02*
G37*
G36*
X30547Y28139D02*
X30483Y28075D01*
X30266Y27827D01*
X30242Y27793D01*
X30226Y27764D01*
X30216Y27739D01*
X30213Y27720D01*
X29421Y28512D01*
X29440Y28515D01*
X29464Y28525D01*
X29494Y28542D01*
X29528Y28565D01*
X29568Y28595D01*
X29662Y28675D01*
X29840Y28846D01*
X30547Y28139D01*
D02*
G37*
G36*
X29961Y27125D02*
X29951Y27101D01*
X29942Y27068D01*
X29934Y27027D01*
X29928Y26978D01*
X29918Y26855D01*
X29913Y26607D01*
X28913D01*
X28912Y26698D01*
X28891Y27027D01*
X28883Y27068D01*
X28874Y27101D01*
X28864Y27125D01*
X28853Y27141D01*
X29973D01*
X29961Y27125D01*
D02*
G37*
G36*
X102001Y25514D02*
X102022Y25185D01*
X102029Y25144D01*
X102038Y25111D01*
X102049Y25087D01*
X102060Y25071D01*
X100940D01*
X100951Y25087D01*
X100962Y25111D01*
X100971Y25144D01*
X100978Y25185D01*
X100985Y25234D01*
X100995Y25357D01*
X101000Y25605D01*
X102000D01*
X102001Y25514D01*
D02*
G37*
G36*
X91016Y24879D02*
X91027Y24813D01*
X91045Y24745D01*
X91070Y24678D01*
X91103Y24610D01*
X91142Y24541D01*
X91189Y24472D01*
X91243Y24403D01*
X91304Y24333D01*
X91373Y24262D01*
X90253D01*
X90321Y24333D01*
X90436Y24472D01*
X90483Y24541D01*
X90523Y24610D01*
X90555Y24678D01*
X90580Y24745D01*
X90598Y24813D01*
X90609Y24879D01*
X90613Y24946D01*
X91013D01*
X91016Y24879D01*
D02*
G37*
G36*
X26801Y24894D02*
X26818Y24714D01*
X26834Y24632D01*
X26855Y24555D01*
X26880Y24485D01*
X26910Y24419D01*
X26945Y24359D01*
X26984Y24304D01*
X27029Y24254D01*
X26746Y23971D01*
X26696Y24016D01*
X26641Y24055D01*
X26581Y24090D01*
X26515Y24120D01*
X26445Y24145D01*
X26368Y24166D01*
X26286Y24182D01*
X26199Y24193D01*
X26106Y24199D01*
X26008Y24200D01*
X26800Y24992D01*
X26801Y24894D01*
D02*
G37*
G36*
X55995Y23132D02*
X56014Y23129D01*
X56042Y23125D01*
X56181Y23118D01*
X56492Y23115D01*
X56681Y22115D01*
X56591Y22114D01*
X56311Y22093D01*
X56262Y22084D01*
X56221Y22072D01*
X56187Y22059D01*
X56163Y22044D01*
X56146Y22028D01*
X55985Y23136D01*
X55995Y23132D01*
D02*
G37*
G36*
X40102Y28388D02*
X40334Y28234D01*
X40607Y28179D01*
X46690D01*
X53588Y21282D01*
X53396Y20820D01*
X34122D01*
X30432Y24510D01*
Y26547D01*
X30454Y26596D01*
X30459Y26828D01*
X30466Y26921D01*
X30469Y26940D01*
X30470Y26945D01*
X30473Y26956D01*
X30472Y26958D01*
X30637Y27205D01*
X30695Y27496D01*
X30697Y27497D01*
X30698Y27499D01*
X30880Y27706D01*
X30933Y27759D01*
X30953Y27811D01*
X32221Y29078D01*
X32442Y29409D01*
X32497Y29686D01*
X32541Y29784D01*
X32548Y30042D01*
X32556Y30126D01*
X32562Y30169D01*
X32579Y30176D01*
X32584Y30187D01*
X32721Y30279D01*
X32942Y30610D01*
X33020Y31000D01*
Y32000D01*
X32942Y32390D01*
X32721Y32721D01*
X32578Y32816D01*
X32652Y33341D01*
X32883Y33495D01*
X33939Y34551D01*
X40102Y28388D01*
D02*
G37*
G36*
X90642Y20403D02*
X90781Y20288D01*
X90850Y20242D01*
X90919Y20202D01*
X90987Y20169D01*
X91054Y20144D01*
X91122Y20126D01*
X91188Y20116D01*
X91255Y20112D01*
Y19712D01*
X91188Y19708D01*
X91122Y19697D01*
X91054Y19680D01*
X90987Y19654D01*
X90919Y19622D01*
X90850Y19582D01*
X90781Y19535D01*
X90712Y19481D01*
X90642Y19420D01*
X90571Y19352D01*
Y20472D01*
X90642Y20403D01*
D02*
G37*
G36*
X55801Y16894D02*
X55818Y16714D01*
X55834Y16632D01*
X55855Y16556D01*
X55880Y16485D01*
X55910Y16419D01*
X55945Y16359D01*
X55984Y16304D01*
X56029Y16254D01*
X55746Y15971D01*
X55696Y16016D01*
X55641Y16055D01*
X55581Y16090D01*
X55515Y16120D01*
X55445Y16145D01*
X55368Y16166D01*
X55286Y16182D01*
X55199Y16193D01*
X55106Y16199D01*
X55008Y16200D01*
X55800Y16992D01*
X55801Y16894D01*
D02*
G37*
G36*
X83739Y15324D02*
X83878Y15209D01*
X83947Y15162D01*
X84016Y15123D01*
X84084Y15090D01*
X84151Y15065D01*
X84219Y15047D01*
X84285Y15036D01*
X84352Y15033D01*
Y14633D01*
X84285Y14629D01*
X84219Y14618D01*
X84151Y14600D01*
X84084Y14575D01*
X84016Y14543D01*
X83947Y14503D01*
X83878Y14456D01*
X83809Y14402D01*
X83739Y14341D01*
X83668Y14273D01*
Y15393D01*
X83739Y15324D01*
D02*
G37*
G36*
X94429Y12940D02*
X94413Y12951D01*
X94389Y12962D01*
X94356Y12971D01*
X94315Y12978D01*
X94266Y12985D01*
X94143Y12995D01*
X93896Y13000D01*
Y14000D01*
X93986Y14001D01*
X94315Y14022D01*
X94356Y14029D01*
X94389Y14038D01*
X94413Y14049D01*
X94429Y14060D01*
Y12940D01*
D02*
G37*
G36*
X88704Y13188D02*
X88714Y13122D01*
X88732Y13054D01*
X88758Y12987D01*
X88790Y12919D01*
X88830Y12850D01*
X88876Y12781D01*
X88930Y12712D01*
X88992Y12642D01*
X89060Y12571D01*
X87940D01*
X88008Y12642D01*
X88124Y12781D01*
X88170Y12850D01*
X88210Y12919D01*
X88242Y12987D01*
X88268Y13054D01*
X88286Y13122D01*
X88296Y13188D01*
X88300Y13255D01*
X88700D01*
X88704Y13188D01*
D02*
G37*
G36*
X80788Y11940D02*
X80718Y12008D01*
X80579Y12124D01*
X80510Y12170D01*
X80441Y12210D01*
X80373Y12242D01*
X80305Y12268D01*
X80238Y12286D01*
X80171Y12296D01*
X80105Y12300D01*
Y12700D01*
X80171Y12704D01*
X80238Y12714D01*
X80305Y12732D01*
X80373Y12758D01*
X80441Y12790D01*
X80510Y12830D01*
X80579Y12876D01*
X80648Y12930D01*
X80718Y12992D01*
X80788Y13060D01*
Y11940D01*
D02*
G37*
G36*
X76916Y8040D02*
X76846Y8108D01*
X76706Y8224D01*
X76637Y8270D01*
X76569Y8310D01*
X76501Y8342D01*
X76433Y8368D01*
X76366Y8386D01*
X76299Y8396D01*
X76233Y8400D01*
Y8800D01*
X76299Y8804D01*
X76366Y8814D01*
X76433Y8832D01*
X76501Y8858D01*
X76569Y8890D01*
X76637Y8930D01*
X76706Y8976D01*
X76776Y9030D01*
X76846Y9092D01*
X76916Y9160D01*
Y8040D01*
D02*
G37*
G36*
X89929Y5940D02*
X89858Y6008D01*
X89719Y6124D01*
X89650Y6170D01*
X89581Y6210D01*
X89513Y6242D01*
X89446Y6268D01*
X89378Y6286D01*
X89312Y6296D01*
X89245Y6300D01*
Y6700D01*
X89312Y6704D01*
X89378Y6714D01*
X89446Y6732D01*
X89513Y6758D01*
X89581Y6790D01*
X89650Y6830D01*
X89719Y6876D01*
X89788Y6930D01*
X89858Y6992D01*
X89929Y7060D01*
Y5940D01*
D02*
G37*
%LPC*%
G36*
X45205Y79677D02*
X37118D01*
Y75921D01*
X45205D01*
Y79677D01*
D02*
G37*
G36*
X61000Y87357D02*
X60493Y87256D01*
X60063Y86969D01*
X59775Y86539D01*
X59675Y86032D01*
X59775Y85524D01*
X60025Y85151D01*
X60052Y85083D01*
X60111Y85023D01*
X60152Y84975D01*
X60186Y84932D01*
X60211Y84894D01*
X60231Y84861D01*
X60243Y84834D01*
X60251Y84812D01*
X60256Y84796D01*
X60258Y84785D01*
X60260Y84748D01*
X60286Y84692D01*
Y76296D01*
X56943Y72952D01*
X56884Y72931D01*
X56856Y72906D01*
X56847Y72900D01*
X56833Y72891D01*
X56812Y72882D01*
X56784Y72872D01*
X56747Y72862D01*
X56709Y72855D01*
X56577Y72842D01*
X56500Y72841D01*
X56433Y72812D01*
X55993Y72725D01*
X55563Y72437D01*
X55275Y72007D01*
X55174Y71500D01*
X55275Y70993D01*
X55563Y70563D01*
X55993Y70275D01*
X56500Y70174D01*
X57007Y70275D01*
X57437Y70563D01*
X57725Y70993D01*
X57812Y71433D01*
X57841Y71500D01*
X57842Y71584D01*
X57846Y71647D01*
X57853Y71701D01*
X57862Y71747D01*
X57872Y71784D01*
X57882Y71812D01*
X57891Y71833D01*
X57900Y71847D01*
X57906Y71856D01*
X57931Y71884D01*
X57952Y71943D01*
X61505Y75495D01*
X61659Y75727D01*
X61714Y76000D01*
Y84692D01*
X61740Y84748D01*
X61742Y84785D01*
X61744Y84796D01*
X61748Y84812D01*
X61756Y84834D01*
X61769Y84861D01*
X61788Y84894D01*
X61810Y84926D01*
X61895Y85028D01*
X61948Y85083D01*
X61975Y85151D01*
X62225Y85524D01*
X62326Y86032D01*
X62225Y86539D01*
X61937Y86969D01*
X61507Y87256D01*
X61000Y87357D01*
D02*
G37*
G36*
X83000Y74017D02*
X82037Y73825D01*
X81220Y73280D01*
X80675Y72463D01*
X80483Y71500D01*
X80675Y70537D01*
X81220Y69720D01*
X82037Y69175D01*
X83000Y68983D01*
X83963Y69175D01*
X84780Y69720D01*
X85325Y70537D01*
X85517Y71500D01*
X85325Y72463D01*
X84780Y73280D01*
X83963Y73825D01*
X83000Y74017D01*
D02*
G37*
%LPD*%
G36*
X61492Y85390D02*
X61376Y85251D01*
X61330Y85181D01*
X61290Y85113D01*
X61258Y85045D01*
X61232Y84977D01*
X61214Y84910D01*
X61204Y84843D01*
X61200Y84777D01*
X60800D01*
X60796Y84843D01*
X60786Y84910D01*
X60768Y84977D01*
X60742Y85045D01*
X60710Y85113D01*
X60670Y85181D01*
X60624Y85251D01*
X60570Y85320D01*
X60508Y85390D01*
X60440Y85460D01*
X61560D01*
X61492Y85390D01*
D02*
G37*
G36*
X57529Y72246D02*
X57484Y72196D01*
X57445Y72141D01*
X57410Y72081D01*
X57380Y72016D01*
X57355Y71944D01*
X57334Y71868D01*
X57318Y71786D01*
X57307Y71699D01*
X57301Y71606D01*
X57300Y71508D01*
X56508Y72300D01*
X56606Y72301D01*
X56786Y72318D01*
X56868Y72334D01*
X56945Y72355D01*
X57016Y72380D01*
X57081Y72410D01*
X57141Y72445D01*
X57196Y72484D01*
X57246Y72529D01*
X57529Y72246D01*
D02*
G37*
%LPC*%
G36*
X96142Y43437D02*
X95447Y43298D01*
X94859Y42905D01*
X94465Y42316D01*
X94327Y41622D01*
X94465Y40928D01*
X94859Y40339D01*
X95447Y39946D01*
X96142Y39808D01*
X96836Y39946D01*
X97425Y40339D01*
X97818Y40928D01*
X97956Y41622D01*
X97818Y42316D01*
X97425Y42905D01*
X96836Y43298D01*
X96142Y43437D01*
D02*
G37*
%LPD*%
D10*
X63000Y25500D02*
Y29000D01*
X60115Y22615D02*
X63000Y25500D01*
X55615Y22615D02*
X60115D01*
X55500Y22500D02*
X55615Y22615D01*
X83500Y60000D02*
X85500D01*
X81500Y58000D02*
X83500Y60000D01*
X64897Y11300D02*
X79941D01*
X56397Y19800D02*
X64897Y11300D01*
X33700Y19800D02*
X56397D01*
X79941Y11300D02*
X82241Y9000D01*
X62000Y58000D02*
X81500D01*
X101500Y24500D02*
Y34500D01*
X49000Y53500D02*
X57500D01*
X62000Y58000D01*
X29413Y24087D02*
X33700Y19800D01*
X29413Y24087D02*
Y27712D01*
X31500Y29799D01*
Y31500D01*
X56646Y56146D02*
X58500Y58000D01*
X41162Y56146D02*
X56646D01*
X82241Y9000D02*
X89000D01*
X93500Y13500D02*
X95000D01*
X89000Y9000D02*
X93500Y13500D01*
X26113Y42387D02*
X31500Y37000D01*
X25413Y62046D02*
X31313Y56146D01*
X25413Y62046D02*
Y69712D01*
X26413Y70712D01*
X28788D01*
X31500Y68000D01*
Y73500D01*
X31313Y56146D02*
X34177D01*
X41162D01*
D23*
X27500Y37000D02*
D03*
X31500D02*
D03*
X27500Y31500D02*
D03*
X31500D02*
D03*
X27500Y68000D02*
D03*
X31500D02*
D03*
X27500Y73500D02*
D03*
X31500D02*
D03*
D57*
X24613Y39266D02*
Y48613D01*
X27815Y51815D02*
X57610D01*
X24613Y48613D02*
X27815Y51815D01*
X85833Y14833D02*
X87000Y16000D01*
X78000Y36500D02*
X87000Y27500D01*
Y16000D02*
Y27500D01*
X79000Y39000D02*
X88500Y29500D01*
X90000Y19912D02*
X99033D01*
X88500Y12000D02*
Y29500D01*
X83097Y14833D02*
X85833D01*
X65500Y12500D02*
X81360D01*
X64203Y10100D02*
X79444D01*
X55703Y18600D02*
X64203Y10100D01*
X32400Y18600D02*
X55703D01*
X55000Y17000D02*
X63400Y8600D01*
X79444Y10100D02*
X83044Y6500D01*
X57000Y21000D02*
X65500Y12500D01*
X63400Y8600D02*
X77487D01*
X79500Y32000D02*
X80500Y31000D01*
X76000Y32000D02*
X79500D01*
X68000Y40000D02*
X76000Y32000D01*
X48500Y62000D02*
X103525D01*
X46976Y60476D02*
X48500Y62000D01*
X103525D02*
X113813Y51712D01*
X41162Y60476D02*
X46976D01*
X35024D02*
X41162D01*
X78000Y36500D02*
Y37500D01*
X84586Y45000D02*
X87370D01*
X99033Y19912D02*
X113813Y34691D01*
X90813Y23691D02*
Y32704D01*
X113813Y34691D02*
Y51712D01*
X64425Y45000D02*
X84586D01*
X87370D02*
X89339Y43031D01*
Y34177D02*
Y43031D01*
X57610Y51815D02*
X64425Y45000D01*
X50879Y43500D02*
X85500D01*
X87500Y41500D01*
X44879Y37500D02*
X50879Y43500D01*
X54879Y21000D02*
X57000D01*
X46986Y28893D02*
X54879Y21000D01*
X46000Y41000D02*
Y46500D01*
X45071Y47429D02*
X46000Y46500D01*
X41216Y47429D02*
X45071D01*
X41162Y47484D02*
X41216Y47429D01*
X38379Y40000D02*
X45000D01*
X46000Y41000D01*
X34439Y48439D02*
X35612Y49612D01*
X42500Y37500D02*
X44879D01*
X30000Y34000D02*
X32379D01*
X27500Y31500D02*
X30000Y34000D01*
X32379D02*
X33939Y35561D01*
X38379Y40000D01*
X40607Y28893D02*
X46986D01*
X33939Y35561D02*
X40607Y28893D01*
X33939Y35561D02*
X33939D01*
X44568Y36000D02*
X46995Y33573D01*
X36500Y36000D02*
X44568D01*
X35612Y49612D02*
X54913D01*
X83044Y6500D02*
X90500D01*
X61000Y76000D02*
Y86032D01*
X87500Y35000D02*
Y41500D01*
X74000Y39000D02*
X79000D01*
X49500Y40000D02*
X68000D01*
X49134Y37000D02*
X56500D01*
X57674Y33573D02*
X62101Y38000D01*
X65500D01*
X46995Y33573D02*
X57674D01*
X24613Y39266D02*
X26879Y37000D01*
X27500D01*
Y75000D02*
X28500Y76000D01*
X34225D02*
X36913Y73312D01*
X28500Y76000D02*
X34225D01*
X27500Y73500D02*
Y75000D01*
X25000Y73500D02*
X27500D01*
X27500Y73500D01*
X89339Y34177D02*
X90813Y32704D01*
X26000Y25000D02*
X32400Y18600D01*
X56500Y71500D02*
X61000Y76000D01*
X36913Y69638D02*
Y73312D01*
Y69638D02*
X37413Y69138D01*
X41162D01*
X27500Y68000D02*
X35024Y60476D01*
D58*
X83000Y40004D02*
D03*
Y71500D02*
D03*
D59*
X96142Y41622D02*
D03*
Y64378D02*
D03*
D60*
X109921Y70028D02*
D03*
Y35972D02*
D03*
D61*
X94173Y70028D02*
D03*
Y35972D02*
D03*
D62*
X51500Y29000D02*
D03*
X90000Y19912D02*
D03*
X83097Y14833D02*
D03*
X63000Y29000D02*
D03*
X67500Y30500D02*
D03*
X73000D02*
D03*
X81360Y12500D02*
D03*
X35500Y29500D02*
D03*
X104500Y83000D02*
D03*
X36000Y54000D02*
D03*
X44000Y23000D02*
D03*
X85500Y60000D02*
D03*
X77487Y8600D02*
D03*
X78500Y15500D02*
D03*
X80500Y31000D02*
D03*
X46500Y70000D02*
D03*
X98000Y55000D02*
D03*
X74500Y71000D02*
D03*
X81500Y58000D02*
D03*
X84000Y65000D02*
D03*
X78500Y25500D02*
D03*
Y20500D02*
D03*
X90500Y77000D02*
D03*
X90813Y23691D02*
D03*
X101500Y24500D02*
D03*
X79000Y83500D02*
D03*
X76000D02*
D03*
X73000D02*
D03*
X79000Y86500D02*
D03*
X76000Y86500D02*
D03*
X73000Y86500D02*
D03*
X79000Y89500D02*
D03*
X76000D02*
D03*
X73000D02*
D03*
Y20500D02*
D03*
X67500D02*
D03*
Y15500D02*
D03*
X73000D02*
D03*
Y25500D02*
D03*
X67500D02*
D03*
X93500Y27500D02*
D03*
X46500Y36500D02*
D03*
X36000Y46000D02*
D03*
X32500Y42500D02*
D03*
X25000Y77000D02*
D03*
X26000Y58500D02*
D03*
X28000Y63500D02*
D03*
X70500Y40000D02*
D03*
X68500Y37000D02*
D03*
X97000Y50000D02*
D03*
X65500Y72000D02*
D03*
X114000Y61000D02*
D03*
X108500Y48500D02*
D03*
X97000Y78000D02*
D03*
X34500Y73000D02*
D03*
X27500Y80500D02*
D03*
X45000Y91500D02*
D03*
X26500Y98500D02*
D03*
X26000Y16500D02*
D03*
X56000Y8500D02*
D03*
Y12000D02*
D03*
X54000Y14500D02*
D03*
X51500Y16500D02*
D03*
X48000D02*
D03*
X44000D02*
D03*
X40500D02*
D03*
X37000D02*
D03*
X33500D02*
D03*
X30000D02*
D03*
X55500Y22500D02*
D03*
X58500Y58000D02*
D03*
X49000Y53500D02*
D03*
X34439Y48439D02*
D03*
X36500Y36000D02*
D03*
X88500Y12000D02*
D03*
X90500Y6500D02*
D03*
X95000Y13500D02*
D03*
X61000Y86032D02*
D03*
X101500Y34500D02*
D03*
X74000Y39000D02*
D03*
X78000Y37500D02*
D03*
X42500D02*
D03*
X49500Y40000D02*
D03*
X49134Y37000D02*
D03*
X65500Y38000D02*
D03*
X56500Y37000D02*
D03*
X26113Y42387D02*
D03*
X25000Y73500D02*
D03*
X87500Y35000D02*
D03*
X55000Y17000D02*
D03*
X26000Y25000D02*
D03*
X56500Y71500D02*
D03*
X54913Y49612D02*
D03*
X29413Y27712D02*
D03*
X34177Y56146D02*
D03*
D63*
X81425Y21894D02*
D03*
Y82917D02*
D03*
D64*
X43630Y25043D02*
D03*
D65*
Y82917D02*
D03*
D66*
X41162Y43154D02*
D03*
Y47484D02*
D03*
Y51815D02*
D03*
Y56146D02*
D03*
Y60476D02*
D03*
Y69138D02*
D03*
Y73469D02*
D03*
Y77799D02*
D03*
Y64807D02*
D03*
M02*
