G04*
G04 #@! TF.GenerationSoftware,Altium Limited,Altium Designer,20.0.13 (296)*
G04*
G04 Layer_Color=255*
%FSLAX25Y25*%
%MOIN*%
G70*
G01*
G75*
%ADD17R,0.01575X0.01968*%
%ADD18R,0.02756X0.03937*%
G04:AMPARAMS|DCode=19|XSize=59.06mil|YSize=11.81mil|CornerRadius=2.95mil|HoleSize=0mil|Usage=FLASHONLY|Rotation=180.000|XOffset=0mil|YOffset=0mil|HoleType=Round|Shape=RoundedRectangle|*
%AMROUNDEDRECTD19*
21,1,0.05906,0.00591,0,0,180.0*
21,1,0.05315,0.01181,0,0,180.0*
1,1,0.00591,-0.02657,0.00295*
1,1,0.00591,0.02657,0.00295*
1,1,0.00591,0.02657,-0.00295*
1,1,0.00591,-0.02657,-0.00295*
%
%ADD19ROUNDEDRECTD19*%
G04:AMPARAMS|DCode=20|XSize=160mil|YSize=160mil|CornerRadius=16mil|HoleSize=0mil|Usage=FLASHONLY|Rotation=90.000|XOffset=0mil|YOffset=0mil|HoleType=Round|Shape=RoundedRectangle|*
%AMROUNDEDRECTD20*
21,1,0.16000,0.12800,0,0,90.0*
21,1,0.12800,0.16000,0,0,90.0*
1,1,0.03200,0.06400,0.06400*
1,1,0.03200,0.06400,-0.06400*
1,1,0.03200,-0.06400,-0.06400*
1,1,0.03200,-0.06400,0.06400*
%
%ADD20ROUNDEDRECTD20*%
G04:AMPARAMS|DCode=21|XSize=26.57mil|YSize=9.84mil|CornerRadius=2.46mil|HoleSize=0mil|Usage=FLASHONLY|Rotation=90.000|XOffset=0mil|YOffset=0mil|HoleType=Round|Shape=RoundedRectangle|*
%AMROUNDEDRECTD21*
21,1,0.02657,0.00492,0,0,90.0*
21,1,0.02165,0.00984,0,0,90.0*
1,1,0.00492,0.00246,0.01083*
1,1,0.00492,0.00246,-0.01083*
1,1,0.00492,-0.00246,-0.01083*
1,1,0.00492,-0.00246,0.01083*
%
%ADD21ROUNDEDRECTD21*%
G04:AMPARAMS|DCode=22|XSize=26.57mil|YSize=9.84mil|CornerRadius=2.46mil|HoleSize=0mil|Usage=FLASHONLY|Rotation=180.000|XOffset=0mil|YOffset=0mil|HoleType=Round|Shape=RoundedRectangle|*
%AMROUNDEDRECTD22*
21,1,0.02657,0.00492,0,0,180.0*
21,1,0.02165,0.00984,0,0,180.0*
1,1,0.00492,-0.01083,0.00246*
1,1,0.00492,0.01083,0.00246*
1,1,0.00492,0.01083,-0.00246*
1,1,0.00492,-0.01083,-0.00246*
%
%ADD22ROUNDEDRECTD22*%
G04:AMPARAMS|DCode=23|XSize=20mil|YSize=20mil|CornerRadius=5mil|HoleSize=0mil|Usage=FLASHONLY|Rotation=270.000|XOffset=0mil|YOffset=0mil|HoleType=Round|Shape=RoundedRectangle|*
%AMROUNDEDRECTD23*
21,1,0.02000,0.01000,0,0,270.0*
21,1,0.01000,0.02000,0,0,270.0*
1,1,0.01000,-0.00500,-0.00500*
1,1,0.01000,-0.00500,0.00500*
1,1,0.01000,0.00500,0.00500*
1,1,0.01000,0.00500,-0.00500*
%
%ADD23ROUNDEDRECTD23*%
G04:AMPARAMS|DCode=24|XSize=86mil|YSize=50mil|CornerRadius=12.5mil|HoleSize=0mil|Usage=FLASHONLY|Rotation=0.000|XOffset=0mil|YOffset=0mil|HoleType=Round|Shape=RoundedRectangle|*
%AMROUNDEDRECTD24*
21,1,0.08600,0.02500,0,0,0.0*
21,1,0.06100,0.05000,0,0,0.0*
1,1,0.02500,0.03050,-0.01250*
1,1,0.02500,-0.03050,-0.01250*
1,1,0.02500,-0.03050,0.01250*
1,1,0.02500,0.03050,0.01250*
%
%ADD24ROUNDEDRECTD24*%
G04:AMPARAMS|DCode=25|XSize=50mil|YSize=10mil|CornerRadius=2.5mil|HoleSize=0mil|Usage=FLASHONLY|Rotation=180.000|XOffset=0mil|YOffset=0mil|HoleType=Round|Shape=RoundedRectangle|*
%AMROUNDEDRECTD25*
21,1,0.05000,0.00500,0,0,180.0*
21,1,0.04500,0.01000,0,0,180.0*
1,1,0.00500,-0.02250,0.00250*
1,1,0.00500,0.02250,0.00250*
1,1,0.00500,0.02250,-0.00250*
1,1,0.00500,-0.02250,-0.00250*
%
%ADD25ROUNDEDRECTD25*%
G04:AMPARAMS|DCode=26|XSize=12mil|YSize=38mil|CornerRadius=3mil|HoleSize=0mil|Usage=FLASHONLY|Rotation=0.000|XOffset=0mil|YOffset=0mil|HoleType=Round|Shape=RoundedRectangle|*
%AMROUNDEDRECTD26*
21,1,0.01200,0.03200,0,0,0.0*
21,1,0.00600,0.03800,0,0,0.0*
1,1,0.00600,0.00300,-0.01600*
1,1,0.00600,-0.00300,-0.01600*
1,1,0.00600,-0.00300,0.01600*
1,1,0.00600,0.00300,0.01600*
%
%ADD26ROUNDEDRECTD26*%
G04:AMPARAMS|DCode=27|XSize=12mil|YSize=38mil|CornerRadius=3mil|HoleSize=0mil|Usage=FLASHONLY|Rotation=270.000|XOffset=0mil|YOffset=0mil|HoleType=Round|Shape=RoundedRectangle|*
%AMROUNDEDRECTD27*
21,1,0.01200,0.03200,0,0,270.0*
21,1,0.00600,0.03800,0,0,270.0*
1,1,0.00600,-0.01600,-0.00300*
1,1,0.00600,-0.01600,0.00300*
1,1,0.00600,0.01600,0.00300*
1,1,0.00600,0.01600,-0.00300*
%
%ADD27ROUNDEDRECTD27*%
%ADD28R,0.11024X0.10630*%
G04:AMPARAMS|DCode=29|XSize=20mil|YSize=20mil|CornerRadius=5mil|HoleSize=0mil|Usage=FLASHONLY|Rotation=180.000|XOffset=0mil|YOffset=0mil|HoleType=Round|Shape=RoundedRectangle|*
%AMROUNDEDRECTD29*
21,1,0.02000,0.01000,0,0,180.0*
21,1,0.01000,0.02000,0,0,180.0*
1,1,0.01000,-0.00500,0.00500*
1,1,0.01000,0.00500,0.00500*
1,1,0.01000,0.00500,-0.00500*
1,1,0.01000,-0.00500,-0.00500*
%
%ADD29ROUNDEDRECTD29*%
G04:AMPARAMS|DCode=30|XSize=23.62mil|YSize=35mil|CornerRadius=5.91mil|HoleSize=0mil|Usage=FLASHONLY|Rotation=270.000|XOffset=0mil|YOffset=0mil|HoleType=Round|Shape=RoundedRectangle|*
%AMROUNDEDRECTD30*
21,1,0.02362,0.02319,0,0,270.0*
21,1,0.01181,0.03500,0,0,270.0*
1,1,0.01181,-0.01159,-0.00591*
1,1,0.01181,-0.01159,0.00591*
1,1,0.01181,0.01159,0.00591*
1,1,0.01181,0.01159,-0.00591*
%
%ADD30ROUNDEDRECTD30*%
G04:AMPARAMS|DCode=31|XSize=37.4mil|YSize=39.37mil|CornerRadius=9.35mil|HoleSize=0mil|Usage=FLASHONLY|Rotation=0.000|XOffset=0mil|YOffset=0mil|HoleType=Round|Shape=RoundedRectangle|*
%AMROUNDEDRECTD31*
21,1,0.03740,0.02067,0,0,0.0*
21,1,0.01870,0.03937,0,0,0.0*
1,1,0.01870,0.00935,-0.01034*
1,1,0.01870,-0.00935,-0.01034*
1,1,0.01870,-0.00935,0.01034*
1,1,0.01870,0.00935,0.01034*
%
%ADD31ROUNDEDRECTD31*%
G04:AMPARAMS|DCode=32|XSize=31.5mil|YSize=70.87mil|CornerRadius=7.87mil|HoleSize=0mil|Usage=FLASHONLY|Rotation=180.000|XOffset=0mil|YOffset=0mil|HoleType=Round|Shape=RoundedRectangle|*
%AMROUNDEDRECTD32*
21,1,0.03150,0.05512,0,0,180.0*
21,1,0.01575,0.07087,0,0,180.0*
1,1,0.01575,-0.00787,0.02756*
1,1,0.01575,0.00787,0.02756*
1,1,0.01575,0.00787,-0.02756*
1,1,0.01575,-0.00787,-0.02756*
%
%ADD32ROUNDEDRECTD32*%
%ADD33O,0.00984X0.02756*%
%ADD34O,0.02756X0.00984*%
%ADD58C,0.03937*%
%ADD59C,0.02559*%
%ADD60O,0.06299X0.03937*%
%ADD61O,0.08268X0.03937*%
D17*
X113229Y16000D02*
D03*
X116772Y16000D02*
D03*
D18*
X104268Y78535D02*
D03*
Y95464D02*
D03*
X112733Y78535D02*
D03*
Y95464D02*
D03*
D19*
X90079Y66189D02*
D03*
Y65008D02*
D03*
Y63039D02*
D03*
Y61858D02*
D03*
Y59890D02*
D03*
Y57921D02*
D03*
Y55953D02*
D03*
Y53984D02*
D03*
Y52016D02*
D03*
Y50047D02*
D03*
Y48079D02*
D03*
Y46110D02*
D03*
Y44142D02*
D03*
Y42961D02*
D03*
Y40992D02*
D03*
Y39811D02*
D03*
D20*
X72390Y20738D02*
D03*
D21*
X61563Y7500D02*
D03*
X63532D02*
D03*
X65500D02*
D03*
X67469D02*
D03*
X69437D02*
D03*
X71406D02*
D03*
X73374D02*
D03*
X75343D02*
D03*
X77311D02*
D03*
X79280D02*
D03*
X81248D02*
D03*
X83217D02*
D03*
Y33976D02*
D03*
X81248D02*
D03*
X79280D02*
D03*
X77311D02*
D03*
X75343D02*
D03*
X73374D02*
D03*
X71406D02*
D03*
X69437D02*
D03*
X67469D02*
D03*
X65500D02*
D03*
X63532D02*
D03*
X61563D02*
D03*
D22*
X85628Y9911D02*
D03*
Y11880D02*
D03*
Y13848D02*
D03*
Y15817D02*
D03*
Y17785D02*
D03*
Y19754D02*
D03*
Y21723D02*
D03*
Y23691D02*
D03*
Y25659D02*
D03*
Y27628D02*
D03*
Y29596D02*
D03*
Y31565D02*
D03*
X59152D02*
D03*
Y29596D02*
D03*
Y27628D02*
D03*
Y25659D02*
D03*
Y23691D02*
D03*
Y21723D02*
D03*
Y19754D02*
D03*
Y17785D02*
D03*
Y15817D02*
D03*
Y13848D02*
D03*
Y11880D02*
D03*
Y9911D02*
D03*
D23*
X94000Y7100D02*
D03*
X98000D02*
D03*
X103800Y10600D02*
D03*
X107800D02*
D03*
X103800Y7100D02*
D03*
X107800D02*
D03*
X94000Y10600D02*
D03*
X98000D02*
D03*
X113000Y24000D02*
D03*
X117000D02*
D03*
X53000Y26000D02*
D03*
X49000D02*
D03*
X55500Y79000D02*
D03*
X59500D02*
D03*
X44500D02*
D03*
X48500D02*
D03*
X35500D02*
D03*
X31500D02*
D03*
X41000Y26000D02*
D03*
X45000D02*
D03*
X33000D02*
D03*
X37000D02*
D03*
X79500Y65500D02*
D03*
X75500D02*
D03*
X68000D02*
D03*
X72000D02*
D03*
X64500D02*
D03*
X60500D02*
D03*
D24*
X42400Y69953D02*
D03*
Y32827D02*
D03*
D25*
X30000Y58279D02*
D03*
Y56311D02*
D03*
Y54342D02*
D03*
Y52374D02*
D03*
Y50405D02*
D03*
Y48437D02*
D03*
Y46468D02*
D03*
Y44500D02*
D03*
D26*
X70095Y77350D02*
D03*
X72063D02*
D03*
X74032D02*
D03*
X76000D02*
D03*
X77969D02*
D03*
X79937D02*
D03*
X81906D02*
D03*
Y95650D02*
D03*
X79937D02*
D03*
X77969D02*
D03*
X76000D02*
D03*
X74032D02*
D03*
X72063D02*
D03*
X70095D02*
D03*
D27*
X85150Y80594D02*
D03*
Y82563D02*
D03*
Y84531D02*
D03*
Y86500D02*
D03*
Y88468D02*
D03*
Y90437D02*
D03*
Y92405D02*
D03*
X66850D02*
D03*
Y90437D02*
D03*
Y88468D02*
D03*
Y86500D02*
D03*
Y84531D02*
D03*
Y82563D02*
D03*
Y80594D02*
D03*
D28*
X76000Y86500D02*
D03*
X70000Y51500D02*
D03*
D29*
X95500Y87000D02*
D03*
Y83000D02*
D03*
X57000Y40500D02*
D03*
Y44500D02*
D03*
D30*
X106000Y24740D02*
D03*
Y21000D02*
D03*
Y17260D02*
D03*
X94600D02*
D03*
Y24740D02*
D03*
D31*
X30260Y85571D02*
D03*
X37740D02*
D03*
X34000Y94429D02*
D03*
X49760Y85571D02*
D03*
X57240D02*
D03*
X53500Y94429D02*
D03*
D32*
X27909Y9500D02*
D03*
X48000D02*
D03*
D33*
X74921Y43232D02*
D03*
X72953D02*
D03*
X70984D02*
D03*
X69016D02*
D03*
X67047D02*
D03*
X65079D02*
D03*
Y59768D02*
D03*
X67047D02*
D03*
X69016D02*
D03*
X70984D02*
D03*
X72953D02*
D03*
X74921D02*
D03*
D34*
X61732Y46579D02*
D03*
Y48547D02*
D03*
Y50516D02*
D03*
Y52484D02*
D03*
Y54453D02*
D03*
Y56421D02*
D03*
X78268D02*
D03*
Y54453D02*
D03*
Y52484D02*
D03*
Y50516D02*
D03*
Y48547D02*
D03*
Y46579D02*
D03*
D58*
X83000Y40004D02*
D03*
Y71500D02*
D03*
D59*
X96142Y41622D02*
D03*
Y64378D02*
D03*
D60*
X109921Y70028D02*
D03*
Y35972D02*
D03*
D61*
X94173Y70028D02*
D03*
Y35972D02*
D03*
M02*
