G04*
G04 #@! TF.GenerationSoftware,Altium Limited,Altium Designer,20.0.13 (296)*
G04*
G04 Layer_Color=16711935*
%FSLAX25Y25*%
%MOIN*%
G70*
G01*
G75*
%ADD10C,0.00000*%
D10*
X66150Y91805D02*
Y93006D01*
Y91805D02*
Y93006D01*
Y89837D02*
Y91037D01*
Y89837D02*
Y91037D01*
Y87868D02*
Y89069D01*
Y87868D02*
Y89069D01*
Y85900D02*
Y87100D01*
Y85900D02*
Y87100D01*
Y83931D02*
Y85132D01*
Y83931D02*
Y85132D01*
Y81963D02*
Y83163D01*
Y81963D02*
Y83163D01*
Y79994D02*
Y81195D01*
Y79994D02*
Y81195D01*
X69494Y76650D02*
X70695D01*
X69494D02*
X70695D01*
X71463D02*
X72663D01*
X71463D02*
X72663D01*
X73431D02*
X74632D01*
X73431D02*
X74632D01*
X75400D02*
X76600D01*
X75400D02*
X76600D01*
X77368D02*
X78569D01*
X77368D02*
X78569D01*
X79337D02*
X80537D01*
X79337D02*
X80537D01*
X81305D02*
X82506D01*
X81305D02*
X82506D01*
X85850Y79994D02*
Y81195D01*
Y79994D02*
Y81195D01*
Y81963D02*
Y83163D01*
Y81963D02*
Y83163D01*
Y83931D02*
Y85132D01*
Y83931D02*
Y85132D01*
Y85900D02*
Y87100D01*
Y85900D02*
Y87100D01*
Y87868D02*
Y89069D01*
Y87868D02*
Y89069D01*
Y89837D02*
Y91037D01*
Y89837D02*
Y91037D01*
Y91805D02*
Y93006D01*
Y91805D02*
Y93006D01*
X81305Y96350D02*
X82506D01*
X81305D02*
X82506D01*
X79337D02*
X80537D01*
X79337D02*
X80537D01*
X77368D02*
X78569D01*
X77368D02*
X78569D01*
X75400D02*
X76600D01*
X75400D02*
X76600D01*
X73431D02*
X74632D01*
X73431D02*
X74632D01*
X71463D02*
X72663D01*
X71463D02*
X72663D01*
X69494D02*
X70695D01*
X69494D02*
X70695D01*
X85850Y76650D02*
Y96350D01*
X66150D02*
X85850D01*
X66150Y76650D02*
Y96350D01*
Y76650D02*
X85850D01*
M02*
