G04*
G04 #@! TF.GenerationSoftware,Altium Limited,Altium Designer,20.0.13 (296)*
G04*
G04 Layer_Color=65535*
%FSLAX25Y25*%
%MOIN*%
G70*
G01*
G75*
%ADD10C,0.01000*%
%ADD11C,0.00984*%
%ADD12C,0.00600*%
%ADD13C,0.00800*%
%ADD14C,0.00394*%
%ADD15C,0.00100*%
%ADD16C,0.00787*%
G36*
X34350Y26900D02*
X34700D01*
Y25100D01*
X34350D01*
Y26900D01*
D02*
G37*
G36*
X35650Y25100D02*
X35300D01*
Y26900D01*
X35650D01*
Y25100D01*
D02*
G37*
G36*
X43650Y25050D02*
X42350D01*
Y25400D01*
X43650D01*
Y25050D01*
D02*
G37*
G36*
X42350Y26950D02*
X43650D01*
X43650Y26600D01*
X42350D01*
X42350Y26950D01*
D02*
G37*
G36*
X51650Y25100D02*
X51300D01*
Y26900D01*
X51650D01*
Y25100D01*
D02*
G37*
G36*
X50350Y26900D02*
X50700D01*
Y25100D01*
X50350D01*
Y26900D01*
D02*
G37*
G36*
X56100Y41850D02*
Y42200D01*
X57900D01*
Y41850D01*
X56100D01*
D02*
G37*
G36*
X57900Y43150D02*
Y42800D01*
X56100D01*
Y43150D01*
X57900D01*
D02*
G37*
G36*
X34150Y78050D02*
X32850D01*
X32850Y78400D01*
X34150D01*
X34150Y78050D01*
D02*
G37*
G36*
X32850Y79950D02*
X34150D01*
Y79600D01*
X32850D01*
Y79950D01*
D02*
G37*
G36*
X47150Y78050D02*
X45850D01*
Y78400D01*
X47150D01*
Y78050D01*
D02*
G37*
G36*
X45850Y79950D02*
X47150D01*
X47150Y79600D01*
X45850D01*
X45850Y79950D01*
D02*
G37*
G36*
X63150Y64600D02*
X62800D01*
Y66400D01*
X63150D01*
Y64600D01*
D02*
G37*
G36*
X61850Y66400D02*
X62200D01*
Y64600D01*
X61850D01*
Y66400D01*
D02*
G37*
G36*
X58150Y78050D02*
X56850D01*
Y78400D01*
X58150D01*
Y78050D01*
D02*
G37*
G36*
X56850Y79950D02*
X58150D01*
X58150Y79600D01*
X56850D01*
X56850Y79950D01*
D02*
G37*
G36*
X95350Y8000D02*
X95700D01*
Y6200D01*
X95350D01*
Y8000D01*
D02*
G37*
G36*
X96650Y6200D02*
X96300D01*
Y8000D01*
X96650D01*
Y6200D01*
D02*
G37*
G36*
Y9650D02*
X95350D01*
Y10000D01*
X96650D01*
Y9650D01*
D02*
G37*
G36*
X95350Y11550D02*
X96650D01*
X96650Y11200D01*
X95350D01*
X95350Y11550D01*
D02*
G37*
G36*
X106450Y6200D02*
X106100D01*
Y8000D01*
X106450D01*
Y6200D01*
D02*
G37*
G36*
X105150Y8000D02*
X105500D01*
Y6200D01*
X105150D01*
Y8000D01*
D02*
G37*
G36*
X106450Y9700D02*
X106100D01*
Y11500D01*
X106450D01*
Y9700D01*
D02*
G37*
G36*
X105150Y11500D02*
X105500D01*
Y9700D01*
X105150D01*
Y11500D01*
D02*
G37*
G36*
X96450Y84350D02*
X96100Y84350D01*
Y85650D01*
X96450Y85650D01*
Y84350D01*
D02*
G37*
G36*
X94900D02*
X94550D01*
Y85650D01*
X94900D01*
Y84350D01*
D02*
G37*
G36*
X78150Y64600D02*
X77800D01*
Y66400D01*
X78150D01*
Y64600D01*
D02*
G37*
G36*
X77200D02*
X76850D01*
Y66400D01*
X77200D01*
Y64600D01*
D02*
G37*
G36*
X70650D02*
X70300D01*
Y66400D01*
X70650D01*
Y64600D01*
D02*
G37*
G36*
X69700D02*
X69350D01*
Y66400D01*
X69700D01*
Y64600D01*
D02*
G37*
G36*
X115650Y23100D02*
X115300D01*
Y24900D01*
X115650D01*
Y23100D01*
D02*
G37*
G36*
X114700D02*
X114350D01*
Y24900D01*
X114700D01*
Y23100D01*
D02*
G37*
D10*
X106002Y84004D02*
G03*
X111000Y84000I2499J13D01*
G01*
X111003Y90004D02*
G03*
X106000Y90000I-2501J-2D01*
G01*
X106000Y84000D02*
Y90000D01*
X111000Y84000D02*
Y90000D01*
X101807Y78732D02*
X102078D01*
X106457D02*
X110543D01*
X114922D02*
X115193D01*
X101807Y95267D02*
X102078D01*
X106457D02*
X110543D01*
X114922D02*
X115193D01*
X101807Y78732D02*
Y95267D01*
X115193Y78732D02*
X115193Y95267D01*
X47900Y32827D02*
X51400D01*
Y32890D02*
Y69890D01*
X31400Y32827D02*
Y38827D01*
Y32827D02*
X36900D01*
X31400Y63953D02*
Y69953D01*
X36900D01*
X47900D02*
X51400D01*
X44200Y6400D02*
Y12500D01*
D11*
X70492Y73000D02*
G03*
X70492Y73000I-492J0D01*
G01*
X82303Y46579D02*
G03*
X82303Y46579I-492J0D01*
G01*
D12*
X115000Y15400D02*
Y16600D01*
X111654Y14229D02*
Y17772D01*
X118345D02*
X118346Y17771D01*
Y14229D02*
Y17771D01*
X116000Y14229D02*
X118346D01*
X111654D02*
X114000D01*
X116000Y17771D02*
X118346D01*
X111654D02*
X114000D01*
X66150Y96350D02*
X68185D01*
X85850Y94315D02*
Y96350D01*
X66150Y76650D02*
Y78685D01*
X85850Y76650D02*
Y78685D01*
X83815Y96350D02*
X85850D01*
X66150Y94315D02*
Y96350D01*
Y76650D02*
X68185D01*
X83815D02*
X85850D01*
D13*
X99140Y70000D02*
X106140D01*
X114140Y70028D02*
X120158D01*
X99140Y36000D02*
X106140D01*
X114140Y35972D02*
X120158D01*
Y70028D01*
D14*
X58610Y8534D02*
X60185Y6959D01*
X84595Y34518D02*
X86169D01*
Y6959D02*
Y8534D01*
X84595Y6959D02*
X86169D01*
Y32943D02*
Y34518D01*
X58610Y32943D02*
Y34518D01*
X60185D01*
D15*
X96300Y6200D02*
X96650D01*
X96300Y8000D02*
X96650D01*
X96300Y6200D02*
Y8000D01*
X96650Y6200D02*
Y8000D01*
X95350Y6200D02*
Y8000D01*
X95700Y6200D02*
Y8000D01*
X95350Y6200D02*
X95700D01*
X95350Y8000D02*
X95700D01*
X96450Y84350D02*
Y85650D01*
X96100Y84350D02*
X96450D01*
X96100D02*
Y85650D01*
X96450D01*
X94550Y84350D02*
X94900D01*
Y85650D01*
X94550D02*
X94900D01*
X94550Y84350D02*
Y85650D01*
X106100Y9700D02*
X106450D01*
X106100Y11500D02*
X106450D01*
X106100Y9700D02*
Y11500D01*
X106450Y9700D02*
Y11500D01*
X105150Y9700D02*
Y11500D01*
X105500Y9700D02*
Y11500D01*
X105150Y9700D02*
X105500D01*
X105150Y11500D02*
X105500D01*
X106100Y6200D02*
X106450D01*
X106100Y8000D02*
X106450D01*
X106100Y6200D02*
Y8000D01*
X106450Y6200D02*
Y8000D01*
X105150Y6200D02*
Y8000D01*
X105500Y6200D02*
Y8000D01*
X105150Y6200D02*
X105500D01*
X105150Y8000D02*
X105500D01*
X95350Y11550D02*
X96650D01*
Y11200D02*
Y11550D01*
X95350Y11200D02*
X96650D01*
X95350D02*
Y11550D01*
X96650Y9650D02*
Y10000D01*
X95350D02*
X96650D01*
X95350Y9650D02*
Y10000D01*
Y9650D02*
X96650D01*
X115300Y23100D02*
X115650D01*
X115300Y24900D02*
X115650D01*
X115300Y23100D02*
Y24900D01*
X115650Y23100D02*
Y24900D01*
X114350Y23100D02*
Y24900D01*
X114700Y23100D02*
Y24900D01*
X114350Y23100D02*
X114700D01*
X114350Y24900D02*
X114700D01*
X50350Y26900D02*
X50700D01*
X50350Y25100D02*
X50700D01*
Y26900D01*
X50350Y25100D02*
Y26900D01*
X51650Y25100D02*
Y26900D01*
X51300Y25100D02*
Y26900D01*
X51650D01*
X51300Y25100D02*
X51650D01*
X56850Y79950D02*
X58150D01*
Y79600D02*
Y79950D01*
X56850Y79600D02*
X58150D01*
X56850D02*
Y79950D01*
X58150Y78050D02*
Y78400D01*
X56850D02*
X58150D01*
X56850Y78050D02*
Y78400D01*
Y78050D02*
X58150D01*
X45850Y79950D02*
X47150D01*
Y79600D02*
Y79950D01*
X45850Y79600D02*
X47150D01*
X45850D02*
Y79950D01*
X47150Y78050D02*
Y78400D01*
X45850D02*
X47150D01*
X45850Y78050D02*
Y78400D01*
Y78050D02*
X47150D01*
X32850D02*
X34150D01*
X32850D02*
Y78400D01*
X34150D01*
Y78050D02*
Y78400D01*
X32850Y79600D02*
Y79950D01*
Y79600D02*
X34150D01*
Y79950D01*
X32850D02*
X34150D01*
X42350Y26950D02*
X43650D01*
Y26600D02*
Y26950D01*
X42350Y26600D02*
X43650D01*
X42350D02*
Y26950D01*
X43650Y25050D02*
Y25400D01*
X42350D02*
X43650D01*
X42350Y25050D02*
Y25400D01*
Y25050D02*
X43650D01*
X35300Y25100D02*
X35650D01*
X35300Y26900D02*
X35650D01*
X35300Y25100D02*
Y26900D01*
X35650Y25100D02*
Y26900D01*
X34350Y25100D02*
Y26900D01*
X34700Y25100D02*
Y26900D01*
X34350Y25100D02*
X34700D01*
X34350Y26900D02*
X34700D01*
X76850Y66400D02*
X77200D01*
X76850Y64600D02*
X77200D01*
Y66400D01*
X76850Y64600D02*
Y66400D01*
X78150Y64600D02*
Y66400D01*
X77800Y64600D02*
Y66400D01*
X78150D01*
X77800Y64600D02*
X78150D01*
X70300D02*
X70650D01*
X70300Y66400D02*
X70650D01*
X70300Y64600D02*
Y66400D01*
X70650Y64600D02*
Y66400D01*
X69350Y64600D02*
Y66400D01*
X69700Y64600D02*
Y66400D01*
X69350Y64600D02*
X69700D01*
X69350Y66400D02*
X69700D01*
X57900Y42800D02*
Y43150D01*
X56100Y42800D02*
Y43150D01*
Y42800D02*
X57900D01*
X56100Y43150D02*
X57900D01*
X56100Y41850D02*
X57900D01*
X56100Y42200D02*
X57900D01*
Y41850D02*
Y42200D01*
X56100Y41850D02*
Y42200D01*
X61850Y66400D02*
X62200D01*
X61850Y64600D02*
X62200D01*
Y66400D01*
X61850Y64600D02*
Y66400D01*
X63150Y64600D02*
Y66400D01*
X62800Y64600D02*
Y66400D01*
X63150D01*
X62800Y64600D02*
X63150D01*
D16*
X96551Y23756D02*
Y27102D01*
X100882D01*
X96551Y14898D02*
Y18244D01*
Y14898D02*
X100882D01*
X37445Y94429D02*
X39217D01*
X28770D02*
X30555D01*
X28784Y89114D02*
Y94429D01*
X39217Y89114D02*
Y94429D01*
X56945D02*
X58716D01*
X48270D02*
X50055D01*
X48283Y89114D02*
Y94429D01*
X58716Y89114D02*
Y94429D01*
X78071Y57504D02*
Y59571D01*
X76004D02*
X78071D01*
X61929D02*
X63996D01*
X61929Y57504D02*
Y59571D01*
Y43429D02*
Y45496D01*
Y43429D02*
X63996D01*
X76004D02*
X78071D01*
Y45496D01*
M02*
