G04*
G04 #@! TF.GenerationSoftware,Altium Limited,Altium Designer,20.0.13 (296)*
G04*
G04 Layer_Color=16711935*
%FSLAX25Y25*%
%MOIN*%
G70*
G01*
G75*
%ADD12C,0.00200*%
%ADD13C,0.00394*%
D12*
X31468Y36016D02*
Y37984D01*
X27531Y36016D02*
Y37984D01*
X31468D01*
X27531Y36016D02*
X31468D01*
X29500Y36400D02*
Y37600D01*
X28900Y37000D02*
X30100D01*
X31468Y30516D02*
Y32484D01*
X27531Y30516D02*
Y32484D01*
X31468D01*
X27531Y30516D02*
X31468D01*
X29500Y30900D02*
Y32100D01*
X28900Y31500D02*
X30100D01*
X31468Y67016D02*
Y68984D01*
X27531Y67016D02*
Y68984D01*
X31468D01*
X27531Y67016D02*
X31468D01*
X29500Y67400D02*
Y68600D01*
X28900Y68000D02*
X30100D01*
X31468Y72516D02*
Y74484D01*
X27531Y72516D02*
Y74484D01*
X31468D01*
X27531Y72516D02*
X31468D01*
X29500Y72900D02*
Y74100D01*
X28900Y73500D02*
X30100D01*
X97969Y6116D02*
Y8084D01*
X94032Y6116D02*
Y8084D01*
Y6116D02*
X97969D01*
X94032Y8084D02*
X97969D01*
X96000Y6500D02*
Y7700D01*
X95400Y7100D02*
X96600D01*
X94516Y83031D02*
X96484D01*
X94516Y86968D02*
X96484D01*
X94516Y83031D02*
Y86968D01*
X96484Y83031D02*
Y86968D01*
X94900Y85000D02*
X96100D01*
X95500Y84400D02*
Y85600D01*
X107768Y9616D02*
Y11584D01*
X103832Y9616D02*
Y11584D01*
Y9616D02*
X107768D01*
X103832Y11584D02*
X107768D01*
X105800Y10000D02*
Y11200D01*
X105200Y10600D02*
X106400D01*
X107768Y6116D02*
Y8084D01*
X103832Y6116D02*
Y8084D01*
Y6116D02*
X107768D01*
X103832Y8084D02*
X107768D01*
X105800Y6500D02*
Y7700D01*
X105200Y7100D02*
X106400D01*
X97969Y9616D02*
Y11584D01*
X94032Y9616D02*
Y11584D01*
Y9616D02*
X97969D01*
X94032Y11584D02*
X97969D01*
X96000Y10000D02*
Y11200D01*
X95400Y10600D02*
X96600D01*
X116969Y23016D02*
Y24984D01*
X113031Y23016D02*
Y24984D01*
Y23016D02*
X116969D01*
X113031Y24984D02*
X116969D01*
X115000Y23400D02*
Y24600D01*
X114400Y24000D02*
X115600D01*
X49031Y25016D02*
Y26984D01*
X52969Y25016D02*
Y26984D01*
X49031D02*
X52969D01*
X49031Y25016D02*
X52969D01*
X51000Y25400D02*
Y26600D01*
X50400Y26000D02*
X51600D01*
X59469Y78016D02*
Y79984D01*
X55532Y78016D02*
Y79984D01*
Y78016D02*
X59469D01*
X55532Y79984D02*
X59469D01*
X57500Y78400D02*
Y79600D01*
X56900Y79000D02*
X58100D01*
X48469Y78016D02*
Y79984D01*
X44532Y78016D02*
Y79984D01*
Y78016D02*
X48469D01*
X44532Y79984D02*
X48469D01*
X46500Y78400D02*
Y79600D01*
X45900Y79000D02*
X47100D01*
X31532Y78016D02*
Y79984D01*
X35469Y78016D02*
Y79984D01*
X31532D02*
X35469D01*
X31532Y78016D02*
X35469D01*
X33500Y78400D02*
Y79600D01*
X32900Y79000D02*
X34100D01*
X44969Y25016D02*
Y26984D01*
X41032Y25016D02*
Y26984D01*
Y25016D02*
X44969D01*
X41032Y26984D02*
X44969D01*
X43000Y25400D02*
Y26600D01*
X42400Y26000D02*
X43600D01*
X36968Y25016D02*
Y26984D01*
X33031Y25016D02*
Y26984D01*
Y25016D02*
X36968D01*
X33031Y26984D02*
X36968D01*
X35000Y25400D02*
Y26600D01*
X34400Y26000D02*
X35600D01*
X75532Y64516D02*
Y66484D01*
X79469Y64516D02*
Y66484D01*
X75532D02*
X79469D01*
X75532Y64516D02*
X79469D01*
X77500Y64900D02*
Y66100D01*
X76900Y65500D02*
X78100D01*
X71969Y64516D02*
Y66484D01*
X68032Y64516D02*
Y66484D01*
Y64516D02*
X71969D01*
X68032Y66484D02*
X71969D01*
X70000Y64900D02*
Y66100D01*
X69400Y65500D02*
X70600D01*
X56016Y44469D02*
X57984D01*
X56016Y40532D02*
X57984D01*
Y44469D01*
X56016Y40532D02*
Y44469D01*
X56400Y42500D02*
X57600D01*
X57000Y41900D02*
Y43100D01*
X60532Y64516D02*
Y66484D01*
X64468Y64516D02*
Y66484D01*
X60532D02*
X64468D01*
X60532Y64516D02*
X64468D01*
X62500Y64900D02*
Y66100D01*
X61900Y65500D02*
X63100D01*
D13*
X96551Y27102D02*
X103638D01*
X96551Y14898D02*
X103638D01*
X96551D02*
Y27102D01*
X103638Y14898D02*
Y27102D01*
M02*
